G04 #@! TF.FileFunction,Soldermask,Top*
%FSLAX46Y46*%
G04 Gerber Fmt 4.6, Leading zero omitted, Abs format (unit mm)*
G04 Created by KiCad (PCBNEW 4.0.7) date 09/10/19 22:44:32*
%MOMM*%
%LPD*%
G01*
G04 APERTURE LIST*
%ADD10C,0.100000*%
%ADD11R,3.400000X1.400000*%
%ADD12R,1.200000X1.150000*%
%ADD13R,1.650000X1.400000*%
%ADD14R,1.150000X1.200000*%
%ADD15R,2.900000X2.200000*%
%ADD16C,1.924000*%
%ADD17R,4.400000X2.400000*%
%ADD18R,0.900000X1.300000*%
%ADD19R,1.300000X0.900000*%
%ADD20R,2.600000X2.200000*%
%ADD21R,1.700000X0.700000*%
%ADD22R,1.460000X1.050000*%
G04 APERTURE END LIST*
D10*
D11*
X148590000Y-113270000D03*
X148590000Y-117870000D03*
D12*
X132600000Y-106680000D03*
X134100000Y-106680000D03*
X136410000Y-115570000D03*
X137910000Y-115570000D03*
D13*
X127900000Y-105200000D03*
X127900000Y-107200000D03*
D14*
X127900000Y-110950000D03*
X127900000Y-112450000D03*
D15*
X131350000Y-101600000D03*
X135350000Y-101600000D03*
D16*
X157480000Y-58420000D03*
X157480000Y-60960000D03*
X157480000Y-63500000D03*
X157480000Y-66040000D03*
X157480000Y-68580000D03*
X157480000Y-71120000D03*
X157480000Y-73660000D03*
X157480000Y-76200000D03*
X157480000Y-78740000D03*
X157480000Y-81280000D03*
X157480000Y-83820000D03*
X157480000Y-86360000D03*
X157480000Y-88900000D03*
X157480000Y-91440000D03*
X157480000Y-93980000D03*
X157480000Y-96520000D03*
X157480000Y-99060000D03*
X157480000Y-101600000D03*
X157480000Y-104140000D03*
X157480000Y-106680000D03*
X157480000Y-109220000D03*
X157480000Y-111760000D03*
X157480000Y-114300000D03*
X157480000Y-116840000D03*
D17*
X141780000Y-102330000D03*
X141780000Y-105830000D03*
D18*
X147840000Y-58420000D03*
X149340000Y-58420000D03*
X147840000Y-60960000D03*
X149340000Y-60960000D03*
X147840000Y-63500000D03*
X149340000Y-63500000D03*
X147840000Y-66040000D03*
X149340000Y-66040000D03*
X147840000Y-68580000D03*
X149340000Y-68580000D03*
X147840000Y-71120000D03*
X149340000Y-71120000D03*
X147840000Y-76200000D03*
X149340000Y-76200000D03*
X147840000Y-78740000D03*
X149340000Y-78740000D03*
X147840000Y-81280000D03*
X149340000Y-81280000D03*
X147840000Y-83820000D03*
X149340000Y-83820000D03*
X147840000Y-86360000D03*
X149340000Y-86360000D03*
X147840000Y-88900000D03*
X149340000Y-88900000D03*
X147840000Y-91440000D03*
X149340000Y-91440000D03*
X147840000Y-93980000D03*
X149340000Y-93980000D03*
X147840000Y-96520000D03*
X149340000Y-96520000D03*
X147840000Y-99060000D03*
X149340000Y-99060000D03*
X147840000Y-101600000D03*
X149340000Y-101600000D03*
X147840000Y-104140000D03*
X149340000Y-104140000D03*
X147840000Y-106680000D03*
X149340000Y-106680000D03*
X147840000Y-109220000D03*
X149340000Y-109220000D03*
X130050000Y-114900000D03*
X131550000Y-114900000D03*
D19*
X131000000Y-109050000D03*
X131000000Y-110550000D03*
D20*
X133220000Y-93200000D03*
X133220000Y-71900000D03*
D21*
X136470000Y-73800000D03*
X136470000Y-74300000D03*
X136470000Y-74800000D03*
X136470000Y-75300000D03*
X136470000Y-75800000D03*
X136470000Y-76300000D03*
X136470000Y-76800000D03*
X136470000Y-77300000D03*
X136470000Y-77800000D03*
X136470000Y-78300000D03*
X136470000Y-78800000D03*
X136470000Y-79300000D03*
X136470000Y-79800000D03*
X136470000Y-80300000D03*
X136470000Y-80800000D03*
X136470000Y-81300000D03*
X136470000Y-81800000D03*
X136470000Y-82300000D03*
X136470000Y-82800000D03*
X136470000Y-83300000D03*
X136470000Y-83800000D03*
X136470000Y-84300000D03*
X136470000Y-84800000D03*
X136470000Y-85300000D03*
X136470000Y-85800000D03*
X136470000Y-86300000D03*
X136470000Y-86800000D03*
X136470000Y-87300000D03*
X136470000Y-87800000D03*
X136470000Y-88300000D03*
X136470000Y-88800000D03*
X136470000Y-89300000D03*
X136470000Y-89800000D03*
X136470000Y-90300000D03*
X136470000Y-90800000D03*
X136470000Y-91300000D03*
D22*
X136060000Y-109540000D03*
X136060000Y-110490000D03*
X136060000Y-111440000D03*
X138260000Y-111440000D03*
X138260000Y-109540000D03*
X138260000Y-110490000D03*
D18*
X147840000Y-73660000D03*
X149340000Y-73660000D03*
M02*
