%FSLAX45Y45*%
G04 Gerber Fmt 4.5, Leading zero omitted, Abs format (unit mm)*
G04 Created by KiCad (PCBNEW 4.0.7) date 09/10/19 22:44:37*
%MOMM*%
%LPD*%
G01*
G04 APERTURE LIST*
%ADD10C,0.127000*%
%ADD11C,0.150000*%
%ADD12C,0.200000*%
%ADD13C,0.300000*%
G04 APERTURE END LIST*
D10*
D11*
X12446000Y-5461000D02*
X12446000Y-12065000D01*
X16129000Y-5461000D02*
X12446000Y-5461000D01*
X16129000Y-12065000D02*
X12446000Y-12065000D01*
X16129000Y-5461000D02*
X16129000Y-12065000D01*
D12*
X12930000Y-10380000D02*
X12970000Y-10420000D01*
X12970000Y-10380000D02*
X12930000Y-10420000D01*
X12950000Y-9200000D02*
X12990000Y-9240000D01*
X12990000Y-9200000D02*
X12950000Y-9240000D01*
X13030000Y-11230000D02*
X13070000Y-11270000D01*
X13070000Y-11230000D02*
X13030000Y-11270000D01*
X13350000Y-11390000D02*
X13390000Y-11430000D01*
X13390000Y-11390000D02*
X13350000Y-11430000D01*
X13750000Y-10140000D02*
X13790000Y-10180000D01*
X13790000Y-10140000D02*
X13750000Y-10180000D01*
X13770000Y-10740000D02*
X13810000Y-10780000D01*
X13810000Y-10740000D02*
X13770000Y-10780000D01*
X14200000Y-11130000D02*
X14240000Y-11170000D01*
X14240000Y-11130000D02*
X14200000Y-11170000D01*
X15786100Y-5842000D02*
G75*
G03X15786100Y-5842000I-38100J0D01*
G01*
X15786100Y-6096000D02*
G75*
G03X15786100Y-6096000I-38100J0D01*
G01*
X15786100Y-6350000D02*
G75*
G03X15786100Y-6350000I-38100J0D01*
G01*
X15786100Y-6604000D02*
G75*
G03X15786100Y-6604000I-38100J0D01*
G01*
X15786100Y-6858000D02*
G75*
G03X15786100Y-6858000I-38100J0D01*
G01*
X15786100Y-7112000D02*
G75*
G03X15786100Y-7112000I-38100J0D01*
G01*
X15786100Y-7366000D02*
G75*
G03X15786100Y-7366000I-38100J0D01*
G01*
X15786100Y-7620000D02*
G75*
G03X15786100Y-7620000I-38100J0D01*
G01*
X15786100Y-7874000D02*
G75*
G03X15786100Y-7874000I-38100J0D01*
G01*
X15786100Y-8128000D02*
G75*
G03X15786100Y-8128000I-38100J0D01*
G01*
X15786100Y-8382000D02*
G75*
G03X15786100Y-8382000I-38100J0D01*
G01*
X15786100Y-8636000D02*
G75*
G03X15786100Y-8636000I-38100J0D01*
G01*
X15786100Y-8890000D02*
G75*
G03X15786100Y-8890000I-38100J0D01*
G01*
X15786100Y-9144000D02*
G75*
G03X15786100Y-9144000I-38100J0D01*
G01*
X15786100Y-9398000D02*
G75*
G03X15786100Y-9398000I-38100J0D01*
G01*
X15786100Y-9652000D02*
G75*
G03X15786100Y-9652000I-38100J0D01*
G01*
X15786100Y-9906000D02*
G75*
G03X15786100Y-9906000I-38100J0D01*
G01*
X15786100Y-10160000D02*
G75*
G03X15786100Y-10160000I-38100J0D01*
G01*
X15786100Y-10414000D02*
G75*
G03X15786100Y-10414000I-38100J0D01*
G01*
X15786100Y-10668000D02*
G75*
G03X15786100Y-10668000I-38100J0D01*
G01*
X15786100Y-10922000D02*
G75*
G03X15786100Y-10922000I-38100J0D01*
G01*
X15786100Y-11176000D02*
G75*
G03X15786100Y-11176000I-38100J0D01*
G01*
X15786100Y-11430000D02*
G75*
G03X15786100Y-11430000I-38100J0D01*
G01*
X15786100Y-11684000D02*
G75*
G03X15786100Y-11684000I-38100J0D01*
G01*
D13*
X12709928Y-12538214D02*
X12709928Y-12238214D01*
X12781357Y-12238214D01*
X12824214Y-12252500D01*
X12852786Y-12281071D01*
X12867071Y-12309643D01*
X12881357Y-12366786D01*
X12881357Y-12409643D01*
X12867071Y-12466786D01*
X12852786Y-12495357D01*
X12824214Y-12523929D01*
X12781357Y-12538214D01*
X12709928Y-12538214D01*
X13009928Y-12538214D02*
X13009928Y-12338214D01*
X13009928Y-12395357D02*
X13024214Y-12366786D01*
X13038500Y-12352500D01*
X13067071Y-12338214D01*
X13095643Y-12338214D01*
X13195643Y-12538214D02*
X13195643Y-12338214D01*
X13195643Y-12238214D02*
X13181357Y-12252500D01*
X13195643Y-12266786D01*
X13209928Y-12252500D01*
X13195643Y-12238214D01*
X13195643Y-12266786D01*
X13381357Y-12538214D02*
X13352786Y-12523929D01*
X13338500Y-12495357D01*
X13338500Y-12238214D01*
X13538500Y-12538214D02*
X13509928Y-12523929D01*
X13495643Y-12495357D01*
X13495643Y-12238214D01*
X13881357Y-12538214D02*
X13881357Y-12238214D01*
X13981357Y-12452500D01*
X14081357Y-12238214D01*
X14081357Y-12538214D01*
X14352786Y-12538214D02*
X14352786Y-12381071D01*
X14338500Y-12352500D01*
X14309928Y-12338214D01*
X14252786Y-12338214D01*
X14224214Y-12352500D01*
X14352786Y-12523929D02*
X14324214Y-12538214D01*
X14252786Y-12538214D01*
X14224214Y-12523929D01*
X14209928Y-12495357D01*
X14209928Y-12466786D01*
X14224214Y-12438214D01*
X14252786Y-12423929D01*
X14324214Y-12423929D01*
X14352786Y-12409643D01*
X14495643Y-12338214D02*
X14495643Y-12638214D01*
X14495643Y-12352500D02*
X14524214Y-12338214D01*
X14581357Y-12338214D01*
X14609928Y-12352500D01*
X14624214Y-12366786D01*
X14638500Y-12395357D01*
X14638500Y-12481071D01*
X14624214Y-12509643D01*
X14609928Y-12523929D01*
X14581357Y-12538214D01*
X14524214Y-12538214D01*
X14495643Y-12523929D01*
X14767071Y-12509643D02*
X14781357Y-12523929D01*
X14767071Y-12538214D01*
X14752786Y-12523929D01*
X14767071Y-12509643D01*
X14767071Y-12538214D01*
X14767071Y-12352500D02*
X14781357Y-12366786D01*
X14767071Y-12381071D01*
X14752786Y-12366786D01*
X14767071Y-12352500D01*
X14767071Y-12381071D01*
X12398500Y-13012500D02*
X12438500Y-13052500D01*
X12438500Y-13012500D02*
X12398500Y-13052500D01*
X12767071Y-12868214D02*
X12795643Y-12868214D01*
X12824214Y-12882500D01*
X12838500Y-12896786D01*
X12852786Y-12925357D01*
X12867071Y-12982500D01*
X12867071Y-13053929D01*
X12852786Y-13111071D01*
X12838500Y-13139643D01*
X12824214Y-13153929D01*
X12795643Y-13168214D01*
X12767071Y-13168214D01*
X12738500Y-13153929D01*
X12724214Y-13139643D01*
X12709928Y-13111071D01*
X12695643Y-13053929D01*
X12695643Y-12982500D01*
X12709928Y-12925357D01*
X12724214Y-12896786D01*
X12738500Y-12882500D01*
X12767071Y-12868214D01*
X12995643Y-13139643D02*
X13009928Y-13153929D01*
X12995643Y-13168214D01*
X12981357Y-13153929D01*
X12995643Y-13139643D01*
X12995643Y-13168214D01*
X13267071Y-12968214D02*
X13267071Y-13168214D01*
X13195643Y-12853929D02*
X13124214Y-13068214D01*
X13309928Y-13068214D01*
X13481357Y-12868214D02*
X13509928Y-12868214D01*
X13538500Y-12882500D01*
X13552786Y-12896786D01*
X13567071Y-12925357D01*
X13581357Y-12982500D01*
X13581357Y-13053929D01*
X13567071Y-13111071D01*
X13552786Y-13139643D01*
X13538500Y-13153929D01*
X13509928Y-13168214D01*
X13481357Y-13168214D01*
X13452786Y-13153929D01*
X13438500Y-13139643D01*
X13424214Y-13111071D01*
X13409928Y-13053929D01*
X13409928Y-12982500D01*
X13424214Y-12925357D01*
X13438500Y-12896786D01*
X13452786Y-12882500D01*
X13481357Y-12868214D01*
X13709928Y-13168214D02*
X13709928Y-12968214D01*
X13709928Y-12996786D02*
X13724214Y-12982500D01*
X13752786Y-12968214D01*
X13795643Y-12968214D01*
X13824214Y-12982500D01*
X13838500Y-13011071D01*
X13838500Y-13168214D01*
X13838500Y-13011071D02*
X13852786Y-12982500D01*
X13881357Y-12968214D01*
X13924214Y-12968214D01*
X13952786Y-12982500D01*
X13967071Y-13011071D01*
X13967071Y-13168214D01*
X14109928Y-13168214D02*
X14109928Y-12968214D01*
X14109928Y-12996786D02*
X14124214Y-12982500D01*
X14152786Y-12968214D01*
X14195643Y-12968214D01*
X14224214Y-12982500D01*
X14238500Y-13011071D01*
X14238500Y-13168214D01*
X14238500Y-13011071D02*
X14252786Y-12982500D01*
X14281357Y-12968214D01*
X14324214Y-12968214D01*
X14352786Y-12982500D01*
X14367071Y-13011071D01*
X14367071Y-13168214D01*
X14952786Y-12853929D02*
X14695643Y-13239643D01*
X15338500Y-12868214D02*
X15367071Y-12868214D01*
X15395643Y-12882500D01*
X15409928Y-12896786D01*
X15424214Y-12925357D01*
X15438500Y-12982500D01*
X15438500Y-13053929D01*
X15424214Y-13111071D01*
X15409928Y-13139643D01*
X15395643Y-13153929D01*
X15367071Y-13168214D01*
X15338500Y-13168214D01*
X15309928Y-13153929D01*
X15295643Y-13139643D01*
X15281357Y-13111071D01*
X15267071Y-13053929D01*
X15267071Y-12982500D01*
X15281357Y-12925357D01*
X15295643Y-12896786D01*
X15309928Y-12882500D01*
X15338500Y-12868214D01*
X15567071Y-13139643D02*
X15581357Y-13153929D01*
X15567071Y-13168214D01*
X15552786Y-13153929D01*
X15567071Y-13139643D01*
X15567071Y-13168214D01*
X15767071Y-12868214D02*
X15795643Y-12868214D01*
X15824214Y-12882500D01*
X15838500Y-12896786D01*
X15852785Y-12925357D01*
X15867071Y-12982500D01*
X15867071Y-13053929D01*
X15852785Y-13111071D01*
X15838500Y-13139643D01*
X15824214Y-13153929D01*
X15795643Y-13168214D01*
X15767071Y-13168214D01*
X15738500Y-13153929D01*
X15724214Y-13139643D01*
X15709928Y-13111071D01*
X15695643Y-13053929D01*
X15695643Y-12982500D01*
X15709928Y-12925357D01*
X15724214Y-12896786D01*
X15738500Y-12882500D01*
X15767071Y-12868214D01*
X16152785Y-13168214D02*
X15981357Y-13168214D01*
X16067071Y-13168214D02*
X16067071Y-12868214D01*
X16038500Y-12911071D01*
X16009928Y-12939643D01*
X15981357Y-12953929D01*
X16409928Y-12868214D02*
X16352785Y-12868214D01*
X16324214Y-12882500D01*
X16309928Y-12896786D01*
X16281357Y-12939643D01*
X16267071Y-12996786D01*
X16267071Y-13111071D01*
X16281357Y-13139643D01*
X16295643Y-13153929D01*
X16324214Y-13168214D01*
X16381357Y-13168214D01*
X16409928Y-13153929D01*
X16424214Y-13139643D01*
X16438500Y-13111071D01*
X16438500Y-13039643D01*
X16424214Y-13011071D01*
X16409928Y-12996786D01*
X16381357Y-12982500D01*
X16324214Y-12982500D01*
X16295643Y-12996786D01*
X16281357Y-13011071D01*
X16267071Y-13039643D01*
X16552786Y-12868214D02*
X16552786Y-12925357D01*
X16667071Y-12868214D02*
X16667071Y-12925357D01*
X17109928Y-13282500D02*
X17095643Y-13268214D01*
X17067071Y-13225357D01*
X17052786Y-13196786D01*
X17038500Y-13153929D01*
X17024214Y-13082500D01*
X17024214Y-13025357D01*
X17038500Y-12953929D01*
X17052786Y-12911071D01*
X17067071Y-12882500D01*
X17095643Y-12839643D01*
X17109928Y-12825357D01*
X17195643Y-12868214D02*
X17395643Y-12868214D01*
X17267071Y-13168214D01*
X17738500Y-13168214D02*
X17738500Y-12868214D01*
X17867071Y-13168214D02*
X17867071Y-13011071D01*
X17852786Y-12982500D01*
X17824214Y-12968214D01*
X17781357Y-12968214D01*
X17752786Y-12982500D01*
X17738500Y-12996786D01*
X18052786Y-13168214D02*
X18024214Y-13153929D01*
X18009928Y-13139643D01*
X17995643Y-13111071D01*
X17995643Y-13025357D01*
X18009928Y-12996786D01*
X18024214Y-12982500D01*
X18052786Y-12968214D01*
X18095643Y-12968214D01*
X18124214Y-12982500D01*
X18138500Y-12996786D01*
X18152786Y-13025357D01*
X18152786Y-13111071D01*
X18138500Y-13139643D01*
X18124214Y-13153929D01*
X18095643Y-13168214D01*
X18052786Y-13168214D01*
X18324214Y-13168214D02*
X18295643Y-13153929D01*
X18281357Y-13125357D01*
X18281357Y-12868214D01*
X18552786Y-13153929D02*
X18524214Y-13168214D01*
X18467071Y-13168214D01*
X18438500Y-13153929D01*
X18424214Y-13125357D01*
X18424214Y-13011071D01*
X18438500Y-12982500D01*
X18467071Y-12968214D01*
X18524214Y-12968214D01*
X18552786Y-12982500D01*
X18567071Y-13011071D01*
X18567071Y-13039643D01*
X18424214Y-13068214D01*
X18681357Y-13153929D02*
X18709929Y-13168214D01*
X18767071Y-13168214D01*
X18795643Y-13153929D01*
X18809929Y-13125357D01*
X18809929Y-13111071D01*
X18795643Y-13082500D01*
X18767071Y-13068214D01*
X18724214Y-13068214D01*
X18695643Y-13053929D01*
X18681357Y-13025357D01*
X18681357Y-13011071D01*
X18695643Y-12982500D01*
X18724214Y-12968214D01*
X18767071Y-12968214D01*
X18795643Y-12982500D01*
X18909928Y-13282500D02*
X18924214Y-13268214D01*
X18952786Y-13225357D01*
X18967071Y-13196786D01*
X18981357Y-13153929D01*
X18995643Y-13082500D01*
X18995643Y-13025357D01*
X18981357Y-12953929D01*
X18967071Y-12911071D01*
X18952786Y-12882500D01*
X18924214Y-12839643D01*
X18909928Y-12825357D01*
X12438500Y-13428500D02*
G75*
G03X12438500Y-13428500I-38100J0D01*
G01*
X12767071Y-13264214D02*
X12795643Y-13264214D01*
X12824214Y-13278500D01*
X12838500Y-13292786D01*
X12852786Y-13321357D01*
X12867071Y-13378500D01*
X12867071Y-13449929D01*
X12852786Y-13507071D01*
X12838500Y-13535643D01*
X12824214Y-13549929D01*
X12795643Y-13564214D01*
X12767071Y-13564214D01*
X12738500Y-13549929D01*
X12724214Y-13535643D01*
X12709928Y-13507071D01*
X12695643Y-13449929D01*
X12695643Y-13378500D01*
X12709928Y-13321357D01*
X12724214Y-13292786D01*
X12738500Y-13278500D01*
X12767071Y-13264214D01*
X12995643Y-13535643D02*
X13009928Y-13549929D01*
X12995643Y-13564214D01*
X12981357Y-13549929D01*
X12995643Y-13535643D01*
X12995643Y-13564214D01*
X13109928Y-13264214D02*
X13309928Y-13264214D01*
X13181357Y-13564214D01*
X13552786Y-13264214D02*
X13495643Y-13264214D01*
X13467071Y-13278500D01*
X13452786Y-13292786D01*
X13424214Y-13335643D01*
X13409928Y-13392786D01*
X13409928Y-13507071D01*
X13424214Y-13535643D01*
X13438500Y-13549929D01*
X13467071Y-13564214D01*
X13524214Y-13564214D01*
X13552786Y-13549929D01*
X13567071Y-13535643D01*
X13581357Y-13507071D01*
X13581357Y-13435643D01*
X13567071Y-13407071D01*
X13552786Y-13392786D01*
X13524214Y-13378500D01*
X13467071Y-13378500D01*
X13438500Y-13392786D01*
X13424214Y-13407071D01*
X13409928Y-13435643D01*
X13709928Y-13564214D02*
X13709928Y-13364214D01*
X13709928Y-13392786D02*
X13724214Y-13378500D01*
X13752786Y-13364214D01*
X13795643Y-13364214D01*
X13824214Y-13378500D01*
X13838500Y-13407071D01*
X13838500Y-13564214D01*
X13838500Y-13407071D02*
X13852786Y-13378500D01*
X13881357Y-13364214D01*
X13924214Y-13364214D01*
X13952786Y-13378500D01*
X13967071Y-13407071D01*
X13967071Y-13564214D01*
X14109928Y-13564214D02*
X14109928Y-13364214D01*
X14109928Y-13392786D02*
X14124214Y-13378500D01*
X14152786Y-13364214D01*
X14195643Y-13364214D01*
X14224214Y-13378500D01*
X14238500Y-13407071D01*
X14238500Y-13564214D01*
X14238500Y-13407071D02*
X14252786Y-13378500D01*
X14281357Y-13364214D01*
X14324214Y-13364214D01*
X14352786Y-13378500D01*
X14367071Y-13407071D01*
X14367071Y-13564214D01*
X14952786Y-13249929D02*
X14695643Y-13635643D01*
X15338500Y-13264214D02*
X15367071Y-13264214D01*
X15395643Y-13278500D01*
X15409928Y-13292786D01*
X15424214Y-13321357D01*
X15438500Y-13378500D01*
X15438500Y-13449929D01*
X15424214Y-13507071D01*
X15409928Y-13535643D01*
X15395643Y-13549929D01*
X15367071Y-13564214D01*
X15338500Y-13564214D01*
X15309928Y-13549929D01*
X15295643Y-13535643D01*
X15281357Y-13507071D01*
X15267071Y-13449929D01*
X15267071Y-13378500D01*
X15281357Y-13321357D01*
X15295643Y-13292786D01*
X15309928Y-13278500D01*
X15338500Y-13264214D01*
X15567071Y-13535643D02*
X15581357Y-13549929D01*
X15567071Y-13564214D01*
X15552786Y-13549929D01*
X15567071Y-13535643D01*
X15567071Y-13564214D01*
X15767071Y-13264214D02*
X15795643Y-13264214D01*
X15824214Y-13278500D01*
X15838500Y-13292786D01*
X15852785Y-13321357D01*
X15867071Y-13378500D01*
X15867071Y-13449929D01*
X15852785Y-13507071D01*
X15838500Y-13535643D01*
X15824214Y-13549929D01*
X15795643Y-13564214D01*
X15767071Y-13564214D01*
X15738500Y-13549929D01*
X15724214Y-13535643D01*
X15709928Y-13507071D01*
X15695643Y-13449929D01*
X15695643Y-13378500D01*
X15709928Y-13321357D01*
X15724214Y-13292786D01*
X15738500Y-13278500D01*
X15767071Y-13264214D01*
X15967071Y-13264214D02*
X16152785Y-13264214D01*
X16052785Y-13378500D01*
X16095643Y-13378500D01*
X16124214Y-13392786D01*
X16138500Y-13407071D01*
X16152785Y-13435643D01*
X16152785Y-13507071D01*
X16138500Y-13535643D01*
X16124214Y-13549929D01*
X16095643Y-13564214D01*
X16009928Y-13564214D01*
X15981357Y-13549929D01*
X15967071Y-13535643D01*
X16338500Y-13264214D02*
X16367071Y-13264214D01*
X16395643Y-13278500D01*
X16409928Y-13292786D01*
X16424214Y-13321357D01*
X16438500Y-13378500D01*
X16438500Y-13449929D01*
X16424214Y-13507071D01*
X16409928Y-13535643D01*
X16395643Y-13549929D01*
X16367071Y-13564214D01*
X16338500Y-13564214D01*
X16309928Y-13549929D01*
X16295643Y-13535643D01*
X16281357Y-13507071D01*
X16267071Y-13449929D01*
X16267071Y-13378500D01*
X16281357Y-13321357D01*
X16295643Y-13292786D01*
X16309928Y-13278500D01*
X16338500Y-13264214D01*
X16552786Y-13264214D02*
X16552786Y-13321357D01*
X16667071Y-13264214D02*
X16667071Y-13321357D01*
X17109928Y-13678500D02*
X17095643Y-13664214D01*
X17067071Y-13621357D01*
X17052786Y-13592786D01*
X17038500Y-13549929D01*
X17024214Y-13478500D01*
X17024214Y-13421357D01*
X17038500Y-13349929D01*
X17052786Y-13307071D01*
X17067071Y-13278500D01*
X17095643Y-13235643D01*
X17109928Y-13221357D01*
X17209928Y-13292786D02*
X17224214Y-13278500D01*
X17252786Y-13264214D01*
X17324214Y-13264214D01*
X17352786Y-13278500D01*
X17367071Y-13292786D01*
X17381357Y-13321357D01*
X17381357Y-13349929D01*
X17367071Y-13392786D01*
X17195643Y-13564214D01*
X17381357Y-13564214D01*
X17638500Y-13364214D02*
X17638500Y-13564214D01*
X17567071Y-13249929D02*
X17495643Y-13464214D01*
X17681357Y-13464214D01*
X18024214Y-13564214D02*
X18024214Y-13264214D01*
X18152786Y-13564214D02*
X18152786Y-13407071D01*
X18138500Y-13378500D01*
X18109928Y-13364214D01*
X18067071Y-13364214D01*
X18038500Y-13378500D01*
X18024214Y-13392786D01*
X18338500Y-13564214D02*
X18309928Y-13549929D01*
X18295643Y-13535643D01*
X18281357Y-13507071D01*
X18281357Y-13421357D01*
X18295643Y-13392786D01*
X18309928Y-13378500D01*
X18338500Y-13364214D01*
X18381357Y-13364214D01*
X18409928Y-13378500D01*
X18424214Y-13392786D01*
X18438500Y-13421357D01*
X18438500Y-13507071D01*
X18424214Y-13535643D01*
X18409928Y-13549929D01*
X18381357Y-13564214D01*
X18338500Y-13564214D01*
X18609928Y-13564214D02*
X18581357Y-13549929D01*
X18567071Y-13521357D01*
X18567071Y-13264214D01*
X18838500Y-13549929D02*
X18809929Y-13564214D01*
X18752786Y-13564214D01*
X18724214Y-13549929D01*
X18709929Y-13521357D01*
X18709929Y-13407071D01*
X18724214Y-13378500D01*
X18752786Y-13364214D01*
X18809929Y-13364214D01*
X18838500Y-13378500D01*
X18852786Y-13407071D01*
X18852786Y-13435643D01*
X18709929Y-13464214D01*
X18967071Y-13549929D02*
X18995643Y-13564214D01*
X19052786Y-13564214D01*
X19081357Y-13549929D01*
X19095643Y-13521357D01*
X19095643Y-13507071D01*
X19081357Y-13478500D01*
X19052786Y-13464214D01*
X19009929Y-13464214D01*
X18981357Y-13449929D01*
X18967071Y-13421357D01*
X18967071Y-13407071D01*
X18981357Y-13378500D01*
X19009929Y-13364214D01*
X19052786Y-13364214D01*
X19081357Y-13378500D01*
X19195643Y-13678500D02*
X19209929Y-13664214D01*
X19238500Y-13621357D01*
X19252786Y-13592786D01*
X19267071Y-13549929D01*
X19281357Y-13478500D01*
X19281357Y-13421357D01*
X19267071Y-13349929D01*
X19252786Y-13307071D01*
X19238500Y-13278500D01*
X19209929Y-13235643D01*
X19195643Y-13221357D01*
M02*
