G04 #@! TF.FileFunction,Copper,L1,Top,Signal*
%FSLAX46Y46*%
G04 Gerber Fmt 4.6, Leading zero omitted, Abs format (unit mm)*
G04 Created by KiCad (PCBNEW 4.0.7) date 09/10/19 22:44:32*
%MOMM*%
%LPD*%
G01*
G04 APERTURE LIST*
%ADD10C,0.100000*%
%ADD11C,0.300000*%
%ADD12R,3.000000X1.000000*%
%ADD13R,0.800000X0.750000*%
%ADD14R,1.250000X1.000000*%
%ADD15R,0.750000X0.800000*%
%ADD16R,2.500000X1.800000*%
%ADD17C,1.524000*%
%ADD18R,4.000000X2.000000*%
%ADD19R,0.500000X0.900000*%
%ADD20R,0.900000X0.500000*%
%ADD21R,2.200000X1.800000*%
%ADD22R,1.300000X0.300000*%
%ADD23R,1.060000X0.650000*%
%ADD24C,0.600000*%
%ADD25C,0.500000*%
%ADD26C,0.250000*%
%ADD27C,0.200000*%
%ADD28C,0.254000*%
G04 APERTURE END LIST*
D10*
D11*
X127814286Y-64303571D02*
X128671429Y-64303571D01*
X128242858Y-65803571D02*
X128242858Y-64303571D01*
X129171429Y-65803571D02*
X129171429Y-64303571D01*
X129814286Y-65803571D02*
X129814286Y-65017857D01*
X129742857Y-64875000D01*
X129600000Y-64803571D01*
X129385715Y-64803571D01*
X129242857Y-64875000D01*
X129171429Y-64946429D01*
X131100000Y-65732143D02*
X130957143Y-65803571D01*
X130671429Y-65803571D01*
X130528572Y-65732143D01*
X130457143Y-65589286D01*
X130457143Y-65017857D01*
X130528572Y-64875000D01*
X130671429Y-64803571D01*
X130957143Y-64803571D01*
X131100000Y-64875000D01*
X131171429Y-65017857D01*
X131171429Y-65160714D01*
X130457143Y-65303571D01*
X131814286Y-65803571D02*
X131814286Y-64803571D01*
X131814286Y-65089286D02*
X131885714Y-64946429D01*
X131957143Y-64875000D01*
X132100000Y-64803571D01*
X132242857Y-64803571D01*
X132742857Y-65803571D02*
X132742857Y-64803571D01*
X132742857Y-64946429D02*
X132814285Y-64875000D01*
X132957143Y-64803571D01*
X133171428Y-64803571D01*
X133314285Y-64875000D01*
X133385714Y-65017857D01*
X133385714Y-65803571D01*
X133385714Y-65017857D02*
X133457143Y-64875000D01*
X133600000Y-64803571D01*
X133814285Y-64803571D01*
X133957143Y-64875000D01*
X134028571Y-65017857D01*
X134028571Y-65803571D01*
X135385714Y-65803571D02*
X135385714Y-65017857D01*
X135314285Y-64875000D01*
X135171428Y-64803571D01*
X134885714Y-64803571D01*
X134742857Y-64875000D01*
X135385714Y-65732143D02*
X135242857Y-65803571D01*
X134885714Y-65803571D01*
X134742857Y-65732143D01*
X134671428Y-65589286D01*
X134671428Y-65446429D01*
X134742857Y-65303571D01*
X134885714Y-65232143D01*
X135242857Y-65232143D01*
X135385714Y-65160714D01*
X136314286Y-65803571D02*
X136171428Y-65732143D01*
X136100000Y-65589286D01*
X136100000Y-64303571D01*
X129100001Y-68210714D02*
X129028572Y-68282143D01*
X128814286Y-68353571D01*
X128671429Y-68353571D01*
X128457144Y-68282143D01*
X128314286Y-68139286D01*
X128242858Y-67996429D01*
X128171429Y-67710714D01*
X128171429Y-67496429D01*
X128242858Y-67210714D01*
X128314286Y-67067857D01*
X128457144Y-66925000D01*
X128671429Y-66853571D01*
X128814286Y-66853571D01*
X129028572Y-66925000D01*
X129100001Y-66996429D01*
X130385715Y-68353571D02*
X130385715Y-67567857D01*
X130314286Y-67425000D01*
X130171429Y-67353571D01*
X129885715Y-67353571D01*
X129742858Y-67425000D01*
X130385715Y-68282143D02*
X130242858Y-68353571D01*
X129885715Y-68353571D01*
X129742858Y-68282143D01*
X129671429Y-68139286D01*
X129671429Y-67996429D01*
X129742858Y-67853571D01*
X129885715Y-67782143D01*
X130242858Y-67782143D01*
X130385715Y-67710714D01*
X131100001Y-68353571D02*
X131100001Y-67353571D01*
X131100001Y-67496429D02*
X131171429Y-67425000D01*
X131314287Y-67353571D01*
X131528572Y-67353571D01*
X131671429Y-67425000D01*
X131742858Y-67567857D01*
X131742858Y-68353571D01*
X131742858Y-67567857D02*
X131814287Y-67425000D01*
X131957144Y-67353571D01*
X132171429Y-67353571D01*
X132314287Y-67425000D01*
X132385715Y-67567857D01*
X132385715Y-68353571D01*
X133671429Y-68282143D02*
X133528572Y-68353571D01*
X133242858Y-68353571D01*
X133100001Y-68282143D01*
X133028572Y-68139286D01*
X133028572Y-67567857D01*
X133100001Y-67425000D01*
X133242858Y-67353571D01*
X133528572Y-67353571D01*
X133671429Y-67425000D01*
X133742858Y-67567857D01*
X133742858Y-67710714D01*
X133028572Y-67853571D01*
X134385715Y-68353571D02*
X134385715Y-67353571D01*
X134385715Y-67639286D02*
X134457143Y-67496429D01*
X134528572Y-67425000D01*
X134671429Y-67353571D01*
X134814286Y-67353571D01*
X135957143Y-68353571D02*
X135957143Y-67567857D01*
X135885714Y-67425000D01*
X135742857Y-67353571D01*
X135457143Y-67353571D01*
X135314286Y-67425000D01*
X135957143Y-68282143D02*
X135814286Y-68353571D01*
X135457143Y-68353571D01*
X135314286Y-68282143D01*
X135242857Y-68139286D01*
X135242857Y-67996429D01*
X135314286Y-67853571D01*
X135457143Y-67782143D01*
X135814286Y-67782143D01*
X135957143Y-67710714D01*
D12*
X148590000Y-113270000D03*
X148590000Y-117870000D03*
D13*
X132600000Y-106680000D03*
X134100000Y-106680000D03*
X136410000Y-115570000D03*
X137910000Y-115570000D03*
D14*
X127900000Y-105200000D03*
X127900000Y-107200000D03*
D15*
X127900000Y-110950000D03*
X127900000Y-112450000D03*
D16*
X131350000Y-101600000D03*
X135350000Y-101600000D03*
D17*
X157480000Y-58420000D03*
X157480000Y-60960000D03*
X157480000Y-63500000D03*
X157480000Y-66040000D03*
X157480000Y-68580000D03*
X157480000Y-71120000D03*
X157480000Y-73660000D03*
X157480000Y-76200000D03*
X157480000Y-78740000D03*
X157480000Y-81280000D03*
X157480000Y-83820000D03*
X157480000Y-86360000D03*
X157480000Y-88900000D03*
X157480000Y-91440000D03*
X157480000Y-93980000D03*
X157480000Y-96520000D03*
X157480000Y-99060000D03*
X157480000Y-101600000D03*
X157480000Y-104140000D03*
X157480000Y-106680000D03*
X157480000Y-109220000D03*
X157480000Y-111760000D03*
X157480000Y-114300000D03*
X157480000Y-116840000D03*
D18*
X141780000Y-102330000D03*
X141780000Y-105830000D03*
D19*
X147840000Y-58420000D03*
X149340000Y-58420000D03*
X147840000Y-60960000D03*
X149340000Y-60960000D03*
X147840000Y-63500000D03*
X149340000Y-63500000D03*
X147840000Y-66040000D03*
X149340000Y-66040000D03*
X147840000Y-68580000D03*
X149340000Y-68580000D03*
X147840000Y-71120000D03*
X149340000Y-71120000D03*
X147840000Y-76200000D03*
X149340000Y-76200000D03*
X147840000Y-78740000D03*
X149340000Y-78740000D03*
X147840000Y-81280000D03*
X149340000Y-81280000D03*
X147840000Y-83820000D03*
X149340000Y-83820000D03*
X147840000Y-86360000D03*
X149340000Y-86360000D03*
X147840000Y-88900000D03*
X149340000Y-88900000D03*
X147840000Y-91440000D03*
X149340000Y-91440000D03*
X147840000Y-93980000D03*
X149340000Y-93980000D03*
X147840000Y-96520000D03*
X149340000Y-96520000D03*
X147840000Y-99060000D03*
X149340000Y-99060000D03*
X147840000Y-101600000D03*
X149340000Y-101600000D03*
X147840000Y-104140000D03*
X149340000Y-104140000D03*
X147840000Y-106680000D03*
X149340000Y-106680000D03*
X147840000Y-109220000D03*
X149340000Y-109220000D03*
X130050000Y-114900000D03*
X131550000Y-114900000D03*
D20*
X131000000Y-109050000D03*
X131000000Y-110550000D03*
D21*
X133220000Y-93200000D03*
X133220000Y-71900000D03*
D22*
X136470000Y-73800000D03*
X136470000Y-74300000D03*
X136470000Y-74800000D03*
X136470000Y-75300000D03*
X136470000Y-75800000D03*
X136470000Y-76300000D03*
X136470000Y-76800000D03*
X136470000Y-77300000D03*
X136470000Y-77800000D03*
X136470000Y-78300000D03*
X136470000Y-78800000D03*
X136470000Y-79300000D03*
X136470000Y-79800000D03*
X136470000Y-80300000D03*
X136470000Y-80800000D03*
X136470000Y-81300000D03*
X136470000Y-81800000D03*
X136470000Y-82300000D03*
X136470000Y-82800000D03*
X136470000Y-83300000D03*
X136470000Y-83800000D03*
X136470000Y-84300000D03*
X136470000Y-84800000D03*
X136470000Y-85300000D03*
X136470000Y-85800000D03*
X136470000Y-86300000D03*
X136470000Y-86800000D03*
X136470000Y-87300000D03*
X136470000Y-87800000D03*
X136470000Y-88300000D03*
X136470000Y-88800000D03*
X136470000Y-89300000D03*
X136470000Y-89800000D03*
X136470000Y-90300000D03*
X136470000Y-90800000D03*
X136470000Y-91300000D03*
D23*
X136060000Y-109540000D03*
X136060000Y-110490000D03*
X136060000Y-111440000D03*
X138260000Y-111440000D03*
X138260000Y-109540000D03*
X138260000Y-110490000D03*
D19*
X147840000Y-73660000D03*
X149340000Y-73660000D03*
D24*
X129700000Y-92200000D03*
X129500000Y-104000000D03*
X130500000Y-112500000D03*
X133700000Y-114100000D03*
X137900000Y-107600000D03*
X137700000Y-101600000D03*
X142200000Y-111500000D03*
D25*
X144700000Y-113270000D02*
X144700000Y-110800000D01*
X143000000Y-109100000D02*
X141780000Y-109100000D01*
X144700000Y-110800000D02*
X143000000Y-109100000D01*
X141780000Y-105830000D02*
X141780000Y-109100000D01*
X141780000Y-109100000D02*
X141780000Y-109280000D01*
X141780000Y-109280000D02*
X140570000Y-110490000D01*
X140570000Y-110490000D02*
X138260000Y-110490000D01*
X134100000Y-106680000D02*
X136920000Y-106680000D01*
X137770000Y-105830000D02*
X141780000Y-105830000D01*
X136920000Y-106680000D02*
X137770000Y-105830000D01*
X137910000Y-115570000D02*
X140970000Y-115570000D01*
X143270000Y-113270000D02*
X144700000Y-113270000D01*
X144700000Y-113270000D02*
X148590000Y-113270000D01*
X140970000Y-115570000D02*
X143270000Y-113270000D01*
X157480000Y-114300000D02*
X154940000Y-114300000D01*
X153910000Y-113270000D02*
X148590000Y-113270000D01*
X154940000Y-114300000D02*
X153910000Y-113270000D01*
D26*
X129500000Y-107200000D02*
X129500000Y-104000000D01*
X130750000Y-91150000D02*
X130750000Y-90150000D01*
X129700000Y-92200000D02*
X130750000Y-91150000D01*
X134900000Y-77100000D02*
X130700000Y-77100000D01*
X130700000Y-77100000D02*
X130800000Y-77100000D01*
X130800000Y-77100000D02*
X130700000Y-77100000D01*
X136470000Y-77300000D02*
X134900000Y-77300000D01*
X134900000Y-76800000D02*
X136470000Y-76800000D01*
X134900000Y-77300000D02*
X134900000Y-77100000D01*
X134900000Y-77100000D02*
X134900000Y-76800000D01*
X136470000Y-75300000D02*
X135000000Y-75300000D01*
X134900000Y-75200000D02*
X134900000Y-74800000D01*
X135000000Y-75300000D02*
X134900000Y-75200000D01*
X136470000Y-84800000D02*
X130700000Y-84800000D01*
X136470000Y-79300000D02*
X134900000Y-79300000D01*
X134900000Y-79300000D02*
X134900000Y-78800000D01*
X134900000Y-78800000D02*
X134900000Y-78900000D01*
X134900000Y-78900000D02*
X134900000Y-78800000D01*
X136470000Y-78800000D02*
X134900000Y-78800000D01*
X134900000Y-78800000D02*
X130700000Y-78800000D01*
X136470000Y-89300000D02*
X130700000Y-89300000D01*
X136470000Y-74800000D02*
X134900000Y-74800000D01*
X134900000Y-74800000D02*
X131800000Y-74800000D01*
X131800000Y-74800000D02*
X130700000Y-75900000D01*
X130700000Y-75900000D02*
X130700000Y-77100000D01*
X130900000Y-90300000D02*
X136470000Y-90300000D01*
X130750000Y-90150000D02*
X130900000Y-90300000D01*
X130700000Y-90100000D02*
X130750000Y-90150000D01*
X130700000Y-89300000D02*
X130700000Y-90100000D01*
X130700000Y-77100000D02*
X130700000Y-78800000D01*
X130700000Y-78800000D02*
X130700000Y-84800000D01*
X130700000Y-84800000D02*
X130700000Y-89300000D01*
X136410000Y-115570000D02*
X136410000Y-115810000D01*
X136410000Y-115810000D02*
X138470000Y-117870000D01*
X138470000Y-117870000D02*
X148590000Y-117870000D01*
X136410000Y-115570000D02*
X135170000Y-115570000D01*
X129600000Y-111600000D02*
X129600000Y-109050000D01*
X130500000Y-112500000D02*
X129600000Y-111600000D01*
X135170000Y-115570000D02*
X133700000Y-114100000D01*
X131000000Y-109050000D02*
X129600000Y-109050000D01*
X129600000Y-109050000D02*
X129050000Y-109050000D01*
X127900000Y-110200000D02*
X127900000Y-110950000D01*
X129050000Y-109050000D02*
X127900000Y-110200000D01*
X136060000Y-110490000D02*
X133990000Y-110490000D01*
X132550000Y-109050000D02*
X131000000Y-109050000D01*
X133990000Y-110490000D02*
X132550000Y-109050000D01*
X131000000Y-109050000D02*
X131000000Y-107600000D01*
X131000000Y-107600000D02*
X130600000Y-107200000D01*
X127900000Y-107200000D02*
X129500000Y-107200000D01*
X129500000Y-107200000D02*
X130600000Y-107200000D01*
X131120000Y-106680000D02*
X132600000Y-106680000D01*
X130600000Y-107200000D02*
X131120000Y-106680000D01*
X148590000Y-117870000D02*
X156450000Y-117870000D01*
X156450000Y-117870000D02*
X157480000Y-116840000D01*
D25*
X127000000Y-101800000D02*
X125700000Y-103100000D01*
X126600000Y-114000000D02*
X127900000Y-114000000D01*
X125700000Y-113100000D02*
X126600000Y-114000000D01*
X125700000Y-103100000D02*
X125700000Y-113100000D01*
X131350000Y-101600000D02*
X130200000Y-101600000D01*
X130200000Y-101600000D02*
X128900000Y-100300000D01*
X128900000Y-100300000D02*
X127000000Y-100300000D01*
X127000000Y-97790000D02*
X127000000Y-100300000D01*
X127000000Y-100300000D02*
X127000000Y-101800000D01*
X127000000Y-101800000D02*
X127000000Y-102000000D01*
X127900000Y-102900000D02*
X127900000Y-105200000D01*
X127000000Y-102000000D02*
X127900000Y-102900000D01*
X130050000Y-114900000D02*
X128800000Y-114900000D01*
X128800000Y-114900000D02*
X127900000Y-114000000D01*
X127900000Y-114000000D02*
X127900000Y-112450000D01*
D27*
X136470000Y-74300000D02*
X136470000Y-73800000D01*
D25*
X131350000Y-101600000D02*
X130810000Y-101600000D01*
X127000000Y-97790000D02*
X127000000Y-77470000D01*
X127000000Y-77470000D02*
X130810000Y-73660000D01*
X130810000Y-73660000D02*
X135890000Y-73660000D01*
X135890000Y-73660000D02*
X136470000Y-73800000D01*
D26*
X136060000Y-109540000D02*
X136060000Y-109440000D01*
X136060000Y-109440000D02*
X137900000Y-107600000D01*
X137700000Y-101600000D02*
X137800000Y-101500000D01*
X137800000Y-101500000D02*
X137800000Y-101600000D01*
X141780000Y-102330000D02*
X138930000Y-102330000D01*
X138200000Y-101600000D02*
X137800000Y-101600000D01*
X137800000Y-101600000D02*
X135350000Y-101600000D01*
X138930000Y-102330000D02*
X138200000Y-101600000D01*
X157480000Y-58420000D02*
X149340000Y-58420000D01*
X157480000Y-60960000D02*
X149340000Y-60960000D01*
X157480000Y-63500000D02*
X149340000Y-63500000D01*
X157480000Y-66040000D02*
X149340000Y-66040000D01*
X149340000Y-68580000D02*
X157480000Y-68580000D01*
X149340000Y-71120000D02*
X157480000Y-71120000D01*
X157480000Y-73660000D02*
X149340000Y-73660000D01*
X157480000Y-76200000D02*
X149340000Y-76200000D01*
X149340000Y-78740000D02*
X157480000Y-78740000D01*
X157480000Y-81280000D02*
X149340000Y-81280000D01*
X149340000Y-83820000D02*
X157480000Y-83820000D01*
X149340000Y-86360000D02*
X157480000Y-86360000D01*
X149340000Y-88900000D02*
X157480000Y-88900000D01*
X149340000Y-91440000D02*
X157480000Y-91440000D01*
X149340000Y-93980000D02*
X157480000Y-93980000D01*
X149340000Y-96520000D02*
X157480000Y-96520000D01*
X149340000Y-99060000D02*
X157480000Y-99060000D01*
X149340000Y-101600000D02*
X157480000Y-101600000D01*
X157480000Y-104140000D02*
X149340000Y-104140000D01*
X149340000Y-106680000D02*
X157480000Y-106680000D01*
X149340000Y-109220000D02*
X157480000Y-109220000D01*
X140600000Y-111440000D02*
X142140000Y-111440000D01*
X142140000Y-111440000D02*
X142200000Y-111500000D01*
X138260000Y-111440000D02*
X140600000Y-111440000D01*
X140600000Y-111440000D02*
X140650000Y-111440000D01*
X147840000Y-58420000D02*
X141380000Y-58420000D01*
X138000000Y-79800000D02*
X136470000Y-79800000D01*
X138200000Y-79600000D02*
X138000000Y-79800000D01*
X138200000Y-61600000D02*
X138200000Y-79600000D01*
X141380000Y-58420000D02*
X138200000Y-61600000D01*
X136470000Y-80300000D02*
X138100000Y-80300000D01*
X139840000Y-60960000D02*
X147840000Y-60960000D01*
X138700000Y-62100000D02*
X139840000Y-60960000D01*
X138700000Y-79700000D02*
X138700000Y-62100000D01*
X138100000Y-80300000D02*
X138700000Y-79700000D01*
X147840000Y-63500000D02*
X140100000Y-63500000D01*
X138400000Y-80800000D02*
X136470000Y-80800000D01*
X139200000Y-80000000D02*
X138400000Y-80800000D01*
X139200000Y-64400000D02*
X139200000Y-80000000D01*
X140100000Y-63500000D02*
X139200000Y-64400000D01*
X136470000Y-81300000D02*
X138700000Y-81300000D01*
X140960000Y-66040000D02*
X147840000Y-66040000D01*
X139800000Y-67200000D02*
X140960000Y-66040000D01*
X139800000Y-80200000D02*
X139800000Y-67200000D01*
X138700000Y-81300000D02*
X139800000Y-80200000D01*
X136470000Y-81800000D02*
X138900000Y-81800000D01*
X141220000Y-68580000D02*
X147840000Y-68580000D01*
X140400000Y-69400000D02*
X141220000Y-68580000D01*
X140400000Y-80300000D02*
X140400000Y-69400000D01*
X138900000Y-81800000D02*
X140400000Y-80300000D01*
X136470000Y-82300000D02*
X139100000Y-82300000D01*
X142380000Y-71120000D02*
X147840000Y-71120000D01*
X141000000Y-72500000D02*
X142380000Y-71120000D01*
X141000000Y-80400000D02*
X141000000Y-72500000D01*
X139100000Y-82300000D02*
X141000000Y-80400000D01*
X136470000Y-83300000D02*
X139700000Y-83300000D01*
X143700000Y-76200000D02*
X147840000Y-76200000D01*
X142400000Y-77500000D02*
X143700000Y-76200000D01*
X142400000Y-80600000D02*
X142400000Y-77500000D01*
X139700000Y-83300000D02*
X142400000Y-80600000D01*
X136470000Y-83800000D02*
X140000000Y-83800000D01*
X144160000Y-78740000D02*
X147840000Y-78740000D01*
X143100000Y-79800000D02*
X144160000Y-78740000D01*
X143100000Y-80700000D02*
X143100000Y-79800000D01*
X140000000Y-83800000D02*
X143100000Y-80700000D01*
X136470000Y-84300000D02*
X140200000Y-84300000D01*
X143200000Y-81300000D02*
X147820000Y-81300000D01*
X140200000Y-84300000D02*
X143200000Y-81300000D01*
X147820000Y-81300000D02*
X147840000Y-81280000D01*
X136470000Y-85300000D02*
X140600000Y-85300000D01*
X142200000Y-83700000D02*
X147720000Y-83700000D01*
X140600000Y-85300000D02*
X142200000Y-83700000D01*
X147720000Y-83700000D02*
X147840000Y-83820000D01*
X136470000Y-85800000D02*
X141300000Y-85800000D01*
X141900000Y-86400000D02*
X147800000Y-86400000D01*
X141300000Y-85800000D02*
X141900000Y-86400000D01*
X147800000Y-86400000D02*
X147840000Y-86360000D01*
X136470000Y-86300000D02*
X140900000Y-86300000D01*
X143500000Y-88900000D02*
X147840000Y-88900000D01*
X140900000Y-86300000D02*
X143500000Y-88900000D01*
X136470000Y-86800000D02*
X140600000Y-86800000D01*
X145200000Y-91400000D02*
X147800000Y-91400000D01*
X140600000Y-86800000D02*
X145200000Y-91400000D01*
X147800000Y-91400000D02*
X147840000Y-91440000D01*
X147840000Y-93980000D02*
X146880000Y-93980000D01*
X140200000Y-87300000D02*
X136470000Y-87300000D01*
X146880000Y-93980000D02*
X140200000Y-87300000D01*
X147840000Y-96520000D02*
X147220000Y-96520000D01*
X139900000Y-87800000D02*
X136470000Y-87800000D01*
X145800000Y-93700000D02*
X139900000Y-87800000D01*
X145800000Y-95100000D02*
X145800000Y-93700000D01*
X147220000Y-96520000D02*
X145800000Y-95100000D01*
X136470000Y-88300000D02*
X139600000Y-88300000D01*
X146860000Y-99060000D02*
X147840000Y-99060000D01*
X145300000Y-97500000D02*
X146860000Y-99060000D01*
X145300000Y-94000000D02*
X145300000Y-97500000D01*
X139600000Y-88300000D02*
X145300000Y-94000000D01*
X147840000Y-101600000D02*
X147840000Y-101140000D01*
X139300000Y-88800000D02*
X136470000Y-88800000D01*
X144700000Y-94200000D02*
X139300000Y-88800000D01*
X144700000Y-98000000D02*
X144700000Y-94200000D01*
X147840000Y-101140000D02*
X144700000Y-98000000D01*
X136470000Y-89800000D02*
X139300000Y-89800000D01*
X147840000Y-103040000D02*
X147840000Y-104140000D01*
X147000000Y-102200000D02*
X147840000Y-103040000D01*
X147000000Y-101100000D02*
X147000000Y-102200000D01*
X144200000Y-98300000D02*
X147000000Y-101100000D01*
X144200000Y-94700000D02*
X144200000Y-98300000D01*
X139300000Y-89800000D02*
X144200000Y-94700000D01*
X147840000Y-106680000D02*
X147840000Y-105540000D01*
X139400000Y-90800000D02*
X136470000Y-90800000D01*
X143600000Y-95000000D02*
X139400000Y-90800000D01*
X143600000Y-98600000D02*
X143600000Y-95000000D01*
X146200000Y-101200000D02*
X143600000Y-98600000D01*
X146200000Y-103900000D02*
X146200000Y-101200000D01*
X147840000Y-105540000D02*
X146200000Y-103900000D01*
X136470000Y-91300000D02*
X139000000Y-91300000D01*
X146520000Y-109220000D02*
X147840000Y-109220000D01*
X145500000Y-108200000D02*
X146520000Y-109220000D01*
X145500000Y-101400000D02*
X145500000Y-108200000D01*
X143100000Y-99000000D02*
X145500000Y-101400000D01*
X143100000Y-95400000D02*
X143100000Y-99000000D01*
X139000000Y-91300000D02*
X143100000Y-95400000D01*
X131550000Y-114900000D02*
X131550000Y-114450000D01*
X131550000Y-114450000D02*
X133200000Y-112800000D01*
X133200000Y-112800000D02*
X133200000Y-111440000D01*
X131000000Y-110550000D02*
X131750000Y-110550000D01*
X132640000Y-111440000D02*
X133200000Y-111440000D01*
X133200000Y-111440000D02*
X136060000Y-111440000D01*
X131750000Y-110550000D02*
X132640000Y-111440000D01*
X136470000Y-82800000D02*
X139400000Y-82800000D01*
X142940000Y-73660000D02*
X147840000Y-73660000D01*
X141600000Y-75000000D02*
X142940000Y-73660000D01*
X141600000Y-80600000D02*
X141600000Y-75000000D01*
X139400000Y-82800000D02*
X141600000Y-80600000D01*
D28*
G36*
X160580000Y-119940000D02*
X125170000Y-119940000D01*
X125170000Y-118155750D01*
X146455000Y-118155750D01*
X146455000Y-118496309D01*
X146551673Y-118729698D01*
X146730301Y-118908327D01*
X146963690Y-119005000D01*
X148304250Y-119005000D01*
X148463000Y-118846250D01*
X148463000Y-117997000D01*
X148717000Y-117997000D01*
X148717000Y-118846250D01*
X148875750Y-119005000D01*
X150216310Y-119005000D01*
X150449699Y-118908327D01*
X150628327Y-118729698D01*
X150725000Y-118496309D01*
X150725000Y-118155750D01*
X150566250Y-117997000D01*
X148717000Y-117997000D01*
X148463000Y-117997000D01*
X146613750Y-117997000D01*
X146455000Y-118155750D01*
X125170000Y-118155750D01*
X125170000Y-117820213D01*
X156679392Y-117820213D01*
X156748857Y-118062397D01*
X157272302Y-118249144D01*
X157827368Y-118221362D01*
X158211143Y-118062397D01*
X158280608Y-117820213D01*
X157480000Y-117019605D01*
X156679392Y-117820213D01*
X125170000Y-117820213D01*
X125170000Y-113821580D01*
X125974208Y-114625787D01*
X125974210Y-114625790D01*
X126150465Y-114743559D01*
X126261325Y-114817633D01*
X126600000Y-114885001D01*
X126600005Y-114885000D01*
X127533420Y-114885000D01*
X128174208Y-115525787D01*
X128174210Y-115525790D01*
X128430808Y-115697242D01*
X128461325Y-115717633D01*
X128800000Y-115785001D01*
X128800005Y-115785000D01*
X129325331Y-115785000D01*
X129335910Y-115801441D01*
X129548110Y-115946431D01*
X129800000Y-115997440D01*
X130300000Y-115997440D01*
X130535317Y-115953162D01*
X130751441Y-115814090D01*
X130799134Y-115744289D01*
X130835910Y-115801441D01*
X131048110Y-115946431D01*
X131300000Y-115997440D01*
X131800000Y-115997440D01*
X132035317Y-115953162D01*
X132186699Y-115855750D01*
X135375000Y-115855750D01*
X135375000Y-116071310D01*
X135471673Y-116304699D01*
X135650302Y-116483327D01*
X135883691Y-116580000D01*
X136124250Y-116580000D01*
X136283000Y-116421250D01*
X136283000Y-115697000D01*
X135533750Y-115697000D01*
X135375000Y-115855750D01*
X132186699Y-115855750D01*
X132251441Y-115814090D01*
X132396431Y-115601890D01*
X132447440Y-115350000D01*
X132447440Y-115068690D01*
X135375000Y-115068690D01*
X135375000Y-115284250D01*
X135533750Y-115443000D01*
X136283000Y-115443000D01*
X136283000Y-114718750D01*
X136124250Y-114560000D01*
X135883691Y-114560000D01*
X135650302Y-114656673D01*
X135471673Y-114835301D01*
X135375000Y-115068690D01*
X132447440Y-115068690D01*
X132447440Y-114627362D01*
X133737401Y-113337401D01*
X133902148Y-113090840D01*
X133960000Y-112800000D01*
X133960000Y-112200000D01*
X135055331Y-112200000D01*
X135065910Y-112216441D01*
X135278110Y-112361431D01*
X135530000Y-112412440D01*
X136590000Y-112412440D01*
X136825317Y-112368162D01*
X137041441Y-112229090D01*
X137161233Y-112053768D01*
X137265910Y-112216441D01*
X137478110Y-112361431D01*
X137730000Y-112412440D01*
X138790000Y-112412440D01*
X139025317Y-112368162D01*
X139241441Y-112229090D01*
X139261317Y-112200000D01*
X141577642Y-112200000D01*
X141669673Y-112292192D01*
X142013201Y-112434838D01*
X142385167Y-112435162D01*
X142728943Y-112293117D01*
X142992192Y-112030327D01*
X143134838Y-111686799D01*
X143135162Y-111314833D01*
X142993117Y-110971057D01*
X142730327Y-110707808D01*
X142386799Y-110565162D01*
X142014833Y-110564838D01*
X141736119Y-110680000D01*
X141631580Y-110680000D01*
X142326579Y-109985000D01*
X142633420Y-109985000D01*
X143815000Y-111166579D01*
X143815000Y-112385000D01*
X143270005Y-112385000D01*
X143270000Y-112384999D01*
X142931325Y-112452367D01*
X142644210Y-112644210D01*
X142644208Y-112644213D01*
X140603420Y-114685000D01*
X138688386Y-114685000D01*
X138561890Y-114598569D01*
X138310000Y-114547560D01*
X137510000Y-114547560D01*
X137274683Y-114591838D01*
X137171354Y-114658329D01*
X137169698Y-114656673D01*
X136936309Y-114560000D01*
X136695750Y-114560000D01*
X136537000Y-114718750D01*
X136537000Y-115443000D01*
X136557000Y-115443000D01*
X136557000Y-115697000D01*
X136537000Y-115697000D01*
X136537000Y-116421250D01*
X136695750Y-116580000D01*
X136936309Y-116580000D01*
X137169698Y-116483327D01*
X137171068Y-116481957D01*
X137258110Y-116541431D01*
X137510000Y-116592440D01*
X138310000Y-116592440D01*
X138545317Y-116548162D01*
X138690095Y-116455000D01*
X140969995Y-116455000D01*
X140970000Y-116455001D01*
X141264394Y-116396441D01*
X141308675Y-116387633D01*
X141595790Y-116195790D01*
X143636579Y-114155000D01*
X146583156Y-114155000D01*
X146625910Y-114221441D01*
X146773000Y-114321943D01*
X146773000Y-116813986D01*
X146730301Y-116831673D01*
X146551673Y-117010302D01*
X146455000Y-117243691D01*
X146455000Y-117584250D01*
X146613750Y-117743000D01*
X148463000Y-117743000D01*
X148463000Y-117723000D01*
X148717000Y-117723000D01*
X148717000Y-117743000D01*
X150566250Y-117743000D01*
X150725000Y-117584250D01*
X150725000Y-117243691D01*
X150628327Y-117010302D01*
X150449699Y-116831673D01*
X150327000Y-116780849D01*
X150327000Y-116632302D01*
X156070856Y-116632302D01*
X156098638Y-117187368D01*
X156257603Y-117571143D01*
X156499787Y-117640608D01*
X157300395Y-116840000D01*
X157659605Y-116840000D01*
X158460213Y-117640608D01*
X158702397Y-117571143D01*
X158889144Y-117047698D01*
X158861362Y-116492632D01*
X158702397Y-116108857D01*
X158460213Y-116039392D01*
X157659605Y-116840000D01*
X157300395Y-116840000D01*
X156499787Y-116039392D01*
X156257603Y-116108857D01*
X156070856Y-116632302D01*
X150327000Y-116632302D01*
X150327000Y-114372079D01*
X150541441Y-114234090D01*
X150595481Y-114155000D01*
X153543420Y-114155000D01*
X154314208Y-114925787D01*
X154314210Y-114925790D01*
X154601325Y-115117633D01*
X154657516Y-115128810D01*
X154940000Y-115185001D01*
X154940005Y-115185000D01*
X156389522Y-115185000D01*
X156687630Y-115483629D01*
X156879727Y-115563395D01*
X156748857Y-115617603D01*
X156679392Y-115859787D01*
X157480000Y-116660395D01*
X158280608Y-115859787D01*
X158211143Y-115617603D01*
X158070682Y-115567491D01*
X158270303Y-115485010D01*
X158663629Y-115092370D01*
X158876757Y-114579100D01*
X158877242Y-114023339D01*
X158665010Y-113509697D01*
X158272370Y-113116371D01*
X158064488Y-113030051D01*
X158270303Y-112945010D01*
X158663629Y-112552370D01*
X158876757Y-112039100D01*
X158877242Y-111483339D01*
X158665010Y-110969697D01*
X158272370Y-110576371D01*
X158064488Y-110490051D01*
X158270303Y-110405010D01*
X158663629Y-110012370D01*
X158876757Y-109499100D01*
X158877242Y-108943339D01*
X158665010Y-108429697D01*
X158272370Y-108036371D01*
X158064488Y-107950051D01*
X158270303Y-107865010D01*
X158663629Y-107472370D01*
X158876757Y-106959100D01*
X158877242Y-106403339D01*
X158665010Y-105889697D01*
X158272370Y-105496371D01*
X158064488Y-105410051D01*
X158270303Y-105325010D01*
X158663629Y-104932370D01*
X158876757Y-104419100D01*
X158877242Y-103863339D01*
X158665010Y-103349697D01*
X158272370Y-102956371D01*
X158064488Y-102870051D01*
X158270303Y-102785010D01*
X158663629Y-102392370D01*
X158876757Y-101879100D01*
X158877242Y-101323339D01*
X158665010Y-100809697D01*
X158272370Y-100416371D01*
X158064488Y-100330051D01*
X158270303Y-100245010D01*
X158663629Y-99852370D01*
X158876757Y-99339100D01*
X158877242Y-98783339D01*
X158665010Y-98269697D01*
X158272370Y-97876371D01*
X158064488Y-97790051D01*
X158270303Y-97705010D01*
X158663629Y-97312370D01*
X158876757Y-96799100D01*
X158877242Y-96243339D01*
X158665010Y-95729697D01*
X158272370Y-95336371D01*
X158064488Y-95250051D01*
X158270303Y-95165010D01*
X158663629Y-94772370D01*
X158876757Y-94259100D01*
X158877242Y-93703339D01*
X158665010Y-93189697D01*
X158272370Y-92796371D01*
X158064488Y-92710051D01*
X158270303Y-92625010D01*
X158663629Y-92232370D01*
X158876757Y-91719100D01*
X158877242Y-91163339D01*
X158665010Y-90649697D01*
X158272370Y-90256371D01*
X158064488Y-90170051D01*
X158270303Y-90085010D01*
X158663629Y-89692370D01*
X158876757Y-89179100D01*
X158877242Y-88623339D01*
X158665010Y-88109697D01*
X158272370Y-87716371D01*
X158064488Y-87630051D01*
X158270303Y-87545010D01*
X158663629Y-87152370D01*
X158876757Y-86639100D01*
X158877242Y-86083339D01*
X158665010Y-85569697D01*
X158272370Y-85176371D01*
X158064488Y-85090051D01*
X158270303Y-85005010D01*
X158663629Y-84612370D01*
X158876757Y-84099100D01*
X158877242Y-83543339D01*
X158665010Y-83029697D01*
X158272370Y-82636371D01*
X158064488Y-82550051D01*
X158270303Y-82465010D01*
X158663629Y-82072370D01*
X158876757Y-81559100D01*
X158877242Y-81003339D01*
X158665010Y-80489697D01*
X158272370Y-80096371D01*
X158064488Y-80010051D01*
X158270303Y-79925010D01*
X158663629Y-79532370D01*
X158876757Y-79019100D01*
X158877242Y-78463339D01*
X158665010Y-77949697D01*
X158272370Y-77556371D01*
X158064488Y-77470051D01*
X158270303Y-77385010D01*
X158663629Y-76992370D01*
X158876757Y-76479100D01*
X158877242Y-75923339D01*
X158665010Y-75409697D01*
X158272370Y-75016371D01*
X158064488Y-74930051D01*
X158270303Y-74845010D01*
X158663629Y-74452370D01*
X158876757Y-73939100D01*
X158877242Y-73383339D01*
X158665010Y-72869697D01*
X158272370Y-72476371D01*
X158064488Y-72390051D01*
X158270303Y-72305010D01*
X158663629Y-71912370D01*
X158876757Y-71399100D01*
X158877242Y-70843339D01*
X158665010Y-70329697D01*
X158272370Y-69936371D01*
X158064488Y-69850051D01*
X158270303Y-69765010D01*
X158663629Y-69372370D01*
X158876757Y-68859100D01*
X158877242Y-68303339D01*
X158665010Y-67789697D01*
X158272370Y-67396371D01*
X158064488Y-67310051D01*
X158270303Y-67225010D01*
X158663629Y-66832370D01*
X158876757Y-66319100D01*
X158877242Y-65763339D01*
X158665010Y-65249697D01*
X158272370Y-64856371D01*
X158064488Y-64770051D01*
X158270303Y-64685010D01*
X158663629Y-64292370D01*
X158876757Y-63779100D01*
X158877242Y-63223339D01*
X158665010Y-62709697D01*
X158272370Y-62316371D01*
X158064488Y-62230051D01*
X158270303Y-62145010D01*
X158663629Y-61752370D01*
X158876757Y-61239100D01*
X158877242Y-60683339D01*
X158665010Y-60169697D01*
X158272370Y-59776371D01*
X158064488Y-59690051D01*
X158270303Y-59605010D01*
X158663629Y-59212370D01*
X158876757Y-58699100D01*
X158877242Y-58143339D01*
X158665010Y-57629697D01*
X158272370Y-57236371D01*
X157759100Y-57023243D01*
X157203339Y-57022758D01*
X156689697Y-57234990D01*
X156296371Y-57627630D01*
X156282930Y-57660000D01*
X150145105Y-57660000D01*
X150054090Y-57518559D01*
X149841890Y-57373569D01*
X149590000Y-57322560D01*
X149090000Y-57322560D01*
X148854683Y-57366838D01*
X148638559Y-57505910D01*
X148590866Y-57575711D01*
X148554090Y-57518559D01*
X148341890Y-57373569D01*
X148090000Y-57322560D01*
X147590000Y-57322560D01*
X147354683Y-57366838D01*
X147138559Y-57505910D01*
X147033274Y-57660000D01*
X141380000Y-57660000D01*
X141089161Y-57717852D01*
X140842599Y-57882599D01*
X137662599Y-61062599D01*
X137497852Y-61309161D01*
X137440000Y-61600000D01*
X137440000Y-73100107D01*
X137371890Y-73053569D01*
X137120000Y-73002560D01*
X136813555Y-73002560D01*
X136677657Y-72939707D01*
X136097657Y-72799707D01*
X135992863Y-72795461D01*
X135890000Y-72775000D01*
X134967440Y-72775000D01*
X134967440Y-71000000D01*
X134923162Y-70764683D01*
X134784090Y-70548559D01*
X134571890Y-70403569D01*
X134320000Y-70352560D01*
X132120000Y-70352560D01*
X131884683Y-70396838D01*
X131668559Y-70535910D01*
X131523569Y-70748110D01*
X131472560Y-71000000D01*
X131472560Y-72775000D01*
X130810005Y-72775000D01*
X130810000Y-72774999D01*
X130527516Y-72831190D01*
X130471325Y-72842367D01*
X130184210Y-73034210D01*
X130184208Y-73034213D01*
X126374210Y-76844210D01*
X126182367Y-77131325D01*
X126182367Y-77131326D01*
X126114999Y-77470000D01*
X126115000Y-77470005D01*
X126115000Y-101433421D01*
X125170000Y-102378420D01*
X125170000Y-63290000D01*
X127036429Y-63290000D01*
X127036429Y-69660000D01*
X137163571Y-69660000D01*
X137163571Y-63290000D01*
X127036429Y-63290000D01*
X125170000Y-63290000D01*
X125170000Y-55320000D01*
X160580000Y-55320000D01*
X160580000Y-119940000D01*
X160580000Y-119940000D01*
G37*
X160580000Y-119940000D02*
X125170000Y-119940000D01*
X125170000Y-118155750D01*
X146455000Y-118155750D01*
X146455000Y-118496309D01*
X146551673Y-118729698D01*
X146730301Y-118908327D01*
X146963690Y-119005000D01*
X148304250Y-119005000D01*
X148463000Y-118846250D01*
X148463000Y-117997000D01*
X148717000Y-117997000D01*
X148717000Y-118846250D01*
X148875750Y-119005000D01*
X150216310Y-119005000D01*
X150449699Y-118908327D01*
X150628327Y-118729698D01*
X150725000Y-118496309D01*
X150725000Y-118155750D01*
X150566250Y-117997000D01*
X148717000Y-117997000D01*
X148463000Y-117997000D01*
X146613750Y-117997000D01*
X146455000Y-118155750D01*
X125170000Y-118155750D01*
X125170000Y-117820213D01*
X156679392Y-117820213D01*
X156748857Y-118062397D01*
X157272302Y-118249144D01*
X157827368Y-118221362D01*
X158211143Y-118062397D01*
X158280608Y-117820213D01*
X157480000Y-117019605D01*
X156679392Y-117820213D01*
X125170000Y-117820213D01*
X125170000Y-113821580D01*
X125974208Y-114625787D01*
X125974210Y-114625790D01*
X126150465Y-114743559D01*
X126261325Y-114817633D01*
X126600000Y-114885001D01*
X126600005Y-114885000D01*
X127533420Y-114885000D01*
X128174208Y-115525787D01*
X128174210Y-115525790D01*
X128430808Y-115697242D01*
X128461325Y-115717633D01*
X128800000Y-115785001D01*
X128800005Y-115785000D01*
X129325331Y-115785000D01*
X129335910Y-115801441D01*
X129548110Y-115946431D01*
X129800000Y-115997440D01*
X130300000Y-115997440D01*
X130535317Y-115953162D01*
X130751441Y-115814090D01*
X130799134Y-115744289D01*
X130835910Y-115801441D01*
X131048110Y-115946431D01*
X131300000Y-115997440D01*
X131800000Y-115997440D01*
X132035317Y-115953162D01*
X132186699Y-115855750D01*
X135375000Y-115855750D01*
X135375000Y-116071310D01*
X135471673Y-116304699D01*
X135650302Y-116483327D01*
X135883691Y-116580000D01*
X136124250Y-116580000D01*
X136283000Y-116421250D01*
X136283000Y-115697000D01*
X135533750Y-115697000D01*
X135375000Y-115855750D01*
X132186699Y-115855750D01*
X132251441Y-115814090D01*
X132396431Y-115601890D01*
X132447440Y-115350000D01*
X132447440Y-115068690D01*
X135375000Y-115068690D01*
X135375000Y-115284250D01*
X135533750Y-115443000D01*
X136283000Y-115443000D01*
X136283000Y-114718750D01*
X136124250Y-114560000D01*
X135883691Y-114560000D01*
X135650302Y-114656673D01*
X135471673Y-114835301D01*
X135375000Y-115068690D01*
X132447440Y-115068690D01*
X132447440Y-114627362D01*
X133737401Y-113337401D01*
X133902148Y-113090840D01*
X133960000Y-112800000D01*
X133960000Y-112200000D01*
X135055331Y-112200000D01*
X135065910Y-112216441D01*
X135278110Y-112361431D01*
X135530000Y-112412440D01*
X136590000Y-112412440D01*
X136825317Y-112368162D01*
X137041441Y-112229090D01*
X137161233Y-112053768D01*
X137265910Y-112216441D01*
X137478110Y-112361431D01*
X137730000Y-112412440D01*
X138790000Y-112412440D01*
X139025317Y-112368162D01*
X139241441Y-112229090D01*
X139261317Y-112200000D01*
X141577642Y-112200000D01*
X141669673Y-112292192D01*
X142013201Y-112434838D01*
X142385167Y-112435162D01*
X142728943Y-112293117D01*
X142992192Y-112030327D01*
X143134838Y-111686799D01*
X143135162Y-111314833D01*
X142993117Y-110971057D01*
X142730327Y-110707808D01*
X142386799Y-110565162D01*
X142014833Y-110564838D01*
X141736119Y-110680000D01*
X141631580Y-110680000D01*
X142326579Y-109985000D01*
X142633420Y-109985000D01*
X143815000Y-111166579D01*
X143815000Y-112385000D01*
X143270005Y-112385000D01*
X143270000Y-112384999D01*
X142931325Y-112452367D01*
X142644210Y-112644210D01*
X142644208Y-112644213D01*
X140603420Y-114685000D01*
X138688386Y-114685000D01*
X138561890Y-114598569D01*
X138310000Y-114547560D01*
X137510000Y-114547560D01*
X137274683Y-114591838D01*
X137171354Y-114658329D01*
X137169698Y-114656673D01*
X136936309Y-114560000D01*
X136695750Y-114560000D01*
X136537000Y-114718750D01*
X136537000Y-115443000D01*
X136557000Y-115443000D01*
X136557000Y-115697000D01*
X136537000Y-115697000D01*
X136537000Y-116421250D01*
X136695750Y-116580000D01*
X136936309Y-116580000D01*
X137169698Y-116483327D01*
X137171068Y-116481957D01*
X137258110Y-116541431D01*
X137510000Y-116592440D01*
X138310000Y-116592440D01*
X138545317Y-116548162D01*
X138690095Y-116455000D01*
X140969995Y-116455000D01*
X140970000Y-116455001D01*
X141264394Y-116396441D01*
X141308675Y-116387633D01*
X141595790Y-116195790D01*
X143636579Y-114155000D01*
X146583156Y-114155000D01*
X146625910Y-114221441D01*
X146773000Y-114321943D01*
X146773000Y-116813986D01*
X146730301Y-116831673D01*
X146551673Y-117010302D01*
X146455000Y-117243691D01*
X146455000Y-117584250D01*
X146613750Y-117743000D01*
X148463000Y-117743000D01*
X148463000Y-117723000D01*
X148717000Y-117723000D01*
X148717000Y-117743000D01*
X150566250Y-117743000D01*
X150725000Y-117584250D01*
X150725000Y-117243691D01*
X150628327Y-117010302D01*
X150449699Y-116831673D01*
X150327000Y-116780849D01*
X150327000Y-116632302D01*
X156070856Y-116632302D01*
X156098638Y-117187368D01*
X156257603Y-117571143D01*
X156499787Y-117640608D01*
X157300395Y-116840000D01*
X157659605Y-116840000D01*
X158460213Y-117640608D01*
X158702397Y-117571143D01*
X158889144Y-117047698D01*
X158861362Y-116492632D01*
X158702397Y-116108857D01*
X158460213Y-116039392D01*
X157659605Y-116840000D01*
X157300395Y-116840000D01*
X156499787Y-116039392D01*
X156257603Y-116108857D01*
X156070856Y-116632302D01*
X150327000Y-116632302D01*
X150327000Y-114372079D01*
X150541441Y-114234090D01*
X150595481Y-114155000D01*
X153543420Y-114155000D01*
X154314208Y-114925787D01*
X154314210Y-114925790D01*
X154601325Y-115117633D01*
X154657516Y-115128810D01*
X154940000Y-115185001D01*
X154940005Y-115185000D01*
X156389522Y-115185000D01*
X156687630Y-115483629D01*
X156879727Y-115563395D01*
X156748857Y-115617603D01*
X156679392Y-115859787D01*
X157480000Y-116660395D01*
X158280608Y-115859787D01*
X158211143Y-115617603D01*
X158070682Y-115567491D01*
X158270303Y-115485010D01*
X158663629Y-115092370D01*
X158876757Y-114579100D01*
X158877242Y-114023339D01*
X158665010Y-113509697D01*
X158272370Y-113116371D01*
X158064488Y-113030051D01*
X158270303Y-112945010D01*
X158663629Y-112552370D01*
X158876757Y-112039100D01*
X158877242Y-111483339D01*
X158665010Y-110969697D01*
X158272370Y-110576371D01*
X158064488Y-110490051D01*
X158270303Y-110405010D01*
X158663629Y-110012370D01*
X158876757Y-109499100D01*
X158877242Y-108943339D01*
X158665010Y-108429697D01*
X158272370Y-108036371D01*
X158064488Y-107950051D01*
X158270303Y-107865010D01*
X158663629Y-107472370D01*
X158876757Y-106959100D01*
X158877242Y-106403339D01*
X158665010Y-105889697D01*
X158272370Y-105496371D01*
X158064488Y-105410051D01*
X158270303Y-105325010D01*
X158663629Y-104932370D01*
X158876757Y-104419100D01*
X158877242Y-103863339D01*
X158665010Y-103349697D01*
X158272370Y-102956371D01*
X158064488Y-102870051D01*
X158270303Y-102785010D01*
X158663629Y-102392370D01*
X158876757Y-101879100D01*
X158877242Y-101323339D01*
X158665010Y-100809697D01*
X158272370Y-100416371D01*
X158064488Y-100330051D01*
X158270303Y-100245010D01*
X158663629Y-99852370D01*
X158876757Y-99339100D01*
X158877242Y-98783339D01*
X158665010Y-98269697D01*
X158272370Y-97876371D01*
X158064488Y-97790051D01*
X158270303Y-97705010D01*
X158663629Y-97312370D01*
X158876757Y-96799100D01*
X158877242Y-96243339D01*
X158665010Y-95729697D01*
X158272370Y-95336371D01*
X158064488Y-95250051D01*
X158270303Y-95165010D01*
X158663629Y-94772370D01*
X158876757Y-94259100D01*
X158877242Y-93703339D01*
X158665010Y-93189697D01*
X158272370Y-92796371D01*
X158064488Y-92710051D01*
X158270303Y-92625010D01*
X158663629Y-92232370D01*
X158876757Y-91719100D01*
X158877242Y-91163339D01*
X158665010Y-90649697D01*
X158272370Y-90256371D01*
X158064488Y-90170051D01*
X158270303Y-90085010D01*
X158663629Y-89692370D01*
X158876757Y-89179100D01*
X158877242Y-88623339D01*
X158665010Y-88109697D01*
X158272370Y-87716371D01*
X158064488Y-87630051D01*
X158270303Y-87545010D01*
X158663629Y-87152370D01*
X158876757Y-86639100D01*
X158877242Y-86083339D01*
X158665010Y-85569697D01*
X158272370Y-85176371D01*
X158064488Y-85090051D01*
X158270303Y-85005010D01*
X158663629Y-84612370D01*
X158876757Y-84099100D01*
X158877242Y-83543339D01*
X158665010Y-83029697D01*
X158272370Y-82636371D01*
X158064488Y-82550051D01*
X158270303Y-82465010D01*
X158663629Y-82072370D01*
X158876757Y-81559100D01*
X158877242Y-81003339D01*
X158665010Y-80489697D01*
X158272370Y-80096371D01*
X158064488Y-80010051D01*
X158270303Y-79925010D01*
X158663629Y-79532370D01*
X158876757Y-79019100D01*
X158877242Y-78463339D01*
X158665010Y-77949697D01*
X158272370Y-77556371D01*
X158064488Y-77470051D01*
X158270303Y-77385010D01*
X158663629Y-76992370D01*
X158876757Y-76479100D01*
X158877242Y-75923339D01*
X158665010Y-75409697D01*
X158272370Y-75016371D01*
X158064488Y-74930051D01*
X158270303Y-74845010D01*
X158663629Y-74452370D01*
X158876757Y-73939100D01*
X158877242Y-73383339D01*
X158665010Y-72869697D01*
X158272370Y-72476371D01*
X158064488Y-72390051D01*
X158270303Y-72305010D01*
X158663629Y-71912370D01*
X158876757Y-71399100D01*
X158877242Y-70843339D01*
X158665010Y-70329697D01*
X158272370Y-69936371D01*
X158064488Y-69850051D01*
X158270303Y-69765010D01*
X158663629Y-69372370D01*
X158876757Y-68859100D01*
X158877242Y-68303339D01*
X158665010Y-67789697D01*
X158272370Y-67396371D01*
X158064488Y-67310051D01*
X158270303Y-67225010D01*
X158663629Y-66832370D01*
X158876757Y-66319100D01*
X158877242Y-65763339D01*
X158665010Y-65249697D01*
X158272370Y-64856371D01*
X158064488Y-64770051D01*
X158270303Y-64685010D01*
X158663629Y-64292370D01*
X158876757Y-63779100D01*
X158877242Y-63223339D01*
X158665010Y-62709697D01*
X158272370Y-62316371D01*
X158064488Y-62230051D01*
X158270303Y-62145010D01*
X158663629Y-61752370D01*
X158876757Y-61239100D01*
X158877242Y-60683339D01*
X158665010Y-60169697D01*
X158272370Y-59776371D01*
X158064488Y-59690051D01*
X158270303Y-59605010D01*
X158663629Y-59212370D01*
X158876757Y-58699100D01*
X158877242Y-58143339D01*
X158665010Y-57629697D01*
X158272370Y-57236371D01*
X157759100Y-57023243D01*
X157203339Y-57022758D01*
X156689697Y-57234990D01*
X156296371Y-57627630D01*
X156282930Y-57660000D01*
X150145105Y-57660000D01*
X150054090Y-57518559D01*
X149841890Y-57373569D01*
X149590000Y-57322560D01*
X149090000Y-57322560D01*
X148854683Y-57366838D01*
X148638559Y-57505910D01*
X148590866Y-57575711D01*
X148554090Y-57518559D01*
X148341890Y-57373569D01*
X148090000Y-57322560D01*
X147590000Y-57322560D01*
X147354683Y-57366838D01*
X147138559Y-57505910D01*
X147033274Y-57660000D01*
X141380000Y-57660000D01*
X141089161Y-57717852D01*
X140842599Y-57882599D01*
X137662599Y-61062599D01*
X137497852Y-61309161D01*
X137440000Y-61600000D01*
X137440000Y-73100107D01*
X137371890Y-73053569D01*
X137120000Y-73002560D01*
X136813555Y-73002560D01*
X136677657Y-72939707D01*
X136097657Y-72799707D01*
X135992863Y-72795461D01*
X135890000Y-72775000D01*
X134967440Y-72775000D01*
X134967440Y-71000000D01*
X134923162Y-70764683D01*
X134784090Y-70548559D01*
X134571890Y-70403569D01*
X134320000Y-70352560D01*
X132120000Y-70352560D01*
X131884683Y-70396838D01*
X131668559Y-70535910D01*
X131523569Y-70748110D01*
X131472560Y-71000000D01*
X131472560Y-72775000D01*
X130810005Y-72775000D01*
X130810000Y-72774999D01*
X130527516Y-72831190D01*
X130471325Y-72842367D01*
X130184210Y-73034210D01*
X130184208Y-73034213D01*
X126374210Y-76844210D01*
X126182367Y-77131325D01*
X126182367Y-77131326D01*
X126114999Y-77470000D01*
X126115000Y-77470005D01*
X126115000Y-101433421D01*
X125170000Y-102378420D01*
X125170000Y-63290000D01*
X127036429Y-63290000D01*
X127036429Y-69660000D01*
X137163571Y-69660000D01*
X137163571Y-63290000D01*
X127036429Y-63290000D01*
X125170000Y-63290000D01*
X125170000Y-55320000D01*
X160580000Y-55320000D01*
X160580000Y-119940000D01*
G36*
X137513201Y-102534838D02*
X137885167Y-102535162D01*
X138009137Y-102483939D01*
X138392599Y-102867401D01*
X138639161Y-103032148D01*
X138930000Y-103090000D01*
X139132560Y-103090000D01*
X139132560Y-103330000D01*
X139176838Y-103565317D01*
X139315910Y-103781441D01*
X139373000Y-103820449D01*
X139373000Y-104337313D01*
X139328559Y-104365910D01*
X139183569Y-104578110D01*
X139132560Y-104830000D01*
X139132560Y-104945000D01*
X137770005Y-104945000D01*
X137770000Y-104944999D01*
X137431326Y-105012366D01*
X137431324Y-105012367D01*
X137431325Y-105012367D01*
X137144210Y-105204210D01*
X137144208Y-105204213D01*
X136553420Y-105795000D01*
X134878386Y-105795000D01*
X134751890Y-105708569D01*
X134500000Y-105657560D01*
X133700000Y-105657560D01*
X133464683Y-105701838D01*
X133361354Y-105768329D01*
X133359698Y-105766673D01*
X133126309Y-105670000D01*
X132885750Y-105670000D01*
X132727000Y-105828750D01*
X132727000Y-106553000D01*
X132747000Y-106553000D01*
X132747000Y-106807000D01*
X132727000Y-106807000D01*
X132727000Y-107531250D01*
X132885750Y-107690000D01*
X133126309Y-107690000D01*
X133359698Y-107593327D01*
X133361068Y-107591957D01*
X133448110Y-107651431D01*
X133700000Y-107702440D01*
X134500000Y-107702440D01*
X134735317Y-107658162D01*
X134880095Y-107565000D01*
X136860198Y-107565000D01*
X135857638Y-108567560D01*
X135530000Y-108567560D01*
X135294683Y-108611838D01*
X135078559Y-108750910D01*
X134933569Y-108963110D01*
X134882560Y-109215000D01*
X134882560Y-109865000D01*
X134908919Y-110005086D01*
X134895000Y-110038690D01*
X134895000Y-110204250D01*
X135053750Y-110363000D01*
X135134051Y-110363000D01*
X135278110Y-110461431D01*
X135415120Y-110489176D01*
X135294683Y-110511838D01*
X135131257Y-110617000D01*
X135053750Y-110617000D01*
X134990750Y-110680000D01*
X132954802Y-110680000D01*
X132287401Y-110012599D01*
X132040839Y-109847852D01*
X131860577Y-109811995D01*
X131845994Y-109802031D01*
X131988327Y-109659698D01*
X132085000Y-109426309D01*
X132085000Y-109333750D01*
X131926250Y-109175000D01*
X131127000Y-109175000D01*
X131127000Y-109197000D01*
X130873000Y-109197000D01*
X130873000Y-109175000D01*
X130073750Y-109175000D01*
X129915000Y-109333750D01*
X129915000Y-109426309D01*
X130011673Y-109659698D01*
X130152910Y-109800936D01*
X130098559Y-109835910D01*
X129953569Y-110048110D01*
X129902560Y-110300000D01*
X129902560Y-110800000D01*
X129946838Y-111035317D01*
X130085910Y-111251441D01*
X130298110Y-111396431D01*
X130550000Y-111447440D01*
X131450000Y-111447440D01*
X131553216Y-111428018D01*
X132102599Y-111977401D01*
X132349161Y-112142148D01*
X132440000Y-112160217D01*
X132440000Y-112485198D01*
X131081530Y-113843668D01*
X131064683Y-113846838D01*
X130848559Y-113985910D01*
X130800866Y-114055711D01*
X130764090Y-113998559D01*
X130551890Y-113853569D01*
X130327000Y-113808028D01*
X130327000Y-112100000D01*
X130317666Y-112052211D01*
X130289803Y-112010197D01*
X129127000Y-110847394D01*
X129127000Y-108673691D01*
X129915000Y-108673691D01*
X129915000Y-108766250D01*
X130073750Y-108925000D01*
X130873000Y-108925000D01*
X130873000Y-108323750D01*
X131127000Y-108323750D01*
X131127000Y-108925000D01*
X131926250Y-108925000D01*
X132085000Y-108766250D01*
X132085000Y-108673691D01*
X131988327Y-108440302D01*
X131809699Y-108261673D01*
X131576310Y-108165000D01*
X131285750Y-108165000D01*
X131127000Y-108323750D01*
X130873000Y-108323750D01*
X130714250Y-108165000D01*
X130423690Y-108165000D01*
X130190301Y-108261673D01*
X130011673Y-108440302D01*
X129915000Y-108673691D01*
X129127000Y-108673691D01*
X129127000Y-107905978D01*
X129160000Y-107826309D01*
X129160000Y-107485750D01*
X129127000Y-107452750D01*
X129127000Y-106965750D01*
X131565000Y-106965750D01*
X131565000Y-107181310D01*
X131661673Y-107414699D01*
X131840302Y-107593327D01*
X132073691Y-107690000D01*
X132314250Y-107690000D01*
X132473000Y-107531250D01*
X132473000Y-106807000D01*
X131723750Y-106807000D01*
X131565000Y-106965750D01*
X129127000Y-106965750D01*
X129127000Y-106947250D01*
X129160000Y-106914250D01*
X129160000Y-106573691D01*
X129127000Y-106494022D01*
X129127000Y-106178690D01*
X131565000Y-106178690D01*
X131565000Y-106394250D01*
X131723750Y-106553000D01*
X132473000Y-106553000D01*
X132473000Y-105828750D01*
X132314250Y-105670000D01*
X132073691Y-105670000D01*
X131840302Y-105766673D01*
X131661673Y-105945301D01*
X131565000Y-106178690D01*
X129127000Y-106178690D01*
X129127000Y-105924389D01*
X129172440Y-105700000D01*
X129172440Y-104700000D01*
X129128162Y-104464683D01*
X129127000Y-104462877D01*
X129127000Y-103227000D01*
X131200000Y-103227000D01*
X131246159Y-103218315D01*
X131288553Y-103191035D01*
X131316994Y-103149410D01*
X131317393Y-103147440D01*
X132182509Y-103147440D01*
X132208965Y-103188553D01*
X132250590Y-103216994D01*
X132300000Y-103227000D01*
X134500000Y-103227000D01*
X134546159Y-103218315D01*
X134588553Y-103191035D01*
X134616994Y-103149410D01*
X134617393Y-103147440D01*
X136600000Y-103147440D01*
X136835317Y-103103162D01*
X137051441Y-102964090D01*
X137196431Y-102751890D01*
X137247440Y-102500000D01*
X137247440Y-102424484D01*
X137513201Y-102534838D01*
X137513201Y-102534838D01*
G37*
X137513201Y-102534838D02*
X137885167Y-102535162D01*
X138009137Y-102483939D01*
X138392599Y-102867401D01*
X138639161Y-103032148D01*
X138930000Y-103090000D01*
X139132560Y-103090000D01*
X139132560Y-103330000D01*
X139176838Y-103565317D01*
X139315910Y-103781441D01*
X139373000Y-103820449D01*
X139373000Y-104337313D01*
X139328559Y-104365910D01*
X139183569Y-104578110D01*
X139132560Y-104830000D01*
X139132560Y-104945000D01*
X137770005Y-104945000D01*
X137770000Y-104944999D01*
X137431326Y-105012366D01*
X137431324Y-105012367D01*
X137431325Y-105012367D01*
X137144210Y-105204210D01*
X137144208Y-105204213D01*
X136553420Y-105795000D01*
X134878386Y-105795000D01*
X134751890Y-105708569D01*
X134500000Y-105657560D01*
X133700000Y-105657560D01*
X133464683Y-105701838D01*
X133361354Y-105768329D01*
X133359698Y-105766673D01*
X133126309Y-105670000D01*
X132885750Y-105670000D01*
X132727000Y-105828750D01*
X132727000Y-106553000D01*
X132747000Y-106553000D01*
X132747000Y-106807000D01*
X132727000Y-106807000D01*
X132727000Y-107531250D01*
X132885750Y-107690000D01*
X133126309Y-107690000D01*
X133359698Y-107593327D01*
X133361068Y-107591957D01*
X133448110Y-107651431D01*
X133700000Y-107702440D01*
X134500000Y-107702440D01*
X134735317Y-107658162D01*
X134880095Y-107565000D01*
X136860198Y-107565000D01*
X135857638Y-108567560D01*
X135530000Y-108567560D01*
X135294683Y-108611838D01*
X135078559Y-108750910D01*
X134933569Y-108963110D01*
X134882560Y-109215000D01*
X134882560Y-109865000D01*
X134908919Y-110005086D01*
X134895000Y-110038690D01*
X134895000Y-110204250D01*
X135053750Y-110363000D01*
X135134051Y-110363000D01*
X135278110Y-110461431D01*
X135415120Y-110489176D01*
X135294683Y-110511838D01*
X135131257Y-110617000D01*
X135053750Y-110617000D01*
X134990750Y-110680000D01*
X132954802Y-110680000D01*
X132287401Y-110012599D01*
X132040839Y-109847852D01*
X131860577Y-109811995D01*
X131845994Y-109802031D01*
X131988327Y-109659698D01*
X132085000Y-109426309D01*
X132085000Y-109333750D01*
X131926250Y-109175000D01*
X131127000Y-109175000D01*
X131127000Y-109197000D01*
X130873000Y-109197000D01*
X130873000Y-109175000D01*
X130073750Y-109175000D01*
X129915000Y-109333750D01*
X129915000Y-109426309D01*
X130011673Y-109659698D01*
X130152910Y-109800936D01*
X130098559Y-109835910D01*
X129953569Y-110048110D01*
X129902560Y-110300000D01*
X129902560Y-110800000D01*
X129946838Y-111035317D01*
X130085910Y-111251441D01*
X130298110Y-111396431D01*
X130550000Y-111447440D01*
X131450000Y-111447440D01*
X131553216Y-111428018D01*
X132102599Y-111977401D01*
X132349161Y-112142148D01*
X132440000Y-112160217D01*
X132440000Y-112485198D01*
X131081530Y-113843668D01*
X131064683Y-113846838D01*
X130848559Y-113985910D01*
X130800866Y-114055711D01*
X130764090Y-113998559D01*
X130551890Y-113853569D01*
X130327000Y-113808028D01*
X130327000Y-112100000D01*
X130317666Y-112052211D01*
X130289803Y-112010197D01*
X129127000Y-110847394D01*
X129127000Y-108673691D01*
X129915000Y-108673691D01*
X129915000Y-108766250D01*
X130073750Y-108925000D01*
X130873000Y-108925000D01*
X130873000Y-108323750D01*
X131127000Y-108323750D01*
X131127000Y-108925000D01*
X131926250Y-108925000D01*
X132085000Y-108766250D01*
X132085000Y-108673691D01*
X131988327Y-108440302D01*
X131809699Y-108261673D01*
X131576310Y-108165000D01*
X131285750Y-108165000D01*
X131127000Y-108323750D01*
X130873000Y-108323750D01*
X130714250Y-108165000D01*
X130423690Y-108165000D01*
X130190301Y-108261673D01*
X130011673Y-108440302D01*
X129915000Y-108673691D01*
X129127000Y-108673691D01*
X129127000Y-107905978D01*
X129160000Y-107826309D01*
X129160000Y-107485750D01*
X129127000Y-107452750D01*
X129127000Y-106965750D01*
X131565000Y-106965750D01*
X131565000Y-107181310D01*
X131661673Y-107414699D01*
X131840302Y-107593327D01*
X132073691Y-107690000D01*
X132314250Y-107690000D01*
X132473000Y-107531250D01*
X132473000Y-106807000D01*
X131723750Y-106807000D01*
X131565000Y-106965750D01*
X129127000Y-106965750D01*
X129127000Y-106947250D01*
X129160000Y-106914250D01*
X129160000Y-106573691D01*
X129127000Y-106494022D01*
X129127000Y-106178690D01*
X131565000Y-106178690D01*
X131565000Y-106394250D01*
X131723750Y-106553000D01*
X132473000Y-106553000D01*
X132473000Y-105828750D01*
X132314250Y-105670000D01*
X132073691Y-105670000D01*
X131840302Y-105766673D01*
X131661673Y-105945301D01*
X131565000Y-106178690D01*
X129127000Y-106178690D01*
X129127000Y-105924389D01*
X129172440Y-105700000D01*
X129172440Y-104700000D01*
X129128162Y-104464683D01*
X129127000Y-104462877D01*
X129127000Y-103227000D01*
X131200000Y-103227000D01*
X131246159Y-103218315D01*
X131288553Y-103191035D01*
X131316994Y-103149410D01*
X131317393Y-103147440D01*
X132182509Y-103147440D01*
X132208965Y-103188553D01*
X132250590Y-103216994D01*
X132300000Y-103227000D01*
X134500000Y-103227000D01*
X134546159Y-103218315D01*
X134588553Y-103191035D01*
X134616994Y-103149410D01*
X134617393Y-103147440D01*
X136600000Y-103147440D01*
X136835317Y-103103162D01*
X137051441Y-102964090D01*
X137196431Y-102751890D01*
X137247440Y-102500000D01*
X137247440Y-102424484D01*
X137513201Y-102534838D01*
G36*
X135185000Y-74566250D02*
X135196621Y-74577871D01*
X135216838Y-74685317D01*
X135283329Y-74788646D01*
X135281673Y-74790302D01*
X135185000Y-75023691D01*
X135185000Y-75076309D01*
X135281673Y-75309698D01*
X135283043Y-75311068D01*
X135223569Y-75398110D01*
X135198920Y-75519830D01*
X135185000Y-75533750D01*
X135185000Y-75576309D01*
X135186668Y-75580335D01*
X135172560Y-75650000D01*
X135172560Y-75950000D01*
X135192067Y-76053671D01*
X135172560Y-76150000D01*
X135172560Y-76450000D01*
X135185981Y-76521324D01*
X135185000Y-76523691D01*
X135185000Y-76566250D01*
X135196621Y-76577871D01*
X135216838Y-76685317D01*
X135283329Y-76788646D01*
X135281673Y-76790302D01*
X135185000Y-77023691D01*
X135185000Y-77076309D01*
X135281673Y-77309698D01*
X135283043Y-77311068D01*
X135223569Y-77398110D01*
X135198920Y-77519830D01*
X135185000Y-77533750D01*
X135185000Y-77576309D01*
X135186668Y-77580335D01*
X135172560Y-77650000D01*
X135172560Y-77950000D01*
X135192067Y-78053671D01*
X135172560Y-78150000D01*
X135172560Y-78450000D01*
X135185981Y-78521324D01*
X135185000Y-78523691D01*
X135185000Y-78566250D01*
X135196621Y-78577871D01*
X135216838Y-78685317D01*
X135283329Y-78788646D01*
X135281673Y-78790302D01*
X135185000Y-79023691D01*
X135185000Y-79076309D01*
X135281673Y-79309698D01*
X135283043Y-79311068D01*
X135223569Y-79398110D01*
X135198920Y-79519830D01*
X135185000Y-79533750D01*
X135185000Y-79576309D01*
X135186668Y-79580335D01*
X135172560Y-79650000D01*
X135172560Y-79950000D01*
X135192067Y-80053671D01*
X135172560Y-80150000D01*
X135172560Y-80450000D01*
X135192067Y-80553671D01*
X135172560Y-80650000D01*
X135172560Y-80950000D01*
X135192067Y-81053671D01*
X135172560Y-81150000D01*
X135172560Y-81450000D01*
X135192067Y-81553671D01*
X135172560Y-81650000D01*
X135172560Y-81950000D01*
X135192067Y-82053671D01*
X135172560Y-82150000D01*
X135172560Y-82450000D01*
X135192067Y-82553671D01*
X135172560Y-82650000D01*
X135172560Y-82950000D01*
X135192067Y-83053671D01*
X135172560Y-83150000D01*
X135172560Y-83450000D01*
X135192067Y-83553671D01*
X135172560Y-83650000D01*
X135172560Y-83950000D01*
X135192067Y-84053671D01*
X135172560Y-84150000D01*
X135172560Y-84450000D01*
X135185981Y-84521324D01*
X135185000Y-84523691D01*
X135185000Y-84566250D01*
X135196621Y-84577871D01*
X135216838Y-84685317D01*
X135290620Y-84799978D01*
X135223569Y-84898110D01*
X135198920Y-85019830D01*
X135185000Y-85033750D01*
X135185000Y-85076309D01*
X135186668Y-85080335D01*
X135172560Y-85150000D01*
X135172560Y-85450000D01*
X135192067Y-85553671D01*
X135172560Y-85650000D01*
X135172560Y-85950000D01*
X135192067Y-86053671D01*
X135172560Y-86150000D01*
X135172560Y-86450000D01*
X135192067Y-86553671D01*
X135172560Y-86650000D01*
X135172560Y-86950000D01*
X135192067Y-87053671D01*
X135172560Y-87150000D01*
X135172560Y-87450000D01*
X135192067Y-87553671D01*
X135172560Y-87650000D01*
X135172560Y-87950000D01*
X135192067Y-88053671D01*
X135172560Y-88150000D01*
X135172560Y-88450000D01*
X135192067Y-88553671D01*
X135172560Y-88650000D01*
X135172560Y-88950000D01*
X135185981Y-89021324D01*
X135185000Y-89023691D01*
X135185000Y-89066250D01*
X135196621Y-89077871D01*
X135216838Y-89185317D01*
X135290620Y-89299978D01*
X135223569Y-89398110D01*
X135198920Y-89519830D01*
X135185000Y-89533750D01*
X135185000Y-89576309D01*
X135186668Y-89580335D01*
X135172560Y-89650000D01*
X135172560Y-89950000D01*
X135185981Y-90021324D01*
X135185000Y-90023691D01*
X135185000Y-90066250D01*
X135196621Y-90077871D01*
X135216838Y-90185317D01*
X135290620Y-90299978D01*
X135223569Y-90398110D01*
X135198920Y-90519830D01*
X135185000Y-90533750D01*
X135185000Y-90576309D01*
X135186668Y-90580335D01*
X135172560Y-90650000D01*
X135172560Y-90950000D01*
X135192067Y-91053671D01*
X135172560Y-91150000D01*
X135172560Y-91450000D01*
X135216838Y-91685317D01*
X135355910Y-91901441D01*
X135568110Y-92046431D01*
X135820000Y-92097440D01*
X137120000Y-92097440D01*
X137318976Y-92060000D01*
X138685198Y-92060000D01*
X142340000Y-95714802D01*
X142340000Y-99000000D01*
X142397852Y-99290839D01*
X142562599Y-99537401D01*
X143707758Y-100682560D01*
X139780000Y-100682560D01*
X139544683Y-100726838D01*
X139328559Y-100865910D01*
X139183569Y-101078110D01*
X139132560Y-101330000D01*
X139132560Y-101457758D01*
X138737401Y-101062599D01*
X138490839Y-100897852D01*
X138277939Y-100855503D01*
X138230327Y-100807808D01*
X137886799Y-100665162D01*
X137514833Y-100664838D01*
X137247440Y-100775322D01*
X137247440Y-100700000D01*
X137203162Y-100464683D01*
X137064090Y-100248559D01*
X136851890Y-100103569D01*
X136600000Y-100052560D01*
X134627000Y-100052560D01*
X134627000Y-99900000D01*
X134618315Y-99853841D01*
X134591035Y-99811447D01*
X134549410Y-99783006D01*
X134500000Y-99773000D01*
X132300000Y-99773000D01*
X132253841Y-99781685D01*
X132211447Y-99808965D01*
X132183006Y-99850590D01*
X132173000Y-99900000D01*
X132173000Y-100052560D01*
X131327000Y-100052560D01*
X131327000Y-99200000D01*
X131318315Y-99153841D01*
X131291035Y-99111447D01*
X131249410Y-99083006D01*
X131200000Y-99073000D01*
X127927000Y-99073000D01*
X127927000Y-92300000D01*
X131472560Y-92300000D01*
X131472560Y-94100000D01*
X131516838Y-94335317D01*
X131655910Y-94551441D01*
X131868110Y-94696431D01*
X132120000Y-94747440D01*
X134320000Y-94747440D01*
X134555317Y-94703162D01*
X134771441Y-94564090D01*
X134916431Y-94351890D01*
X134967440Y-94100000D01*
X134967440Y-92300000D01*
X134923162Y-92064683D01*
X134784090Y-91848559D01*
X134571890Y-91703569D01*
X134320000Y-91652560D01*
X132120000Y-91652560D01*
X131884683Y-91696838D01*
X131668559Y-91835910D01*
X131523569Y-92048110D01*
X131472560Y-92300000D01*
X127927000Y-92300000D01*
X127927000Y-77952606D01*
X131289803Y-74589803D01*
X131316300Y-74551022D01*
X131317606Y-74545000D01*
X135185000Y-74545000D01*
X135185000Y-74566250D01*
X135185000Y-74566250D01*
G37*
X135185000Y-74566250D02*
X135196621Y-74577871D01*
X135216838Y-74685317D01*
X135283329Y-74788646D01*
X135281673Y-74790302D01*
X135185000Y-75023691D01*
X135185000Y-75076309D01*
X135281673Y-75309698D01*
X135283043Y-75311068D01*
X135223569Y-75398110D01*
X135198920Y-75519830D01*
X135185000Y-75533750D01*
X135185000Y-75576309D01*
X135186668Y-75580335D01*
X135172560Y-75650000D01*
X135172560Y-75950000D01*
X135192067Y-76053671D01*
X135172560Y-76150000D01*
X135172560Y-76450000D01*
X135185981Y-76521324D01*
X135185000Y-76523691D01*
X135185000Y-76566250D01*
X135196621Y-76577871D01*
X135216838Y-76685317D01*
X135283329Y-76788646D01*
X135281673Y-76790302D01*
X135185000Y-77023691D01*
X135185000Y-77076309D01*
X135281673Y-77309698D01*
X135283043Y-77311068D01*
X135223569Y-77398110D01*
X135198920Y-77519830D01*
X135185000Y-77533750D01*
X135185000Y-77576309D01*
X135186668Y-77580335D01*
X135172560Y-77650000D01*
X135172560Y-77950000D01*
X135192067Y-78053671D01*
X135172560Y-78150000D01*
X135172560Y-78450000D01*
X135185981Y-78521324D01*
X135185000Y-78523691D01*
X135185000Y-78566250D01*
X135196621Y-78577871D01*
X135216838Y-78685317D01*
X135283329Y-78788646D01*
X135281673Y-78790302D01*
X135185000Y-79023691D01*
X135185000Y-79076309D01*
X135281673Y-79309698D01*
X135283043Y-79311068D01*
X135223569Y-79398110D01*
X135198920Y-79519830D01*
X135185000Y-79533750D01*
X135185000Y-79576309D01*
X135186668Y-79580335D01*
X135172560Y-79650000D01*
X135172560Y-79950000D01*
X135192067Y-80053671D01*
X135172560Y-80150000D01*
X135172560Y-80450000D01*
X135192067Y-80553671D01*
X135172560Y-80650000D01*
X135172560Y-80950000D01*
X135192067Y-81053671D01*
X135172560Y-81150000D01*
X135172560Y-81450000D01*
X135192067Y-81553671D01*
X135172560Y-81650000D01*
X135172560Y-81950000D01*
X135192067Y-82053671D01*
X135172560Y-82150000D01*
X135172560Y-82450000D01*
X135192067Y-82553671D01*
X135172560Y-82650000D01*
X135172560Y-82950000D01*
X135192067Y-83053671D01*
X135172560Y-83150000D01*
X135172560Y-83450000D01*
X135192067Y-83553671D01*
X135172560Y-83650000D01*
X135172560Y-83950000D01*
X135192067Y-84053671D01*
X135172560Y-84150000D01*
X135172560Y-84450000D01*
X135185981Y-84521324D01*
X135185000Y-84523691D01*
X135185000Y-84566250D01*
X135196621Y-84577871D01*
X135216838Y-84685317D01*
X135290620Y-84799978D01*
X135223569Y-84898110D01*
X135198920Y-85019830D01*
X135185000Y-85033750D01*
X135185000Y-85076309D01*
X135186668Y-85080335D01*
X135172560Y-85150000D01*
X135172560Y-85450000D01*
X135192067Y-85553671D01*
X135172560Y-85650000D01*
X135172560Y-85950000D01*
X135192067Y-86053671D01*
X135172560Y-86150000D01*
X135172560Y-86450000D01*
X135192067Y-86553671D01*
X135172560Y-86650000D01*
X135172560Y-86950000D01*
X135192067Y-87053671D01*
X135172560Y-87150000D01*
X135172560Y-87450000D01*
X135192067Y-87553671D01*
X135172560Y-87650000D01*
X135172560Y-87950000D01*
X135192067Y-88053671D01*
X135172560Y-88150000D01*
X135172560Y-88450000D01*
X135192067Y-88553671D01*
X135172560Y-88650000D01*
X135172560Y-88950000D01*
X135185981Y-89021324D01*
X135185000Y-89023691D01*
X135185000Y-89066250D01*
X135196621Y-89077871D01*
X135216838Y-89185317D01*
X135290620Y-89299978D01*
X135223569Y-89398110D01*
X135198920Y-89519830D01*
X135185000Y-89533750D01*
X135185000Y-89576309D01*
X135186668Y-89580335D01*
X135172560Y-89650000D01*
X135172560Y-89950000D01*
X135185981Y-90021324D01*
X135185000Y-90023691D01*
X135185000Y-90066250D01*
X135196621Y-90077871D01*
X135216838Y-90185317D01*
X135290620Y-90299978D01*
X135223569Y-90398110D01*
X135198920Y-90519830D01*
X135185000Y-90533750D01*
X135185000Y-90576309D01*
X135186668Y-90580335D01*
X135172560Y-90650000D01*
X135172560Y-90950000D01*
X135192067Y-91053671D01*
X135172560Y-91150000D01*
X135172560Y-91450000D01*
X135216838Y-91685317D01*
X135355910Y-91901441D01*
X135568110Y-92046431D01*
X135820000Y-92097440D01*
X137120000Y-92097440D01*
X137318976Y-92060000D01*
X138685198Y-92060000D01*
X142340000Y-95714802D01*
X142340000Y-99000000D01*
X142397852Y-99290839D01*
X142562599Y-99537401D01*
X143707758Y-100682560D01*
X139780000Y-100682560D01*
X139544683Y-100726838D01*
X139328559Y-100865910D01*
X139183569Y-101078110D01*
X139132560Y-101330000D01*
X139132560Y-101457758D01*
X138737401Y-101062599D01*
X138490839Y-100897852D01*
X138277939Y-100855503D01*
X138230327Y-100807808D01*
X137886799Y-100665162D01*
X137514833Y-100664838D01*
X137247440Y-100775322D01*
X137247440Y-100700000D01*
X137203162Y-100464683D01*
X137064090Y-100248559D01*
X136851890Y-100103569D01*
X136600000Y-100052560D01*
X134627000Y-100052560D01*
X134627000Y-99900000D01*
X134618315Y-99853841D01*
X134591035Y-99811447D01*
X134549410Y-99783006D01*
X134500000Y-99773000D01*
X132300000Y-99773000D01*
X132253841Y-99781685D01*
X132211447Y-99808965D01*
X132183006Y-99850590D01*
X132173000Y-99900000D01*
X132173000Y-100052560D01*
X131327000Y-100052560D01*
X131327000Y-99200000D01*
X131318315Y-99153841D01*
X131291035Y-99111447D01*
X131249410Y-99083006D01*
X131200000Y-99073000D01*
X127927000Y-99073000D01*
X127927000Y-92300000D01*
X131472560Y-92300000D01*
X131472560Y-94100000D01*
X131516838Y-94335317D01*
X131655910Y-94551441D01*
X131868110Y-94696431D01*
X132120000Y-94747440D01*
X134320000Y-94747440D01*
X134555317Y-94703162D01*
X134771441Y-94564090D01*
X134916431Y-94351890D01*
X134967440Y-94100000D01*
X134967440Y-92300000D01*
X134923162Y-92064683D01*
X134784090Y-91848559D01*
X134571890Y-91703569D01*
X134320000Y-91652560D01*
X132120000Y-91652560D01*
X131884683Y-91696838D01*
X131668559Y-91835910D01*
X131523569Y-92048110D01*
X131472560Y-92300000D01*
X127927000Y-92300000D01*
X127927000Y-77952606D01*
X131289803Y-74589803D01*
X131316300Y-74551022D01*
X131317606Y-74545000D01*
X135185000Y-74545000D01*
X135185000Y-74566250D01*
M02*
