G04 #@! TF.FileFunction,Legend,Top*
%FSLAX46Y46*%
G04 Gerber Fmt 4.6, Leading zero omitted, Abs format (unit mm)*
G04 Created by KiCad (PCBNEW 4.0.7) date 09/10/19 22:44:32*
%MOMM*%
%LPD*%
G01*
G04 APERTURE LIST*
%ADD10C,0.100000*%
%ADD11C,0.200000*%
%ADD12C,0.120000*%
%ADD13C,0.150000*%
%ADD14C,0.010000*%
G04 APERTURE END LIST*
D10*
D11*
X151785714Y-89252381D02*
X151785714Y-88252381D01*
X152023809Y-88252381D01*
X152166667Y-88300000D01*
X152261905Y-88395238D01*
X152309524Y-88490476D01*
X152357143Y-88680952D01*
X152357143Y-88823810D01*
X152309524Y-89014286D01*
X152261905Y-89109524D01*
X152166667Y-89204762D01*
X152023809Y-89252381D01*
X151785714Y-89252381D01*
X153309524Y-89252381D02*
X152738095Y-89252381D01*
X153023809Y-89252381D02*
X153023809Y-88252381D01*
X152928571Y-88395238D01*
X152833333Y-88490476D01*
X152738095Y-88538095D01*
X153928571Y-88252381D02*
X154023810Y-88252381D01*
X154119048Y-88300000D01*
X154166667Y-88347619D01*
X154214286Y-88442857D01*
X154261905Y-88633333D01*
X154261905Y-88871429D01*
X154214286Y-89061905D01*
X154166667Y-89157143D01*
X154119048Y-89204762D01*
X154023810Y-89252381D01*
X153928571Y-89252381D01*
X153833333Y-89204762D01*
X153785714Y-89157143D01*
X153738095Y-89061905D01*
X153690476Y-88871429D01*
X153690476Y-88633333D01*
X153738095Y-88442857D01*
X153785714Y-88347619D01*
X153833333Y-88300000D01*
X153928571Y-88252381D01*
X151861905Y-86752381D02*
X151861905Y-85752381D01*
X152100000Y-85752381D01*
X152242858Y-85800000D01*
X152338096Y-85895238D01*
X152385715Y-85990476D01*
X152433334Y-86180952D01*
X152433334Y-86323810D01*
X152385715Y-86514286D01*
X152338096Y-86609524D01*
X152242858Y-86704762D01*
X152100000Y-86752381D01*
X151861905Y-86752381D01*
X152909524Y-86752381D02*
X153100000Y-86752381D01*
X153195239Y-86704762D01*
X153242858Y-86657143D01*
X153338096Y-86514286D01*
X153385715Y-86323810D01*
X153385715Y-85942857D01*
X153338096Y-85847619D01*
X153290477Y-85800000D01*
X153195239Y-85752381D01*
X153004762Y-85752381D01*
X152909524Y-85800000D01*
X152861905Y-85847619D01*
X152814286Y-85942857D01*
X152814286Y-86180952D01*
X152861905Y-86276190D01*
X152909524Y-86323810D01*
X153004762Y-86371429D01*
X153195239Y-86371429D01*
X153290477Y-86323810D01*
X153338096Y-86276190D01*
X153385715Y-86180952D01*
X151861905Y-84252381D02*
X151861905Y-83252381D01*
X152100000Y-83252381D01*
X152242858Y-83300000D01*
X152338096Y-83395238D01*
X152385715Y-83490476D01*
X152433334Y-83680952D01*
X152433334Y-83823810D01*
X152385715Y-84014286D01*
X152338096Y-84109524D01*
X152242858Y-84204762D01*
X152100000Y-84252381D01*
X151861905Y-84252381D01*
X153004762Y-83680952D02*
X152909524Y-83633333D01*
X152861905Y-83585714D01*
X152814286Y-83490476D01*
X152814286Y-83442857D01*
X152861905Y-83347619D01*
X152909524Y-83300000D01*
X153004762Y-83252381D01*
X153195239Y-83252381D01*
X153290477Y-83300000D01*
X153338096Y-83347619D01*
X153385715Y-83442857D01*
X153385715Y-83490476D01*
X153338096Y-83585714D01*
X153290477Y-83633333D01*
X153195239Y-83680952D01*
X153004762Y-83680952D01*
X152909524Y-83728571D01*
X152861905Y-83776190D01*
X152814286Y-83871429D01*
X152814286Y-84061905D01*
X152861905Y-84157143D01*
X152909524Y-84204762D01*
X153004762Y-84252381D01*
X153195239Y-84252381D01*
X153290477Y-84204762D01*
X153338096Y-84157143D01*
X153385715Y-84061905D01*
X153385715Y-83871429D01*
X153338096Y-83776190D01*
X153290477Y-83728571D01*
X153195239Y-83680952D01*
X151861905Y-81652381D02*
X151861905Y-80652381D01*
X152100000Y-80652381D01*
X152242858Y-80700000D01*
X152338096Y-80795238D01*
X152385715Y-80890476D01*
X152433334Y-81080952D01*
X152433334Y-81223810D01*
X152385715Y-81414286D01*
X152338096Y-81509524D01*
X152242858Y-81604762D01*
X152100000Y-81652381D01*
X151861905Y-81652381D01*
X152766667Y-80652381D02*
X153433334Y-80652381D01*
X153004762Y-81652381D01*
X151961905Y-79052381D02*
X151961905Y-78052381D01*
X152200000Y-78052381D01*
X152342858Y-78100000D01*
X152438096Y-78195238D01*
X152485715Y-78290476D01*
X152533334Y-78480952D01*
X152533334Y-78623810D01*
X152485715Y-78814286D01*
X152438096Y-78909524D01*
X152342858Y-79004762D01*
X152200000Y-79052381D01*
X151961905Y-79052381D01*
X153390477Y-78052381D02*
X153200000Y-78052381D01*
X153104762Y-78100000D01*
X153057143Y-78147619D01*
X152961905Y-78290476D01*
X152914286Y-78480952D01*
X152914286Y-78861905D01*
X152961905Y-78957143D01*
X153009524Y-79004762D01*
X153104762Y-79052381D01*
X153295239Y-79052381D01*
X153390477Y-79004762D01*
X153438096Y-78957143D01*
X153485715Y-78861905D01*
X153485715Y-78623810D01*
X153438096Y-78528571D01*
X153390477Y-78480952D01*
X153295239Y-78433333D01*
X153104762Y-78433333D01*
X153009524Y-78480952D01*
X152961905Y-78528571D01*
X152914286Y-78623810D01*
X151861905Y-76652381D02*
X151861905Y-75652381D01*
X152100000Y-75652381D01*
X152242858Y-75700000D01*
X152338096Y-75795238D01*
X152385715Y-75890476D01*
X152433334Y-76080952D01*
X152433334Y-76223810D01*
X152385715Y-76414286D01*
X152338096Y-76509524D01*
X152242858Y-76604762D01*
X152100000Y-76652381D01*
X151861905Y-76652381D01*
X153338096Y-75652381D02*
X152861905Y-75652381D01*
X152814286Y-76128571D01*
X152861905Y-76080952D01*
X152957143Y-76033333D01*
X153195239Y-76033333D01*
X153290477Y-76080952D01*
X153338096Y-76128571D01*
X153385715Y-76223810D01*
X153385715Y-76461905D01*
X153338096Y-76557143D01*
X153290477Y-76604762D01*
X153195239Y-76652381D01*
X152957143Y-76652381D01*
X152861905Y-76604762D01*
X152814286Y-76557143D01*
X151961905Y-74052381D02*
X151961905Y-73052381D01*
X152200000Y-73052381D01*
X152342858Y-73100000D01*
X152438096Y-73195238D01*
X152485715Y-73290476D01*
X152533334Y-73480952D01*
X152533334Y-73623810D01*
X152485715Y-73814286D01*
X152438096Y-73909524D01*
X152342858Y-74004762D01*
X152200000Y-74052381D01*
X151961905Y-74052381D01*
X153390477Y-73385714D02*
X153390477Y-74052381D01*
X153152381Y-73004762D02*
X152914286Y-73719048D01*
X153533334Y-73719048D01*
X151961905Y-71552381D02*
X151961905Y-70552381D01*
X152200000Y-70552381D01*
X152342858Y-70600000D01*
X152438096Y-70695238D01*
X152485715Y-70790476D01*
X152533334Y-70980952D01*
X152533334Y-71123810D01*
X152485715Y-71314286D01*
X152438096Y-71409524D01*
X152342858Y-71504762D01*
X152200000Y-71552381D01*
X151961905Y-71552381D01*
X152866667Y-70552381D02*
X153485715Y-70552381D01*
X153152381Y-70933333D01*
X153295239Y-70933333D01*
X153390477Y-70980952D01*
X153438096Y-71028571D01*
X153485715Y-71123810D01*
X153485715Y-71361905D01*
X153438096Y-71457143D01*
X153390477Y-71504762D01*
X153295239Y-71552381D01*
X153009524Y-71552381D01*
X152914286Y-71504762D01*
X152866667Y-71457143D01*
X151961905Y-68952381D02*
X151961905Y-67952381D01*
X152200000Y-67952381D01*
X152342858Y-68000000D01*
X152438096Y-68095238D01*
X152485715Y-68190476D01*
X152533334Y-68380952D01*
X152533334Y-68523810D01*
X152485715Y-68714286D01*
X152438096Y-68809524D01*
X152342858Y-68904762D01*
X152200000Y-68952381D01*
X151961905Y-68952381D01*
X152914286Y-68047619D02*
X152961905Y-68000000D01*
X153057143Y-67952381D01*
X153295239Y-67952381D01*
X153390477Y-68000000D01*
X153438096Y-68047619D01*
X153485715Y-68142857D01*
X153485715Y-68238095D01*
X153438096Y-68380952D01*
X152866667Y-68952381D01*
X153485715Y-68952381D01*
X151961905Y-66252381D02*
X151961905Y-65252381D01*
X152200000Y-65252381D01*
X152342858Y-65300000D01*
X152438096Y-65395238D01*
X152485715Y-65490476D01*
X152533334Y-65680952D01*
X152533334Y-65823810D01*
X152485715Y-66014286D01*
X152438096Y-66109524D01*
X152342858Y-66204762D01*
X152200000Y-66252381D01*
X151961905Y-66252381D01*
X153485715Y-66252381D02*
X152914286Y-66252381D01*
X153200000Y-66252381D02*
X153200000Y-65252381D01*
X153104762Y-65395238D01*
X153009524Y-65490476D01*
X152914286Y-65538095D01*
X151961905Y-63852381D02*
X151961905Y-62852381D01*
X152200000Y-62852381D01*
X152342858Y-62900000D01*
X152438096Y-62995238D01*
X152485715Y-63090476D01*
X152533334Y-63280952D01*
X152533334Y-63423810D01*
X152485715Y-63614286D01*
X152438096Y-63709524D01*
X152342858Y-63804762D01*
X152200000Y-63852381D01*
X151961905Y-63852381D01*
X153152381Y-62852381D02*
X153247620Y-62852381D01*
X153342858Y-62900000D01*
X153390477Y-62947619D01*
X153438096Y-63042857D01*
X153485715Y-63233333D01*
X153485715Y-63471429D01*
X153438096Y-63661905D01*
X153390477Y-63757143D01*
X153342858Y-63804762D01*
X153247620Y-63852381D01*
X153152381Y-63852381D01*
X153057143Y-63804762D01*
X153009524Y-63757143D01*
X152961905Y-63661905D01*
X152914286Y-63471429D01*
X152914286Y-63233333D01*
X152961905Y-63042857D01*
X153009524Y-62947619D01*
X153057143Y-62900000D01*
X153152381Y-62852381D01*
X150638095Y-60252381D02*
X150971428Y-61252381D01*
X151304762Y-60252381D01*
X151590476Y-61204762D02*
X151733333Y-61252381D01*
X151971429Y-61252381D01*
X152066667Y-61204762D01*
X152114286Y-61157143D01*
X152161905Y-61061905D01*
X152161905Y-60966667D01*
X152114286Y-60871429D01*
X152066667Y-60823810D01*
X151971429Y-60776190D01*
X151780952Y-60728571D01*
X151685714Y-60680952D01*
X151638095Y-60633333D01*
X151590476Y-60538095D01*
X151590476Y-60442857D01*
X151638095Y-60347619D01*
X151685714Y-60300000D01*
X151780952Y-60252381D01*
X152019048Y-60252381D01*
X152161905Y-60300000D01*
X152780952Y-60776190D02*
X152780952Y-61252381D01*
X152447619Y-60252381D02*
X152780952Y-60776190D01*
X153114286Y-60252381D01*
X153447619Y-61252381D02*
X153447619Y-60252381D01*
X154019048Y-61252381D01*
X154019048Y-60252381D01*
X150785714Y-59052381D02*
X150785714Y-58052381D01*
X150785714Y-58528571D02*
X151357143Y-58528571D01*
X151357143Y-59052381D02*
X151357143Y-58052381D01*
X151785714Y-59004762D02*
X151928571Y-59052381D01*
X152166667Y-59052381D01*
X152261905Y-59004762D01*
X152309524Y-58957143D01*
X152357143Y-58861905D01*
X152357143Y-58766667D01*
X152309524Y-58671429D01*
X152261905Y-58623810D01*
X152166667Y-58576190D01*
X151976190Y-58528571D01*
X151880952Y-58480952D01*
X151833333Y-58433333D01*
X151785714Y-58338095D01*
X151785714Y-58242857D01*
X151833333Y-58147619D01*
X151880952Y-58100000D01*
X151976190Y-58052381D01*
X152214286Y-58052381D01*
X152357143Y-58100000D01*
X152976190Y-58576190D02*
X152976190Y-59052381D01*
X152642857Y-58052381D02*
X152976190Y-58576190D01*
X153309524Y-58052381D01*
X153642857Y-59052381D02*
X153642857Y-58052381D01*
X154214286Y-59052381D01*
X154214286Y-58052381D01*
X151785714Y-91852381D02*
X151785714Y-90852381D01*
X152023809Y-90852381D01*
X152166667Y-90900000D01*
X152261905Y-90995238D01*
X152309524Y-91090476D01*
X152357143Y-91280952D01*
X152357143Y-91423810D01*
X152309524Y-91614286D01*
X152261905Y-91709524D01*
X152166667Y-91804762D01*
X152023809Y-91852381D01*
X151785714Y-91852381D01*
X153309524Y-91852381D02*
X152738095Y-91852381D01*
X153023809Y-91852381D02*
X153023809Y-90852381D01*
X152928571Y-90995238D01*
X152833333Y-91090476D01*
X152738095Y-91138095D01*
X154261905Y-91852381D02*
X153690476Y-91852381D01*
X153976190Y-91852381D02*
X153976190Y-90852381D01*
X153880952Y-90995238D01*
X153785714Y-91090476D01*
X153690476Y-91138095D01*
X151785714Y-94452381D02*
X151785714Y-93452381D01*
X152023809Y-93452381D01*
X152166667Y-93500000D01*
X152261905Y-93595238D01*
X152309524Y-93690476D01*
X152357143Y-93880952D01*
X152357143Y-94023810D01*
X152309524Y-94214286D01*
X152261905Y-94309524D01*
X152166667Y-94404762D01*
X152023809Y-94452381D01*
X151785714Y-94452381D01*
X153309524Y-94452381D02*
X152738095Y-94452381D01*
X153023809Y-94452381D02*
X153023809Y-93452381D01*
X152928571Y-93595238D01*
X152833333Y-93690476D01*
X152738095Y-93738095D01*
X153690476Y-93547619D02*
X153738095Y-93500000D01*
X153833333Y-93452381D01*
X154071429Y-93452381D01*
X154166667Y-93500000D01*
X154214286Y-93547619D01*
X154261905Y-93642857D01*
X154261905Y-93738095D01*
X154214286Y-93880952D01*
X153642857Y-94452381D01*
X154261905Y-94452381D01*
X151885714Y-96952381D02*
X151885714Y-95952381D01*
X152123809Y-95952381D01*
X152266667Y-96000000D01*
X152361905Y-96095238D01*
X152409524Y-96190476D01*
X152457143Y-96380952D01*
X152457143Y-96523810D01*
X152409524Y-96714286D01*
X152361905Y-96809524D01*
X152266667Y-96904762D01*
X152123809Y-96952381D01*
X151885714Y-96952381D01*
X153409524Y-96952381D02*
X152838095Y-96952381D01*
X153123809Y-96952381D02*
X153123809Y-95952381D01*
X153028571Y-96095238D01*
X152933333Y-96190476D01*
X152838095Y-96238095D01*
X153742857Y-95952381D02*
X154361905Y-95952381D01*
X154028571Y-96333333D01*
X154171429Y-96333333D01*
X154266667Y-96380952D01*
X154314286Y-96428571D01*
X154361905Y-96523810D01*
X154361905Y-96761905D01*
X154314286Y-96857143D01*
X154266667Y-96904762D01*
X154171429Y-96952381D01*
X153885714Y-96952381D01*
X153790476Y-96904762D01*
X153742857Y-96857143D01*
X151885714Y-99552381D02*
X151885714Y-98552381D01*
X152123809Y-98552381D01*
X152266667Y-98600000D01*
X152361905Y-98695238D01*
X152409524Y-98790476D01*
X152457143Y-98980952D01*
X152457143Y-99123810D01*
X152409524Y-99314286D01*
X152361905Y-99409524D01*
X152266667Y-99504762D01*
X152123809Y-99552381D01*
X151885714Y-99552381D01*
X153409524Y-99552381D02*
X152838095Y-99552381D01*
X153123809Y-99552381D02*
X153123809Y-98552381D01*
X153028571Y-98695238D01*
X152933333Y-98790476D01*
X152838095Y-98838095D01*
X154266667Y-98885714D02*
X154266667Y-99552381D01*
X154028571Y-98504762D02*
X153790476Y-99219048D01*
X154409524Y-99219048D01*
X151885714Y-102052381D02*
X151885714Y-101052381D01*
X152123809Y-101052381D01*
X152266667Y-101100000D01*
X152361905Y-101195238D01*
X152409524Y-101290476D01*
X152457143Y-101480952D01*
X152457143Y-101623810D01*
X152409524Y-101814286D01*
X152361905Y-101909524D01*
X152266667Y-102004762D01*
X152123809Y-102052381D01*
X151885714Y-102052381D01*
X153409524Y-102052381D02*
X152838095Y-102052381D01*
X153123809Y-102052381D02*
X153123809Y-101052381D01*
X153028571Y-101195238D01*
X152933333Y-101290476D01*
X152838095Y-101338095D01*
X154314286Y-101052381D02*
X153838095Y-101052381D01*
X153790476Y-101528571D01*
X153838095Y-101480952D01*
X153933333Y-101433333D01*
X154171429Y-101433333D01*
X154266667Y-101480952D01*
X154314286Y-101528571D01*
X154361905Y-101623810D01*
X154361905Y-101861905D01*
X154314286Y-101957143D01*
X154266667Y-102004762D01*
X154171429Y-102052381D01*
X153933333Y-102052381D01*
X153838095Y-102004762D01*
X153790476Y-101957143D01*
X151233333Y-104552381D02*
X151233333Y-103552381D01*
X151614286Y-103552381D01*
X151709524Y-103600000D01*
X151757143Y-103647619D01*
X151804762Y-103742857D01*
X151804762Y-103885714D01*
X151757143Y-103980952D01*
X151709524Y-104028571D01*
X151614286Y-104076190D01*
X151233333Y-104076190D01*
X152804762Y-104457143D02*
X152757143Y-104504762D01*
X152614286Y-104552381D01*
X152519048Y-104552381D01*
X152376190Y-104504762D01*
X152280952Y-104409524D01*
X152233333Y-104314286D01*
X152185714Y-104123810D01*
X152185714Y-103980952D01*
X152233333Y-103790476D01*
X152280952Y-103695238D01*
X152376190Y-103600000D01*
X152519048Y-103552381D01*
X152614286Y-103552381D01*
X152757143Y-103600000D01*
X152804762Y-103647619D01*
X153709524Y-104552381D02*
X153233333Y-104552381D01*
X153233333Y-103552381D01*
X154042857Y-104552381D02*
X154042857Y-103552381D01*
X154614286Y-104552381D02*
X154185714Y-103980952D01*
X154614286Y-103552381D02*
X154042857Y-104123810D01*
X152438095Y-106152381D02*
X153009524Y-106152381D01*
X152723809Y-107152381D02*
X152723809Y-106152381D01*
X153247619Y-106152381D02*
X153914286Y-107152381D01*
X153914286Y-106152381D02*
X153247619Y-107152381D01*
X153133334Y-109652381D02*
X152800000Y-109176190D01*
X152561905Y-109652381D02*
X152561905Y-108652381D01*
X152942858Y-108652381D01*
X153038096Y-108700000D01*
X153085715Y-108747619D01*
X153133334Y-108842857D01*
X153133334Y-108985714D01*
X153085715Y-109080952D01*
X153038096Y-109128571D01*
X152942858Y-109176190D01*
X152561905Y-109176190D01*
X153466667Y-108652381D02*
X154133334Y-109652381D01*
X154133334Y-108652381D02*
X153466667Y-109652381D01*
X151661905Y-112252381D02*
X151661905Y-111252381D01*
X152042858Y-111252381D01*
X152138096Y-111300000D01*
X152185715Y-111347619D01*
X152233334Y-111442857D01*
X152233334Y-111585714D01*
X152185715Y-111680952D01*
X152138096Y-111728571D01*
X152042858Y-111776190D01*
X151661905Y-111776190D01*
X152661905Y-111728571D02*
X152995239Y-111728571D01*
X153138096Y-112252381D02*
X152661905Y-112252381D01*
X152661905Y-111252381D01*
X153138096Y-111252381D01*
X153566667Y-112252381D02*
X153566667Y-111252381D01*
X154138096Y-112252381D01*
X154138096Y-111252381D01*
X151414286Y-114371429D02*
X152176191Y-114371429D01*
X151795239Y-114752381D02*
X151795239Y-113990476D01*
X153128572Y-113752381D02*
X152652381Y-113752381D01*
X152604762Y-114228571D01*
X152652381Y-114180952D01*
X152747619Y-114133333D01*
X152985715Y-114133333D01*
X153080953Y-114180952D01*
X153128572Y-114228571D01*
X153176191Y-114323810D01*
X153176191Y-114561905D01*
X153128572Y-114657143D01*
X153080953Y-114704762D01*
X152985715Y-114752381D01*
X152747619Y-114752381D01*
X152652381Y-114704762D01*
X152604762Y-114657143D01*
X153461905Y-113752381D02*
X153795238Y-114752381D01*
X154128572Y-113752381D01*
X152138096Y-116600000D02*
X152042858Y-116552381D01*
X151900001Y-116552381D01*
X151757143Y-116600000D01*
X151661905Y-116695238D01*
X151614286Y-116790476D01*
X151566667Y-116980952D01*
X151566667Y-117123810D01*
X151614286Y-117314286D01*
X151661905Y-117409524D01*
X151757143Y-117504762D01*
X151900001Y-117552381D01*
X151995239Y-117552381D01*
X152138096Y-117504762D01*
X152185715Y-117457143D01*
X152185715Y-117123810D01*
X151995239Y-117123810D01*
X152614286Y-117552381D02*
X152614286Y-116552381D01*
X153185715Y-117552381D01*
X153185715Y-116552381D01*
X153661905Y-117552381D02*
X153661905Y-116552381D01*
X153900000Y-116552381D01*
X154042858Y-116600000D01*
X154138096Y-116695238D01*
X154185715Y-116790476D01*
X154233334Y-116980952D01*
X154233334Y-117123810D01*
X154185715Y-117314286D01*
X154138096Y-117409524D01*
X154042858Y-117504762D01*
X153900000Y-117552381D01*
X153661905Y-117552381D01*
D12*
X150320000Y-117370000D02*
X150320000Y-113770000D01*
X146860000Y-113770000D02*
X146860000Y-117370000D01*
X133000000Y-106080000D02*
X133700000Y-106080000D01*
X133700000Y-107280000D02*
X133000000Y-107280000D01*
X136810000Y-114970000D02*
X137510000Y-114970000D01*
X137510000Y-116170000D02*
X136810000Y-116170000D01*
X128750000Y-106700000D02*
X128750000Y-105700000D01*
X127050000Y-105700000D02*
X127050000Y-106700000D01*
X128500000Y-111350000D02*
X128500000Y-112050000D01*
X127300000Y-112050000D02*
X127300000Y-111350000D01*
X129950000Y-99950000D02*
X129950000Y-103250000D01*
X129950000Y-103250000D02*
X135350000Y-103250000D01*
X129950000Y-99950000D02*
X135350000Y-99950000D01*
D13*
X154940000Y-55880000D02*
X160020000Y-55880000D01*
X160020000Y-55880000D02*
X160020000Y-119380000D01*
X160020000Y-119380000D02*
X154940000Y-119380000D01*
X154940000Y-119380000D02*
X154940000Y-55880000D01*
X144280000Y-101330000D02*
X144280000Y-107330000D01*
X144280000Y-107330000D02*
X139280000Y-107330000D01*
X139280000Y-107330000D02*
X139280000Y-100830000D01*
X139280000Y-100830000D02*
X144280000Y-100830000D01*
X144280000Y-100830000D02*
X144280000Y-101330000D01*
D12*
X149090000Y-59100000D02*
X148090000Y-59100000D01*
X148090000Y-57740000D02*
X149090000Y-57740000D01*
X149090000Y-61640000D02*
X148090000Y-61640000D01*
X148090000Y-60280000D02*
X149090000Y-60280000D01*
X149090000Y-64180000D02*
X148090000Y-64180000D01*
X148090000Y-62820000D02*
X149090000Y-62820000D01*
X149090000Y-66720000D02*
X148090000Y-66720000D01*
X148090000Y-65360000D02*
X149090000Y-65360000D01*
X149090000Y-69260000D02*
X148090000Y-69260000D01*
X148090000Y-67900000D02*
X149090000Y-67900000D01*
X149090000Y-71800000D02*
X148090000Y-71800000D01*
X148090000Y-70440000D02*
X149090000Y-70440000D01*
X149090000Y-76880000D02*
X148090000Y-76880000D01*
X148090000Y-75520000D02*
X149090000Y-75520000D01*
X149090000Y-79420000D02*
X148090000Y-79420000D01*
X148090000Y-78060000D02*
X149090000Y-78060000D01*
X149090000Y-81960000D02*
X148090000Y-81960000D01*
X148090000Y-80600000D02*
X149090000Y-80600000D01*
X149090000Y-84500000D02*
X148090000Y-84500000D01*
X148090000Y-83140000D02*
X149090000Y-83140000D01*
X149090000Y-87040000D02*
X148090000Y-87040000D01*
X148090000Y-85680000D02*
X149090000Y-85680000D01*
X149090000Y-89580000D02*
X148090000Y-89580000D01*
X148090000Y-88220000D02*
X149090000Y-88220000D01*
X149090000Y-92120000D02*
X148090000Y-92120000D01*
X148090000Y-90760000D02*
X149090000Y-90760000D01*
X149090000Y-94660000D02*
X148090000Y-94660000D01*
X148090000Y-93300000D02*
X149090000Y-93300000D01*
X149090000Y-97200000D02*
X148090000Y-97200000D01*
X148090000Y-95840000D02*
X149090000Y-95840000D01*
X149090000Y-99740000D02*
X148090000Y-99740000D01*
X148090000Y-98380000D02*
X149090000Y-98380000D01*
X149090000Y-102280000D02*
X148090000Y-102280000D01*
X148090000Y-100920000D02*
X149090000Y-100920000D01*
X149090000Y-104820000D02*
X148090000Y-104820000D01*
X148090000Y-103460000D02*
X149090000Y-103460000D01*
X149090000Y-107360000D02*
X148090000Y-107360000D01*
X148090000Y-106000000D02*
X149090000Y-106000000D01*
X149090000Y-109900000D02*
X148090000Y-109900000D01*
X148090000Y-108540000D02*
X149090000Y-108540000D01*
X131300000Y-115580000D02*
X130300000Y-115580000D01*
X130300000Y-114220000D02*
X131300000Y-114220000D01*
X130320000Y-110300000D02*
X130320000Y-109300000D01*
X131680000Y-109300000D02*
X131680000Y-110300000D01*
X135920000Y-73390000D02*
X135920000Y-71900000D01*
X135920000Y-71900000D02*
X134580000Y-71900000D01*
X135920000Y-91710000D02*
X135920000Y-93200000D01*
X135920000Y-93200000D02*
X134580000Y-93200000D01*
X131860000Y-71900000D02*
X130120000Y-71900000D01*
X130120000Y-71900000D02*
X130120000Y-93200000D01*
X130120000Y-93200000D02*
X131860000Y-93200000D01*
X135920000Y-73390000D02*
X137120000Y-73390000D01*
X136260000Y-112100000D02*
X138060000Y-112100000D01*
X138060000Y-108880000D02*
X135610000Y-108880000D01*
X149090000Y-74340000D02*
X148090000Y-74340000D01*
X148090000Y-72980000D02*
X149090000Y-72980000D01*
D14*
G36*
X129847822Y-63517822D02*
X126327029Y-63517822D01*
X126327029Y-62650198D01*
X129847822Y-62650198D01*
X129847822Y-63517822D01*
X129847822Y-63517822D01*
G37*
X129847822Y-63517822D02*
X126327029Y-63517822D01*
X126327029Y-62650198D01*
X129847822Y-62650198D01*
X129847822Y-63517822D01*
G36*
X130224430Y-57564848D02*
X130223811Y-57651931D01*
X129772086Y-58110891D01*
X129320361Y-58569852D01*
X129320032Y-58780471D01*
X129319703Y-58991089D01*
X129044610Y-58991089D01*
X129037522Y-59044530D01*
X129034838Y-59068888D01*
X129030313Y-59114759D01*
X129024191Y-59179405D01*
X129016712Y-59260091D01*
X129008119Y-59354081D01*
X128998654Y-59458637D01*
X128988558Y-59571025D01*
X128978074Y-59688507D01*
X128967444Y-59808348D01*
X128956909Y-59927811D01*
X128946713Y-60044159D01*
X128937095Y-60154657D01*
X128928300Y-60256569D01*
X128920568Y-60347158D01*
X128914142Y-60423687D01*
X128909263Y-60483421D01*
X128906175Y-60523624D01*
X128905117Y-60541559D01*
X128905118Y-60541644D01*
X128912827Y-60556035D01*
X128935981Y-60585748D01*
X128974895Y-60631131D01*
X129029884Y-60692529D01*
X129101264Y-60770288D01*
X129189349Y-60864754D01*
X129294454Y-60976272D01*
X129416895Y-61105188D01*
X129451310Y-61141287D01*
X129997137Y-61713416D01*
X129908881Y-61801436D01*
X129837485Y-61723758D01*
X129811366Y-61695686D01*
X129770566Y-61652274D01*
X129717777Y-61596366D01*
X129655691Y-61530808D01*
X129587000Y-61458441D01*
X129514396Y-61382112D01*
X129470960Y-61336524D01*
X129389416Y-61251119D01*
X129323504Y-61182710D01*
X129271544Y-61130053D01*
X129231855Y-61091905D01*
X129202757Y-61067020D01*
X129182569Y-61054156D01*
X129169610Y-61052068D01*
X129162200Y-61059513D01*
X129158658Y-61075246D01*
X129157303Y-61098023D01*
X129157121Y-61104239D01*
X129147703Y-61147061D01*
X129124497Y-61198819D01*
X129092136Y-61251328D01*
X129055252Y-61296403D01*
X129040493Y-61310328D01*
X128964767Y-61359047D01*
X128876308Y-61386306D01*
X128798100Y-61392773D01*
X128709468Y-61380576D01*
X128627612Y-61344813D01*
X128555164Y-61286722D01*
X128541797Y-61272262D01*
X128492918Y-61216733D01*
X127647326Y-61216733D01*
X127647326Y-61392773D01*
X127420990Y-61392773D01*
X127420990Y-61310531D01*
X127418150Y-61254386D01*
X127408607Y-61215416D01*
X127397009Y-61194219D01*
X127388723Y-61179052D01*
X127381627Y-61157062D01*
X127375252Y-61124987D01*
X127369128Y-61079569D01*
X127362784Y-61017548D01*
X127355750Y-60935662D01*
X127350934Y-60874746D01*
X127328839Y-60589343D01*
X126786435Y-61138805D01*
X126688363Y-61238228D01*
X126594216Y-61333815D01*
X126505715Y-61423810D01*
X126424580Y-61506457D01*
X126352531Y-61580001D01*
X126291288Y-61642684D01*
X126242573Y-61692752D01*
X126208104Y-61728448D01*
X126189621Y-61747995D01*
X126159257Y-61778944D01*
X126133929Y-61800530D01*
X126120305Y-61807723D01*
X126102905Y-61799297D01*
X126077540Y-61778245D01*
X126068942Y-61769671D01*
X126032486Y-61731620D01*
X126233198Y-61527658D01*
X126284404Y-61475699D01*
X126350431Y-61408820D01*
X126428382Y-61329950D01*
X126515362Y-61242014D01*
X126608474Y-61147941D01*
X126704821Y-61050658D01*
X126801508Y-60953093D01*
X126870866Y-60883145D01*
X126976297Y-60776550D01*
X127064871Y-60686307D01*
X127137719Y-60611192D01*
X127195977Y-60549986D01*
X127240775Y-60501466D01*
X127262979Y-60476129D01*
X127441276Y-60476129D01*
X127463599Y-60761555D01*
X127470331Y-60845219D01*
X127476843Y-60921727D01*
X127482766Y-60987081D01*
X127487732Y-61037281D01*
X127491371Y-61068329D01*
X127492542Y-61075273D01*
X127499162Y-61103565D01*
X128448636Y-61103565D01*
X128454974Y-61024606D01*
X128474110Y-60931315D01*
X128514154Y-60848791D01*
X128572582Y-60780038D01*
X128646871Y-60728063D01*
X128730252Y-60696863D01*
X128757302Y-60682228D01*
X128770844Y-60650819D01*
X128771128Y-60649434D01*
X128772753Y-60636174D01*
X128770744Y-60622595D01*
X128763142Y-60606181D01*
X128747984Y-60584411D01*
X128723312Y-60554767D01*
X128687164Y-60514732D01*
X128637580Y-60461785D01*
X128572599Y-60393409D01*
X128568401Y-60389005D01*
X128498507Y-60315611D01*
X128424200Y-60237437D01*
X128350586Y-60159864D01*
X128282771Y-60088275D01*
X128225860Y-60028051D01*
X128213168Y-60014587D01*
X128164513Y-59963820D01*
X128121291Y-59920375D01*
X128086605Y-59887241D01*
X128063556Y-59867405D01*
X128055818Y-59863046D01*
X128044278Y-59872170D01*
X128017290Y-59897200D01*
X127976979Y-59936052D01*
X127925471Y-59986643D01*
X127864891Y-60046888D01*
X127797364Y-60114704D01*
X127742174Y-60170565D01*
X127441276Y-60476129D01*
X127262979Y-60476129D01*
X127273249Y-60464411D01*
X127294529Y-60437599D01*
X127305749Y-60419808D01*
X127308246Y-60411570D01*
X127307300Y-60393590D01*
X127304427Y-60352892D01*
X127299813Y-60291819D01*
X127293642Y-60212713D01*
X127286102Y-60117914D01*
X127277379Y-60009767D01*
X127267657Y-59890612D01*
X127257124Y-59762791D01*
X127248635Y-59660635D01*
X127200604Y-59084674D01*
X127324195Y-59084674D01*
X127324727Y-59097104D01*
X127327231Y-59132110D01*
X127331504Y-59187215D01*
X127337347Y-59259943D01*
X127344557Y-59347814D01*
X127352934Y-59448351D01*
X127362277Y-59559077D01*
X127371242Y-59664205D01*
X127381398Y-59783483D01*
X127390858Y-59896080D01*
X127399404Y-59999305D01*
X127406821Y-60090473D01*
X127412892Y-60166895D01*
X127417399Y-60225883D01*
X127420127Y-60264749D01*
X127420884Y-60279844D01*
X127422065Y-60289238D01*
X127426744Y-60292966D01*
X127436724Y-60289471D01*
X127453810Y-60277199D01*
X127479804Y-60254594D01*
X127516510Y-60220100D01*
X127565733Y-60172162D01*
X127629274Y-60109224D01*
X127696695Y-60041968D01*
X127972399Y-59766477D01*
X127970467Y-59764406D01*
X128152710Y-59764406D01*
X128161016Y-59775780D01*
X128184267Y-59802563D01*
X128220135Y-59842292D01*
X128266287Y-59892507D01*
X128320394Y-59950746D01*
X128380126Y-60014547D01*
X128443152Y-60081449D01*
X128507142Y-60148990D01*
X128569764Y-60214710D01*
X128628690Y-60276146D01*
X128681588Y-60330837D01*
X128726128Y-60376322D01*
X128759980Y-60410138D01*
X128780812Y-60429826D01*
X128786494Y-60433837D01*
X128788366Y-60420891D01*
X128792254Y-60385134D01*
X128797943Y-60328804D01*
X128805219Y-60254140D01*
X128813869Y-60163380D01*
X128823678Y-60058762D01*
X128834434Y-59942526D01*
X128845921Y-59816908D01*
X128855093Y-59715618D01*
X128866826Y-59584279D01*
X128877665Y-59460552D01*
X128887430Y-59346681D01*
X128895937Y-59244911D01*
X128903005Y-59157487D01*
X128908451Y-59086653D01*
X128912092Y-59034653D01*
X128913747Y-59003732D01*
X128913558Y-58995703D01*
X128903666Y-59002854D01*
X128878476Y-59025841D01*
X128840190Y-59062439D01*
X128791011Y-59110422D01*
X128733139Y-59167566D01*
X128668778Y-59231647D01*
X128600129Y-59300438D01*
X128529395Y-59371716D01*
X128458778Y-59443255D01*
X128390480Y-59512830D01*
X128326704Y-59578217D01*
X128269650Y-59637191D01*
X128221522Y-59687527D01*
X128184522Y-59726999D01*
X128160852Y-59753383D01*
X128152710Y-59764406D01*
X127970467Y-59764406D01*
X127869591Y-59656295D01*
X127817232Y-59600377D01*
X127758465Y-59537948D01*
X127695615Y-59471443D01*
X127631005Y-59403298D01*
X127566958Y-59335948D01*
X127505797Y-59271828D01*
X127449847Y-59213372D01*
X127401430Y-59163018D01*
X127362870Y-59123198D01*
X127336491Y-59096350D01*
X127324616Y-59084908D01*
X127324195Y-59084674D01*
X127200604Y-59084674D01*
X127188599Y-58940726D01*
X126588062Y-58309158D01*
X125987525Y-57677589D01*
X125987966Y-57589315D01*
X125988408Y-57501040D01*
X126085417Y-57604666D01*
X126139709Y-57662463D01*
X126203808Y-57730368D01*
X126275984Y-57806572D01*
X126354508Y-57889269D01*
X126437651Y-57976653D01*
X126523681Y-58066915D01*
X126610870Y-58158250D01*
X126697487Y-58248849D01*
X126781803Y-58336907D01*
X126862088Y-58420615D01*
X126936613Y-58498167D01*
X127003646Y-58567757D01*
X127061459Y-58627576D01*
X127108321Y-58675818D01*
X127142504Y-58710676D01*
X127162276Y-58730343D01*
X127166610Y-58734116D01*
X127166908Y-58720992D01*
X127165269Y-58687389D01*
X127161977Y-58637880D01*
X127157318Y-58577037D01*
X127155318Y-58552732D01*
X127140423Y-58374951D01*
X127257045Y-58374951D01*
X127263066Y-58403243D01*
X127266137Y-58425618D01*
X127270452Y-58467717D01*
X127275512Y-58524178D01*
X127280819Y-58589635D01*
X127282656Y-58613862D01*
X127288073Y-58683421D01*
X127293541Y-58748018D01*
X127298512Y-58801548D01*
X127302439Y-58837910D01*
X127303325Y-58844509D01*
X127306666Y-58858056D01*
X127313899Y-58873914D01*
X127326560Y-58893861D01*
X127346189Y-58919673D01*
X127374322Y-58953129D01*
X127412498Y-58996007D01*
X127462254Y-59050083D01*
X127525129Y-59117136D01*
X127602659Y-59198943D01*
X127681749Y-59281950D01*
X127760436Y-59364094D01*
X127833888Y-59440169D01*
X127900276Y-59508325D01*
X127957773Y-59566712D01*
X128004549Y-59613481D01*
X128038776Y-59646782D01*
X128058627Y-59664767D01*
X128062860Y-59667442D01*
X128073997Y-59657741D01*
X128100029Y-59632441D01*
X128138430Y-59594082D01*
X128186672Y-59545200D01*
X128242230Y-59488334D01*
X128282408Y-59446906D01*
X128492169Y-59230000D01*
X127873663Y-59230000D01*
X127873663Y-58991089D01*
X128628119Y-58991089D01*
X128628119Y-59097542D01*
X128766435Y-58959654D01*
X128864553Y-58861840D01*
X129055643Y-58861840D01*
X129057471Y-58877270D01*
X129066723Y-58885867D01*
X129089050Y-58889613D01*
X129130105Y-58890489D01*
X129137376Y-58890495D01*
X129219109Y-58890495D01*
X129219109Y-58671172D01*
X129137376Y-58752179D01*
X129091270Y-58801428D01*
X129063694Y-58839159D01*
X129055643Y-58861840D01*
X128864553Y-58861840D01*
X128904752Y-58821766D01*
X128904752Y-58698952D01*
X128905137Y-58642450D01*
X128906900Y-58606505D01*
X128910950Y-58586530D01*
X128918199Y-58577937D01*
X128929130Y-58576139D01*
X128941288Y-58573498D01*
X128950273Y-58562912D01*
X128957174Y-58540381D01*
X128963076Y-58501909D01*
X128969065Y-58443498D01*
X128970987Y-58422104D01*
X128975148Y-58374951D01*
X127257045Y-58374951D01*
X127140423Y-58374951D01*
X126980891Y-58374951D01*
X126980891Y-58261782D01*
X127048686Y-58261782D01*
X127088338Y-58260696D01*
X127109884Y-58255454D01*
X127112520Y-58252334D01*
X127251384Y-58252334D01*
X127258692Y-58259462D01*
X127284007Y-58261662D01*
X127301092Y-58261782D01*
X127358119Y-58261782D01*
X127570779Y-58261782D01*
X128985302Y-58261782D01*
X128937458Y-58212786D01*
X128863150Y-58152324D01*
X128771184Y-58105691D01*
X128660002Y-58072249D01*
X128549529Y-58053753D01*
X128477227Y-58045122D01*
X128477227Y-58136040D01*
X127898812Y-58136040D01*
X127898812Y-58032893D01*
X127813935Y-58041496D01*
X127754632Y-58048756D01*
X127691449Y-58058379D01*
X127653614Y-58065252D01*
X127578168Y-58080407D01*
X127574474Y-58171095D01*
X127570779Y-58261782D01*
X127358119Y-58261782D01*
X127358119Y-58211485D01*
X127356456Y-58179976D01*
X127352303Y-58162463D01*
X127350629Y-58161188D01*
X127332013Y-58169254D01*
X127304817Y-58188820D01*
X127277552Y-58212944D01*
X127258733Y-58234682D01*
X127257057Y-58237508D01*
X127251384Y-58252334D01*
X127112520Y-58252334D01*
X127120338Y-58243081D01*
X127124558Y-58229604D01*
X127141781Y-58194627D01*
X127174862Y-58152579D01*
X127218107Y-58109356D01*
X127265826Y-58070854D01*
X127297170Y-58050801D01*
X127332877Y-58028851D01*
X127351181Y-58010411D01*
X127357612Y-57988668D01*
X127358106Y-57975718D01*
X127358106Y-57972575D01*
X127999406Y-57972575D01*
X127999406Y-58035446D01*
X128376633Y-58035446D01*
X128376633Y-57972575D01*
X127999406Y-57972575D01*
X127358106Y-57972575D01*
X127358119Y-57934852D01*
X127463952Y-57934852D01*
X127512645Y-57936029D01*
X127550595Y-57939165D01*
X127571692Y-57943671D01*
X127573977Y-57945495D01*
X127587359Y-57948295D01*
X127619926Y-57947148D01*
X127666084Y-57942393D01*
X127697624Y-57938003D01*
X127754812Y-57929378D01*
X127807114Y-57921591D01*
X127846418Y-57915847D01*
X127857945Y-57914215D01*
X127888063Y-57904888D01*
X127898812Y-57890272D01*
X127902080Y-57884320D01*
X127913770Y-57879778D01*
X127936712Y-57876470D01*
X127973735Y-57874215D01*
X128027668Y-57872834D01*
X128101340Y-57872150D01*
X128188020Y-57871980D01*
X128280529Y-57872077D01*
X128350906Y-57872530D01*
X128402164Y-57873590D01*
X128437320Y-57875503D01*
X128459389Y-57878519D01*
X128471385Y-57882885D01*
X128476324Y-57888849D01*
X128477227Y-57895784D01*
X128484921Y-57917795D01*
X128510121Y-57930321D01*
X128556009Y-57934788D01*
X128564264Y-57934852D01*
X128641973Y-57942868D01*
X128730233Y-57964936D01*
X128821085Y-57998084D01*
X128906570Y-58039339D01*
X128978726Y-58085731D01*
X128988072Y-58093082D01*
X129018533Y-58116998D01*
X129036572Y-58126576D01*
X129049169Y-58123480D01*
X129062100Y-58110704D01*
X129100293Y-58085678D01*
X129149998Y-58076071D01*
X129203524Y-58081067D01*
X129253178Y-58099851D01*
X129291267Y-58131606D01*
X129294025Y-58135297D01*
X129322526Y-58194575D01*
X129327828Y-58255934D01*
X129310518Y-58314427D01*
X129271180Y-58365104D01*
X129266370Y-58369289D01*
X129238440Y-58389167D01*
X129210102Y-58397921D01*
X129170263Y-58398553D01*
X129160311Y-58397992D01*
X129121332Y-58396562D01*
X129101254Y-58399839D01*
X129093985Y-58409728D01*
X129093240Y-58418961D01*
X129091716Y-58445744D01*
X129087935Y-58486025D01*
X129085218Y-58510124D01*
X129081277Y-58548401D01*
X129082916Y-58567996D01*
X129092421Y-58575158D01*
X129109351Y-58576139D01*
X129119392Y-58572901D01*
X129135590Y-58562420D01*
X129159145Y-58543548D01*
X129191257Y-58515135D01*
X129233128Y-58476035D01*
X129285957Y-58425097D01*
X129350945Y-58361173D01*
X129429291Y-58283114D01*
X129522197Y-58189772D01*
X129630863Y-58079998D01*
X129683231Y-58026952D01*
X130225049Y-57477767D01*
X130224430Y-57564848D01*
X130224430Y-57564848D01*
G37*
X130224430Y-57564848D02*
X130223811Y-57651931D01*
X129772086Y-58110891D01*
X129320361Y-58569852D01*
X129320032Y-58780471D01*
X129319703Y-58991089D01*
X129044610Y-58991089D01*
X129037522Y-59044530D01*
X129034838Y-59068888D01*
X129030313Y-59114759D01*
X129024191Y-59179405D01*
X129016712Y-59260091D01*
X129008119Y-59354081D01*
X128998654Y-59458637D01*
X128988558Y-59571025D01*
X128978074Y-59688507D01*
X128967444Y-59808348D01*
X128956909Y-59927811D01*
X128946713Y-60044159D01*
X128937095Y-60154657D01*
X128928300Y-60256569D01*
X128920568Y-60347158D01*
X128914142Y-60423687D01*
X128909263Y-60483421D01*
X128906175Y-60523624D01*
X128905117Y-60541559D01*
X128905118Y-60541644D01*
X128912827Y-60556035D01*
X128935981Y-60585748D01*
X128974895Y-60631131D01*
X129029884Y-60692529D01*
X129101264Y-60770288D01*
X129189349Y-60864754D01*
X129294454Y-60976272D01*
X129416895Y-61105188D01*
X129451310Y-61141287D01*
X129997137Y-61713416D01*
X129908881Y-61801436D01*
X129837485Y-61723758D01*
X129811366Y-61695686D01*
X129770566Y-61652274D01*
X129717777Y-61596366D01*
X129655691Y-61530808D01*
X129587000Y-61458441D01*
X129514396Y-61382112D01*
X129470960Y-61336524D01*
X129389416Y-61251119D01*
X129323504Y-61182710D01*
X129271544Y-61130053D01*
X129231855Y-61091905D01*
X129202757Y-61067020D01*
X129182569Y-61054156D01*
X129169610Y-61052068D01*
X129162200Y-61059513D01*
X129158658Y-61075246D01*
X129157303Y-61098023D01*
X129157121Y-61104239D01*
X129147703Y-61147061D01*
X129124497Y-61198819D01*
X129092136Y-61251328D01*
X129055252Y-61296403D01*
X129040493Y-61310328D01*
X128964767Y-61359047D01*
X128876308Y-61386306D01*
X128798100Y-61392773D01*
X128709468Y-61380576D01*
X128627612Y-61344813D01*
X128555164Y-61286722D01*
X128541797Y-61272262D01*
X128492918Y-61216733D01*
X127647326Y-61216733D01*
X127647326Y-61392773D01*
X127420990Y-61392773D01*
X127420990Y-61310531D01*
X127418150Y-61254386D01*
X127408607Y-61215416D01*
X127397009Y-61194219D01*
X127388723Y-61179052D01*
X127381627Y-61157062D01*
X127375252Y-61124987D01*
X127369128Y-61079569D01*
X127362784Y-61017548D01*
X127355750Y-60935662D01*
X127350934Y-60874746D01*
X127328839Y-60589343D01*
X126786435Y-61138805D01*
X126688363Y-61238228D01*
X126594216Y-61333815D01*
X126505715Y-61423810D01*
X126424580Y-61506457D01*
X126352531Y-61580001D01*
X126291288Y-61642684D01*
X126242573Y-61692752D01*
X126208104Y-61728448D01*
X126189621Y-61747995D01*
X126159257Y-61778944D01*
X126133929Y-61800530D01*
X126120305Y-61807723D01*
X126102905Y-61799297D01*
X126077540Y-61778245D01*
X126068942Y-61769671D01*
X126032486Y-61731620D01*
X126233198Y-61527658D01*
X126284404Y-61475699D01*
X126350431Y-61408820D01*
X126428382Y-61329950D01*
X126515362Y-61242014D01*
X126608474Y-61147941D01*
X126704821Y-61050658D01*
X126801508Y-60953093D01*
X126870866Y-60883145D01*
X126976297Y-60776550D01*
X127064871Y-60686307D01*
X127137719Y-60611192D01*
X127195977Y-60549986D01*
X127240775Y-60501466D01*
X127262979Y-60476129D01*
X127441276Y-60476129D01*
X127463599Y-60761555D01*
X127470331Y-60845219D01*
X127476843Y-60921727D01*
X127482766Y-60987081D01*
X127487732Y-61037281D01*
X127491371Y-61068329D01*
X127492542Y-61075273D01*
X127499162Y-61103565D01*
X128448636Y-61103565D01*
X128454974Y-61024606D01*
X128474110Y-60931315D01*
X128514154Y-60848791D01*
X128572582Y-60780038D01*
X128646871Y-60728063D01*
X128730252Y-60696863D01*
X128757302Y-60682228D01*
X128770844Y-60650819D01*
X128771128Y-60649434D01*
X128772753Y-60636174D01*
X128770744Y-60622595D01*
X128763142Y-60606181D01*
X128747984Y-60584411D01*
X128723312Y-60554767D01*
X128687164Y-60514732D01*
X128637580Y-60461785D01*
X128572599Y-60393409D01*
X128568401Y-60389005D01*
X128498507Y-60315611D01*
X128424200Y-60237437D01*
X128350586Y-60159864D01*
X128282771Y-60088275D01*
X128225860Y-60028051D01*
X128213168Y-60014587D01*
X128164513Y-59963820D01*
X128121291Y-59920375D01*
X128086605Y-59887241D01*
X128063556Y-59867405D01*
X128055818Y-59863046D01*
X128044278Y-59872170D01*
X128017290Y-59897200D01*
X127976979Y-59936052D01*
X127925471Y-59986643D01*
X127864891Y-60046888D01*
X127797364Y-60114704D01*
X127742174Y-60170565D01*
X127441276Y-60476129D01*
X127262979Y-60476129D01*
X127273249Y-60464411D01*
X127294529Y-60437599D01*
X127305749Y-60419808D01*
X127308246Y-60411570D01*
X127307300Y-60393590D01*
X127304427Y-60352892D01*
X127299813Y-60291819D01*
X127293642Y-60212713D01*
X127286102Y-60117914D01*
X127277379Y-60009767D01*
X127267657Y-59890612D01*
X127257124Y-59762791D01*
X127248635Y-59660635D01*
X127200604Y-59084674D01*
X127324195Y-59084674D01*
X127324727Y-59097104D01*
X127327231Y-59132110D01*
X127331504Y-59187215D01*
X127337347Y-59259943D01*
X127344557Y-59347814D01*
X127352934Y-59448351D01*
X127362277Y-59559077D01*
X127371242Y-59664205D01*
X127381398Y-59783483D01*
X127390858Y-59896080D01*
X127399404Y-59999305D01*
X127406821Y-60090473D01*
X127412892Y-60166895D01*
X127417399Y-60225883D01*
X127420127Y-60264749D01*
X127420884Y-60279844D01*
X127422065Y-60289238D01*
X127426744Y-60292966D01*
X127436724Y-60289471D01*
X127453810Y-60277199D01*
X127479804Y-60254594D01*
X127516510Y-60220100D01*
X127565733Y-60172162D01*
X127629274Y-60109224D01*
X127696695Y-60041968D01*
X127972399Y-59766477D01*
X127970467Y-59764406D01*
X128152710Y-59764406D01*
X128161016Y-59775780D01*
X128184267Y-59802563D01*
X128220135Y-59842292D01*
X128266287Y-59892507D01*
X128320394Y-59950746D01*
X128380126Y-60014547D01*
X128443152Y-60081449D01*
X128507142Y-60148990D01*
X128569764Y-60214710D01*
X128628690Y-60276146D01*
X128681588Y-60330837D01*
X128726128Y-60376322D01*
X128759980Y-60410138D01*
X128780812Y-60429826D01*
X128786494Y-60433837D01*
X128788366Y-60420891D01*
X128792254Y-60385134D01*
X128797943Y-60328804D01*
X128805219Y-60254140D01*
X128813869Y-60163380D01*
X128823678Y-60058762D01*
X128834434Y-59942526D01*
X128845921Y-59816908D01*
X128855093Y-59715618D01*
X128866826Y-59584279D01*
X128877665Y-59460552D01*
X128887430Y-59346681D01*
X128895937Y-59244911D01*
X128903005Y-59157487D01*
X128908451Y-59086653D01*
X128912092Y-59034653D01*
X128913747Y-59003732D01*
X128913558Y-58995703D01*
X128903666Y-59002854D01*
X128878476Y-59025841D01*
X128840190Y-59062439D01*
X128791011Y-59110422D01*
X128733139Y-59167566D01*
X128668778Y-59231647D01*
X128600129Y-59300438D01*
X128529395Y-59371716D01*
X128458778Y-59443255D01*
X128390480Y-59512830D01*
X128326704Y-59578217D01*
X128269650Y-59637191D01*
X128221522Y-59687527D01*
X128184522Y-59726999D01*
X128160852Y-59753383D01*
X128152710Y-59764406D01*
X127970467Y-59764406D01*
X127869591Y-59656295D01*
X127817232Y-59600377D01*
X127758465Y-59537948D01*
X127695615Y-59471443D01*
X127631005Y-59403298D01*
X127566958Y-59335948D01*
X127505797Y-59271828D01*
X127449847Y-59213372D01*
X127401430Y-59163018D01*
X127362870Y-59123198D01*
X127336491Y-59096350D01*
X127324616Y-59084908D01*
X127324195Y-59084674D01*
X127200604Y-59084674D01*
X127188599Y-58940726D01*
X126588062Y-58309158D01*
X125987525Y-57677589D01*
X125987966Y-57589315D01*
X125988408Y-57501040D01*
X126085417Y-57604666D01*
X126139709Y-57662463D01*
X126203808Y-57730368D01*
X126275984Y-57806572D01*
X126354508Y-57889269D01*
X126437651Y-57976653D01*
X126523681Y-58066915D01*
X126610870Y-58158250D01*
X126697487Y-58248849D01*
X126781803Y-58336907D01*
X126862088Y-58420615D01*
X126936613Y-58498167D01*
X127003646Y-58567757D01*
X127061459Y-58627576D01*
X127108321Y-58675818D01*
X127142504Y-58710676D01*
X127162276Y-58730343D01*
X127166610Y-58734116D01*
X127166908Y-58720992D01*
X127165269Y-58687389D01*
X127161977Y-58637880D01*
X127157318Y-58577037D01*
X127155318Y-58552732D01*
X127140423Y-58374951D01*
X127257045Y-58374951D01*
X127263066Y-58403243D01*
X127266137Y-58425618D01*
X127270452Y-58467717D01*
X127275512Y-58524178D01*
X127280819Y-58589635D01*
X127282656Y-58613862D01*
X127288073Y-58683421D01*
X127293541Y-58748018D01*
X127298512Y-58801548D01*
X127302439Y-58837910D01*
X127303325Y-58844509D01*
X127306666Y-58858056D01*
X127313899Y-58873914D01*
X127326560Y-58893861D01*
X127346189Y-58919673D01*
X127374322Y-58953129D01*
X127412498Y-58996007D01*
X127462254Y-59050083D01*
X127525129Y-59117136D01*
X127602659Y-59198943D01*
X127681749Y-59281950D01*
X127760436Y-59364094D01*
X127833888Y-59440169D01*
X127900276Y-59508325D01*
X127957773Y-59566712D01*
X128004549Y-59613481D01*
X128038776Y-59646782D01*
X128058627Y-59664767D01*
X128062860Y-59667442D01*
X128073997Y-59657741D01*
X128100029Y-59632441D01*
X128138430Y-59594082D01*
X128186672Y-59545200D01*
X128242230Y-59488334D01*
X128282408Y-59446906D01*
X128492169Y-59230000D01*
X127873663Y-59230000D01*
X127873663Y-58991089D01*
X128628119Y-58991089D01*
X128628119Y-59097542D01*
X128766435Y-58959654D01*
X128864553Y-58861840D01*
X129055643Y-58861840D01*
X129057471Y-58877270D01*
X129066723Y-58885867D01*
X129089050Y-58889613D01*
X129130105Y-58890489D01*
X129137376Y-58890495D01*
X129219109Y-58890495D01*
X129219109Y-58671172D01*
X129137376Y-58752179D01*
X129091270Y-58801428D01*
X129063694Y-58839159D01*
X129055643Y-58861840D01*
X128864553Y-58861840D01*
X128904752Y-58821766D01*
X128904752Y-58698952D01*
X128905137Y-58642450D01*
X128906900Y-58606505D01*
X128910950Y-58586530D01*
X128918199Y-58577937D01*
X128929130Y-58576139D01*
X128941288Y-58573498D01*
X128950273Y-58562912D01*
X128957174Y-58540381D01*
X128963076Y-58501909D01*
X128969065Y-58443498D01*
X128970987Y-58422104D01*
X128975148Y-58374951D01*
X127257045Y-58374951D01*
X127140423Y-58374951D01*
X126980891Y-58374951D01*
X126980891Y-58261782D01*
X127048686Y-58261782D01*
X127088338Y-58260696D01*
X127109884Y-58255454D01*
X127112520Y-58252334D01*
X127251384Y-58252334D01*
X127258692Y-58259462D01*
X127284007Y-58261662D01*
X127301092Y-58261782D01*
X127358119Y-58261782D01*
X127570779Y-58261782D01*
X128985302Y-58261782D01*
X128937458Y-58212786D01*
X128863150Y-58152324D01*
X128771184Y-58105691D01*
X128660002Y-58072249D01*
X128549529Y-58053753D01*
X128477227Y-58045122D01*
X128477227Y-58136040D01*
X127898812Y-58136040D01*
X127898812Y-58032893D01*
X127813935Y-58041496D01*
X127754632Y-58048756D01*
X127691449Y-58058379D01*
X127653614Y-58065252D01*
X127578168Y-58080407D01*
X127574474Y-58171095D01*
X127570779Y-58261782D01*
X127358119Y-58261782D01*
X127358119Y-58211485D01*
X127356456Y-58179976D01*
X127352303Y-58162463D01*
X127350629Y-58161188D01*
X127332013Y-58169254D01*
X127304817Y-58188820D01*
X127277552Y-58212944D01*
X127258733Y-58234682D01*
X127257057Y-58237508D01*
X127251384Y-58252334D01*
X127112520Y-58252334D01*
X127120338Y-58243081D01*
X127124558Y-58229604D01*
X127141781Y-58194627D01*
X127174862Y-58152579D01*
X127218107Y-58109356D01*
X127265826Y-58070854D01*
X127297170Y-58050801D01*
X127332877Y-58028851D01*
X127351181Y-58010411D01*
X127357612Y-57988668D01*
X127358106Y-57975718D01*
X127358106Y-57972575D01*
X127999406Y-57972575D01*
X127999406Y-58035446D01*
X128376633Y-58035446D01*
X128376633Y-57972575D01*
X127999406Y-57972575D01*
X127358106Y-57972575D01*
X127358119Y-57934852D01*
X127463952Y-57934852D01*
X127512645Y-57936029D01*
X127550595Y-57939165D01*
X127571692Y-57943671D01*
X127573977Y-57945495D01*
X127587359Y-57948295D01*
X127619926Y-57947148D01*
X127666084Y-57942393D01*
X127697624Y-57938003D01*
X127754812Y-57929378D01*
X127807114Y-57921591D01*
X127846418Y-57915847D01*
X127857945Y-57914215D01*
X127888063Y-57904888D01*
X127898812Y-57890272D01*
X127902080Y-57884320D01*
X127913770Y-57879778D01*
X127936712Y-57876470D01*
X127973735Y-57874215D01*
X128027668Y-57872834D01*
X128101340Y-57872150D01*
X128188020Y-57871980D01*
X128280529Y-57872077D01*
X128350906Y-57872530D01*
X128402164Y-57873590D01*
X128437320Y-57875503D01*
X128459389Y-57878519D01*
X128471385Y-57882885D01*
X128476324Y-57888849D01*
X128477227Y-57895784D01*
X128484921Y-57917795D01*
X128510121Y-57930321D01*
X128556009Y-57934788D01*
X128564264Y-57934852D01*
X128641973Y-57942868D01*
X128730233Y-57964936D01*
X128821085Y-57998084D01*
X128906570Y-58039339D01*
X128978726Y-58085731D01*
X128988072Y-58093082D01*
X129018533Y-58116998D01*
X129036572Y-58126576D01*
X129049169Y-58123480D01*
X129062100Y-58110704D01*
X129100293Y-58085678D01*
X129149998Y-58076071D01*
X129203524Y-58081067D01*
X129253178Y-58099851D01*
X129291267Y-58131606D01*
X129294025Y-58135297D01*
X129322526Y-58194575D01*
X129327828Y-58255934D01*
X129310518Y-58314427D01*
X129271180Y-58365104D01*
X129266370Y-58369289D01*
X129238440Y-58389167D01*
X129210102Y-58397921D01*
X129170263Y-58398553D01*
X129160311Y-58397992D01*
X129121332Y-58396562D01*
X129101254Y-58399839D01*
X129093985Y-58409728D01*
X129093240Y-58418961D01*
X129091716Y-58445744D01*
X129087935Y-58486025D01*
X129085218Y-58510124D01*
X129081277Y-58548401D01*
X129082916Y-58567996D01*
X129092421Y-58575158D01*
X129109351Y-58576139D01*
X129119392Y-58572901D01*
X129135590Y-58562420D01*
X129159145Y-58543548D01*
X129191257Y-58515135D01*
X129233128Y-58476035D01*
X129285957Y-58425097D01*
X129350945Y-58361173D01*
X129429291Y-58283114D01*
X129522197Y-58189772D01*
X129630863Y-58079998D01*
X129683231Y-58026952D01*
X130225049Y-57477767D01*
X130224430Y-57564848D01*
G36*
X132644257Y-57673689D02*
X132908780Y-57673725D01*
X133031912Y-57673730D01*
X135002811Y-57673730D01*
X135002811Y-57789910D01*
X135015211Y-57931291D01*
X135052636Y-58061684D01*
X135115423Y-58181862D01*
X135203906Y-58292602D01*
X135233843Y-58322511D01*
X135341534Y-58407348D01*
X135460275Y-58469221D01*
X135586540Y-58508159D01*
X135716803Y-58524190D01*
X135847535Y-58517342D01*
X135975212Y-58487643D01*
X136096305Y-58435120D01*
X136207288Y-58359803D01*
X136257132Y-58314363D01*
X136350017Y-58202952D01*
X136418127Y-58080435D01*
X136460871Y-57948215D01*
X136477653Y-57807692D01*
X136477876Y-57793867D01*
X136478756Y-57673734D01*
X136531557Y-57673732D01*
X136578396Y-57680089D01*
X136621183Y-57695556D01*
X136624011Y-57697154D01*
X136633675Y-57702168D01*
X136642549Y-57706073D01*
X136650665Y-57710007D01*
X136658057Y-57715106D01*
X136664755Y-57722508D01*
X136670792Y-57733351D01*
X136676199Y-57748772D01*
X136681010Y-57769909D01*
X136685255Y-57797899D01*
X136688968Y-57833879D01*
X136692179Y-57878987D01*
X136694922Y-57934360D01*
X136697228Y-58001137D01*
X136699129Y-58080453D01*
X136700658Y-58173447D01*
X136701846Y-58281257D01*
X136702726Y-58405019D01*
X136703330Y-58545871D01*
X136703689Y-58704950D01*
X136703835Y-58883395D01*
X136703802Y-59082342D01*
X136703620Y-59302929D01*
X136703323Y-59546293D01*
X136702941Y-59813572D01*
X136702508Y-60105903D01*
X136702055Y-60424424D01*
X136702002Y-60463230D01*
X136701596Y-60783782D01*
X136701251Y-61078012D01*
X136700931Y-61347056D01*
X136700600Y-61592052D01*
X136700221Y-61814137D01*
X136699757Y-62014447D01*
X136699172Y-62194119D01*
X136698430Y-62354290D01*
X136697494Y-62496098D01*
X136696327Y-62620679D01*
X136694893Y-62729170D01*
X136693156Y-62822707D01*
X136691078Y-62902429D01*
X136688624Y-62969472D01*
X136685756Y-63024973D01*
X136682439Y-63070068D01*
X136678636Y-63105895D01*
X136674310Y-63133591D01*
X136669425Y-63154293D01*
X136663945Y-63169137D01*
X136657832Y-63179260D01*
X136651050Y-63185800D01*
X136643563Y-63189893D01*
X136635334Y-63192676D01*
X136626327Y-63195287D01*
X136616505Y-63198862D01*
X136614106Y-63199950D01*
X136606565Y-63202396D01*
X136593944Y-63204642D01*
X136575141Y-63206698D01*
X136549053Y-63208572D01*
X136514578Y-63210271D01*
X136470615Y-63211803D01*
X136416061Y-63213177D01*
X136349815Y-63214400D01*
X136270774Y-63215481D01*
X136177837Y-63216427D01*
X136069901Y-63217247D01*
X135945864Y-63217947D01*
X135804624Y-63218538D01*
X135645079Y-63219025D01*
X135466128Y-63219419D01*
X135266668Y-63219725D01*
X135045596Y-63219953D01*
X134801812Y-63220110D01*
X134534213Y-63220205D01*
X134241697Y-63220245D01*
X133923161Y-63220238D01*
X133819979Y-63220228D01*
X133494377Y-63220176D01*
X133195119Y-63220091D01*
X132921091Y-63219963D01*
X132671176Y-63219785D01*
X132444260Y-63219548D01*
X132239227Y-63219242D01*
X132054962Y-63218860D01*
X131890350Y-63218392D01*
X131744275Y-63217830D01*
X131615624Y-63217165D01*
X131503279Y-63216388D01*
X131406126Y-63215491D01*
X131323050Y-63214465D01*
X131252936Y-63213301D01*
X131194668Y-63211991D01*
X131147131Y-63210525D01*
X131109210Y-63208896D01*
X131079790Y-63207093D01*
X131057755Y-63205110D01*
X131041990Y-63202936D01*
X131031380Y-63200563D01*
X131025596Y-63198391D01*
X131015316Y-63194056D01*
X131005878Y-63190859D01*
X130997245Y-63187665D01*
X130989381Y-63183338D01*
X130982252Y-63176744D01*
X130975821Y-63166747D01*
X130970053Y-63152212D01*
X130964911Y-63132003D01*
X130960360Y-63104985D01*
X130956365Y-63070023D01*
X130952889Y-63025981D01*
X130949898Y-62971724D01*
X130947354Y-62906117D01*
X130945223Y-62828024D01*
X130943468Y-62736310D01*
X130942055Y-62629840D01*
X130941685Y-62588973D01*
X131308116Y-62588973D01*
X132603266Y-62588973D01*
X132578345Y-62551217D01*
X132553553Y-62512417D01*
X132532560Y-62475469D01*
X132515065Y-62437788D01*
X132500770Y-62396788D01*
X132489377Y-62349883D01*
X132480587Y-62294487D01*
X132474102Y-62228016D01*
X132469623Y-62147883D01*
X132466850Y-62051502D01*
X132465487Y-61936289D01*
X132465233Y-61799657D01*
X132465791Y-61639020D01*
X132466107Y-61579382D01*
X132469675Y-60940041D01*
X132874702Y-61491449D01*
X132989446Y-61647876D01*
X133088857Y-61784088D01*
X133174010Y-61901890D01*
X133245978Y-62003084D01*
X133305834Y-62089477D01*
X133354652Y-62162874D01*
X133393505Y-62225077D01*
X133423466Y-62277893D01*
X133445609Y-62323125D01*
X133461007Y-62362578D01*
X133470734Y-62398058D01*
X133475863Y-62431368D01*
X133477468Y-62464313D01*
X133476621Y-62498697D01*
X133476405Y-62503019D01*
X133471946Y-62589031D01*
X134891308Y-62588973D01*
X134785735Y-62482522D01*
X134757087Y-62453406D01*
X134729910Y-62425076D01*
X134703011Y-62395968D01*
X134675197Y-62364520D01*
X134645275Y-62329169D01*
X134612054Y-62288354D01*
X134574339Y-62240511D01*
X134530940Y-62184079D01*
X134480662Y-62117494D01*
X134422312Y-62039195D01*
X134354700Y-61947619D01*
X134276631Y-61841204D01*
X134186912Y-61718387D01*
X134084352Y-61577605D01*
X133967758Y-61417297D01*
X133872191Y-61285798D01*
X133752251Y-61120596D01*
X133647620Y-60976152D01*
X133557352Y-60851094D01*
X133480497Y-60744052D01*
X133416109Y-60653654D01*
X133363239Y-60578529D01*
X133320940Y-60517304D01*
X133288264Y-60468610D01*
X133264262Y-60431074D01*
X133247987Y-60403325D01*
X133238492Y-60383992D01*
X133234827Y-60371703D01*
X133235929Y-60365242D01*
X133249276Y-60348048D01*
X133278134Y-60311655D01*
X133320760Y-60258224D01*
X133375415Y-60189919D01*
X133440356Y-60108903D01*
X133513842Y-60017340D01*
X133594132Y-59917392D01*
X133679485Y-59811224D01*
X133768160Y-59700997D01*
X133858414Y-59588876D01*
X133908056Y-59527244D01*
X135140627Y-59527244D01*
X135191854Y-59619919D01*
X135243081Y-59712595D01*
X135243081Y-62403622D01*
X135191854Y-62496298D01*
X135140627Y-62588973D01*
X135746604Y-62588973D01*
X135891266Y-62588931D01*
X136010756Y-62588741D01*
X136107358Y-62588308D01*
X136183358Y-62587536D01*
X136241043Y-62586330D01*
X136282699Y-62584594D01*
X136310611Y-62582232D01*
X136327065Y-62579150D01*
X136334348Y-62575251D01*
X136334745Y-62570440D01*
X136330542Y-62564622D01*
X136330499Y-62564574D01*
X136313187Y-62539532D01*
X136290264Y-62498815D01*
X136270019Y-62458168D01*
X136231621Y-62376162D01*
X136223789Y-59527244D01*
X135140627Y-59527244D01*
X133908056Y-59527244D01*
X133948507Y-59477024D01*
X134036698Y-59367604D01*
X134121246Y-59262778D01*
X134200408Y-59164711D01*
X134272444Y-59075566D01*
X134335613Y-58997505D01*
X134388173Y-58932692D01*
X134428383Y-58883290D01*
X134452000Y-58854487D01*
X134543710Y-58746778D01*
X134631940Y-58649580D01*
X134713597Y-58566076D01*
X134785590Y-58499448D01*
X134836681Y-58458599D01*
X134897093Y-58415135D01*
X133507702Y-58415135D01*
X133508092Y-58496666D01*
X133504209Y-58556606D01*
X133489610Y-58612177D01*
X133467012Y-58664855D01*
X133452322Y-58694615D01*
X133436528Y-58724103D01*
X133418186Y-58755276D01*
X133395855Y-58790093D01*
X133368091Y-58830510D01*
X133333451Y-58878486D01*
X133290493Y-58935978D01*
X133237773Y-59004943D01*
X133173849Y-59087339D01*
X133097279Y-59185124D01*
X133006619Y-59300255D01*
X132900426Y-59434690D01*
X132888432Y-59449859D01*
X132469675Y-59979412D01*
X132465622Y-59392922D01*
X132464805Y-59217251D01*
X132464979Y-59068532D01*
X132466151Y-58946275D01*
X132468331Y-58849989D01*
X132471526Y-58779183D01*
X132475744Y-58733369D01*
X132477162Y-58724679D01*
X132499409Y-58633135D01*
X132528557Y-58550608D01*
X132561818Y-58484253D01*
X132581800Y-58456110D01*
X132616278Y-58415135D01*
X131962086Y-58415135D01*
X131806031Y-58415269D01*
X131675533Y-58415703D01*
X131568690Y-58416489D01*
X131483602Y-58417676D01*
X131418365Y-58419317D01*
X131371079Y-58421461D01*
X131339843Y-58424159D01*
X131322754Y-58427462D01*
X131317912Y-58431421D01*
X131318247Y-58432298D01*
X131332115Y-58453231D01*
X131355268Y-58486412D01*
X131367246Y-58503193D01*
X131379631Y-58519940D01*
X131390763Y-58534915D01*
X131400712Y-58549594D01*
X131409549Y-58565449D01*
X131417343Y-58583955D01*
X131424165Y-58606585D01*
X131430084Y-58634813D01*
X131435171Y-58670113D01*
X131439496Y-58713958D01*
X131443129Y-58767822D01*
X131446140Y-58833180D01*
X131448599Y-58911504D01*
X131450577Y-59004268D01*
X131452142Y-59112947D01*
X131453366Y-59239013D01*
X131454319Y-59383942D01*
X131455070Y-59549206D01*
X131455689Y-59736279D01*
X131456248Y-59946635D01*
X131456815Y-60181748D01*
X131457345Y-60397741D01*
X131457845Y-60638535D01*
X131458105Y-60868274D01*
X131458132Y-61085493D01*
X131457933Y-61288722D01*
X131457514Y-61476496D01*
X131456882Y-61647345D01*
X131456044Y-61799803D01*
X131455008Y-61932403D01*
X131453780Y-62043676D01*
X131452367Y-62132156D01*
X131450775Y-62196375D01*
X131449013Y-62234865D01*
X131448679Y-62238933D01*
X131436534Y-62332248D01*
X131417573Y-62407190D01*
X131388698Y-62472594D01*
X131346810Y-62537293D01*
X131341571Y-62544352D01*
X131308116Y-62588973D01*
X130941685Y-62588973D01*
X130940946Y-62507479D01*
X130940107Y-62368090D01*
X130939502Y-62210539D01*
X130939095Y-62033691D01*
X130938850Y-61836410D01*
X130938733Y-61617560D01*
X130938705Y-61376007D01*
X130938733Y-61110615D01*
X130938780Y-60820249D01*
X130938810Y-60503773D01*
X130938811Y-60440946D01*
X130938828Y-60121137D01*
X130938888Y-59827661D01*
X130938998Y-59559390D01*
X130939167Y-59315198D01*
X130939403Y-59093957D01*
X130939716Y-58894540D01*
X130940115Y-58715820D01*
X130940607Y-58556671D01*
X130941203Y-58415966D01*
X130941910Y-58292576D01*
X130942737Y-58185376D01*
X130943693Y-58093238D01*
X130944787Y-58015035D01*
X130946027Y-57949641D01*
X130947422Y-57895928D01*
X130948982Y-57852769D01*
X130950714Y-57819037D01*
X130952628Y-57793605D01*
X130954732Y-57775347D01*
X130957034Y-57763134D01*
X130959545Y-57755841D01*
X130959637Y-57755659D01*
X130964808Y-57744518D01*
X130969115Y-57734431D01*
X130973879Y-57725346D01*
X130980422Y-57717212D01*
X130990065Y-57709976D01*
X131004129Y-57703586D01*
X131023937Y-57697989D01*
X131050809Y-57693133D01*
X131086067Y-57688966D01*
X131131032Y-57685436D01*
X131187026Y-57682491D01*
X131255371Y-57680077D01*
X131337386Y-57678144D01*
X131434395Y-57676638D01*
X131547718Y-57675508D01*
X131678677Y-57674702D01*
X131828593Y-57674166D01*
X131998787Y-57673849D01*
X132190582Y-57673699D01*
X132405298Y-57673663D01*
X132644257Y-57673689D01*
X132644257Y-57673689D01*
G37*
X132644257Y-57673689D02*
X132908780Y-57673725D01*
X133031912Y-57673730D01*
X135002811Y-57673730D01*
X135002811Y-57789910D01*
X135015211Y-57931291D01*
X135052636Y-58061684D01*
X135115423Y-58181862D01*
X135203906Y-58292602D01*
X135233843Y-58322511D01*
X135341534Y-58407348D01*
X135460275Y-58469221D01*
X135586540Y-58508159D01*
X135716803Y-58524190D01*
X135847535Y-58517342D01*
X135975212Y-58487643D01*
X136096305Y-58435120D01*
X136207288Y-58359803D01*
X136257132Y-58314363D01*
X136350017Y-58202952D01*
X136418127Y-58080435D01*
X136460871Y-57948215D01*
X136477653Y-57807692D01*
X136477876Y-57793867D01*
X136478756Y-57673734D01*
X136531557Y-57673732D01*
X136578396Y-57680089D01*
X136621183Y-57695556D01*
X136624011Y-57697154D01*
X136633675Y-57702168D01*
X136642549Y-57706073D01*
X136650665Y-57710007D01*
X136658057Y-57715106D01*
X136664755Y-57722508D01*
X136670792Y-57733351D01*
X136676199Y-57748772D01*
X136681010Y-57769909D01*
X136685255Y-57797899D01*
X136688968Y-57833879D01*
X136692179Y-57878987D01*
X136694922Y-57934360D01*
X136697228Y-58001137D01*
X136699129Y-58080453D01*
X136700658Y-58173447D01*
X136701846Y-58281257D01*
X136702726Y-58405019D01*
X136703330Y-58545871D01*
X136703689Y-58704950D01*
X136703835Y-58883395D01*
X136703802Y-59082342D01*
X136703620Y-59302929D01*
X136703323Y-59546293D01*
X136702941Y-59813572D01*
X136702508Y-60105903D01*
X136702055Y-60424424D01*
X136702002Y-60463230D01*
X136701596Y-60783782D01*
X136701251Y-61078012D01*
X136700931Y-61347056D01*
X136700600Y-61592052D01*
X136700221Y-61814137D01*
X136699757Y-62014447D01*
X136699172Y-62194119D01*
X136698430Y-62354290D01*
X136697494Y-62496098D01*
X136696327Y-62620679D01*
X136694893Y-62729170D01*
X136693156Y-62822707D01*
X136691078Y-62902429D01*
X136688624Y-62969472D01*
X136685756Y-63024973D01*
X136682439Y-63070068D01*
X136678636Y-63105895D01*
X136674310Y-63133591D01*
X136669425Y-63154293D01*
X136663945Y-63169137D01*
X136657832Y-63179260D01*
X136651050Y-63185800D01*
X136643563Y-63189893D01*
X136635334Y-63192676D01*
X136626327Y-63195287D01*
X136616505Y-63198862D01*
X136614106Y-63199950D01*
X136606565Y-63202396D01*
X136593944Y-63204642D01*
X136575141Y-63206698D01*
X136549053Y-63208572D01*
X136514578Y-63210271D01*
X136470615Y-63211803D01*
X136416061Y-63213177D01*
X136349815Y-63214400D01*
X136270774Y-63215481D01*
X136177837Y-63216427D01*
X136069901Y-63217247D01*
X135945864Y-63217947D01*
X135804624Y-63218538D01*
X135645079Y-63219025D01*
X135466128Y-63219419D01*
X135266668Y-63219725D01*
X135045596Y-63219953D01*
X134801812Y-63220110D01*
X134534213Y-63220205D01*
X134241697Y-63220245D01*
X133923161Y-63220238D01*
X133819979Y-63220228D01*
X133494377Y-63220176D01*
X133195119Y-63220091D01*
X132921091Y-63219963D01*
X132671176Y-63219785D01*
X132444260Y-63219548D01*
X132239227Y-63219242D01*
X132054962Y-63218860D01*
X131890350Y-63218392D01*
X131744275Y-63217830D01*
X131615624Y-63217165D01*
X131503279Y-63216388D01*
X131406126Y-63215491D01*
X131323050Y-63214465D01*
X131252936Y-63213301D01*
X131194668Y-63211991D01*
X131147131Y-63210525D01*
X131109210Y-63208896D01*
X131079790Y-63207093D01*
X131057755Y-63205110D01*
X131041990Y-63202936D01*
X131031380Y-63200563D01*
X131025596Y-63198391D01*
X131015316Y-63194056D01*
X131005878Y-63190859D01*
X130997245Y-63187665D01*
X130989381Y-63183338D01*
X130982252Y-63176744D01*
X130975821Y-63166747D01*
X130970053Y-63152212D01*
X130964911Y-63132003D01*
X130960360Y-63104985D01*
X130956365Y-63070023D01*
X130952889Y-63025981D01*
X130949898Y-62971724D01*
X130947354Y-62906117D01*
X130945223Y-62828024D01*
X130943468Y-62736310D01*
X130942055Y-62629840D01*
X130941685Y-62588973D01*
X131308116Y-62588973D01*
X132603266Y-62588973D01*
X132578345Y-62551217D01*
X132553553Y-62512417D01*
X132532560Y-62475469D01*
X132515065Y-62437788D01*
X132500770Y-62396788D01*
X132489377Y-62349883D01*
X132480587Y-62294487D01*
X132474102Y-62228016D01*
X132469623Y-62147883D01*
X132466850Y-62051502D01*
X132465487Y-61936289D01*
X132465233Y-61799657D01*
X132465791Y-61639020D01*
X132466107Y-61579382D01*
X132469675Y-60940041D01*
X132874702Y-61491449D01*
X132989446Y-61647876D01*
X133088857Y-61784088D01*
X133174010Y-61901890D01*
X133245978Y-62003084D01*
X133305834Y-62089477D01*
X133354652Y-62162874D01*
X133393505Y-62225077D01*
X133423466Y-62277893D01*
X133445609Y-62323125D01*
X133461007Y-62362578D01*
X133470734Y-62398058D01*
X133475863Y-62431368D01*
X133477468Y-62464313D01*
X133476621Y-62498697D01*
X133476405Y-62503019D01*
X133471946Y-62589031D01*
X134891308Y-62588973D01*
X134785735Y-62482522D01*
X134757087Y-62453406D01*
X134729910Y-62425076D01*
X134703011Y-62395968D01*
X134675197Y-62364520D01*
X134645275Y-62329169D01*
X134612054Y-62288354D01*
X134574339Y-62240511D01*
X134530940Y-62184079D01*
X134480662Y-62117494D01*
X134422312Y-62039195D01*
X134354700Y-61947619D01*
X134276631Y-61841204D01*
X134186912Y-61718387D01*
X134084352Y-61577605D01*
X133967758Y-61417297D01*
X133872191Y-61285798D01*
X133752251Y-61120596D01*
X133647620Y-60976152D01*
X133557352Y-60851094D01*
X133480497Y-60744052D01*
X133416109Y-60653654D01*
X133363239Y-60578529D01*
X133320940Y-60517304D01*
X133288264Y-60468610D01*
X133264262Y-60431074D01*
X133247987Y-60403325D01*
X133238492Y-60383992D01*
X133234827Y-60371703D01*
X133235929Y-60365242D01*
X133249276Y-60348048D01*
X133278134Y-60311655D01*
X133320760Y-60258224D01*
X133375415Y-60189919D01*
X133440356Y-60108903D01*
X133513842Y-60017340D01*
X133594132Y-59917392D01*
X133679485Y-59811224D01*
X133768160Y-59700997D01*
X133858414Y-59588876D01*
X133908056Y-59527244D01*
X135140627Y-59527244D01*
X135191854Y-59619919D01*
X135243081Y-59712595D01*
X135243081Y-62403622D01*
X135191854Y-62496298D01*
X135140627Y-62588973D01*
X135746604Y-62588973D01*
X135891266Y-62588931D01*
X136010756Y-62588741D01*
X136107358Y-62588308D01*
X136183358Y-62587536D01*
X136241043Y-62586330D01*
X136282699Y-62584594D01*
X136310611Y-62582232D01*
X136327065Y-62579150D01*
X136334348Y-62575251D01*
X136334745Y-62570440D01*
X136330542Y-62564622D01*
X136330499Y-62564574D01*
X136313187Y-62539532D01*
X136290264Y-62498815D01*
X136270019Y-62458168D01*
X136231621Y-62376162D01*
X136223789Y-59527244D01*
X135140627Y-59527244D01*
X133908056Y-59527244D01*
X133948507Y-59477024D01*
X134036698Y-59367604D01*
X134121246Y-59262778D01*
X134200408Y-59164711D01*
X134272444Y-59075566D01*
X134335613Y-58997505D01*
X134388173Y-58932692D01*
X134428383Y-58883290D01*
X134452000Y-58854487D01*
X134543710Y-58746778D01*
X134631940Y-58649580D01*
X134713597Y-58566076D01*
X134785590Y-58499448D01*
X134836681Y-58458599D01*
X134897093Y-58415135D01*
X133507702Y-58415135D01*
X133508092Y-58496666D01*
X133504209Y-58556606D01*
X133489610Y-58612177D01*
X133467012Y-58664855D01*
X133452322Y-58694615D01*
X133436528Y-58724103D01*
X133418186Y-58755276D01*
X133395855Y-58790093D01*
X133368091Y-58830510D01*
X133333451Y-58878486D01*
X133290493Y-58935978D01*
X133237773Y-59004943D01*
X133173849Y-59087339D01*
X133097279Y-59185124D01*
X133006619Y-59300255D01*
X132900426Y-59434690D01*
X132888432Y-59449859D01*
X132469675Y-59979412D01*
X132465622Y-59392922D01*
X132464805Y-59217251D01*
X132464979Y-59068532D01*
X132466151Y-58946275D01*
X132468331Y-58849989D01*
X132471526Y-58779183D01*
X132475744Y-58733369D01*
X132477162Y-58724679D01*
X132499409Y-58633135D01*
X132528557Y-58550608D01*
X132561818Y-58484253D01*
X132581800Y-58456110D01*
X132616278Y-58415135D01*
X131962086Y-58415135D01*
X131806031Y-58415269D01*
X131675533Y-58415703D01*
X131568690Y-58416489D01*
X131483602Y-58417676D01*
X131418365Y-58419317D01*
X131371079Y-58421461D01*
X131339843Y-58424159D01*
X131322754Y-58427462D01*
X131317912Y-58431421D01*
X131318247Y-58432298D01*
X131332115Y-58453231D01*
X131355268Y-58486412D01*
X131367246Y-58503193D01*
X131379631Y-58519940D01*
X131390763Y-58534915D01*
X131400712Y-58549594D01*
X131409549Y-58565449D01*
X131417343Y-58583955D01*
X131424165Y-58606585D01*
X131430084Y-58634813D01*
X131435171Y-58670113D01*
X131439496Y-58713958D01*
X131443129Y-58767822D01*
X131446140Y-58833180D01*
X131448599Y-58911504D01*
X131450577Y-59004268D01*
X131452142Y-59112947D01*
X131453366Y-59239013D01*
X131454319Y-59383942D01*
X131455070Y-59549206D01*
X131455689Y-59736279D01*
X131456248Y-59946635D01*
X131456815Y-60181748D01*
X131457345Y-60397741D01*
X131457845Y-60638535D01*
X131458105Y-60868274D01*
X131458132Y-61085493D01*
X131457933Y-61288722D01*
X131457514Y-61476496D01*
X131456882Y-61647345D01*
X131456044Y-61799803D01*
X131455008Y-61932403D01*
X131453780Y-62043676D01*
X131452367Y-62132156D01*
X131450775Y-62196375D01*
X131449013Y-62234865D01*
X131448679Y-62238933D01*
X131436534Y-62332248D01*
X131417573Y-62407190D01*
X131388698Y-62472594D01*
X131346810Y-62537293D01*
X131341571Y-62544352D01*
X131308116Y-62588973D01*
X130941685Y-62588973D01*
X130940946Y-62507479D01*
X130940107Y-62368090D01*
X130939502Y-62210539D01*
X130939095Y-62033691D01*
X130938850Y-61836410D01*
X130938733Y-61617560D01*
X130938705Y-61376007D01*
X130938733Y-61110615D01*
X130938780Y-60820249D01*
X130938810Y-60503773D01*
X130938811Y-60440946D01*
X130938828Y-60121137D01*
X130938888Y-59827661D01*
X130938998Y-59559390D01*
X130939167Y-59315198D01*
X130939403Y-59093957D01*
X130939716Y-58894540D01*
X130940115Y-58715820D01*
X130940607Y-58556671D01*
X130941203Y-58415966D01*
X130941910Y-58292576D01*
X130942737Y-58185376D01*
X130943693Y-58093238D01*
X130944787Y-58015035D01*
X130946027Y-57949641D01*
X130947422Y-57895928D01*
X130948982Y-57852769D01*
X130950714Y-57819037D01*
X130952628Y-57793605D01*
X130954732Y-57775347D01*
X130957034Y-57763134D01*
X130959545Y-57755841D01*
X130959637Y-57755659D01*
X130964808Y-57744518D01*
X130969115Y-57734431D01*
X130973879Y-57725346D01*
X130980422Y-57717212D01*
X130990065Y-57709976D01*
X131004129Y-57703586D01*
X131023937Y-57697989D01*
X131050809Y-57693133D01*
X131086067Y-57688966D01*
X131131032Y-57685436D01*
X131187026Y-57682491D01*
X131255371Y-57680077D01*
X131337386Y-57678144D01*
X131434395Y-57676638D01*
X131547718Y-57675508D01*
X131678677Y-57674702D01*
X131828593Y-57674166D01*
X131998787Y-57673849D01*
X132190582Y-57673699D01*
X132405298Y-57673663D01*
X132644257Y-57673689D01*
G36*
X139039962Y-58360499D02*
X139188014Y-58376707D01*
X139331452Y-58405718D01*
X139476110Y-58449045D01*
X139627824Y-58508201D01*
X139792428Y-58584700D01*
X139822071Y-58599517D01*
X139890098Y-58633031D01*
X139954256Y-58663208D01*
X140008215Y-58687166D01*
X140045640Y-58702024D01*
X140051389Y-58703895D01*
X140106486Y-58720402D01*
X139859851Y-59079201D01*
X139799552Y-59166893D01*
X139744422Y-59247012D01*
X139696336Y-59316836D01*
X139657168Y-59373647D01*
X139628794Y-59414723D01*
X139613087Y-59437346D01*
X139610536Y-59440928D01*
X139600171Y-59433438D01*
X139574660Y-59410918D01*
X139538563Y-59377461D01*
X139518642Y-59358550D01*
X139405773Y-59268778D01*
X139279014Y-59200561D01*
X139169783Y-59163195D01*
X139104214Y-59151460D01*
X139022116Y-59144308D01*
X138933144Y-59141874D01*
X138846956Y-59144288D01*
X138773205Y-59151683D01*
X138743776Y-59157347D01*
X138611133Y-59202982D01*
X138491606Y-59272663D01*
X138385283Y-59366260D01*
X138292253Y-59483649D01*
X138212605Y-59624700D01*
X138146426Y-59789286D01*
X138093806Y-59977280D01*
X138062533Y-60138217D01*
X138054374Y-60209263D01*
X138048815Y-60301046D01*
X138045802Y-60406968D01*
X138045281Y-60520434D01*
X138047200Y-60634849D01*
X138051503Y-60743617D01*
X138058137Y-60840143D01*
X138067049Y-60917831D01*
X138068979Y-60929817D01*
X138111499Y-61122892D01*
X138169433Y-61293773D01*
X138243133Y-61443224D01*
X138332951Y-61572011D01*
X138396707Y-61641639D01*
X138511286Y-61736173D01*
X138636942Y-61806246D01*
X138771557Y-61851477D01*
X138913011Y-61871484D01*
X139059183Y-61865885D01*
X139207955Y-61834300D01*
X139295911Y-61803394D01*
X139417629Y-61741506D01*
X139543080Y-61652729D01*
X139613353Y-61592694D01*
X139652811Y-61557947D01*
X139683812Y-61532454D01*
X139701458Y-61520170D01*
X139703648Y-61519795D01*
X139711524Y-61532347D01*
X139731932Y-61565516D01*
X139763132Y-61616458D01*
X139803386Y-61682331D01*
X139850957Y-61760289D01*
X139904104Y-61847490D01*
X139933687Y-61896067D01*
X140159648Y-62267215D01*
X139877527Y-62406639D01*
X139775522Y-62456719D01*
X139692889Y-62496210D01*
X139624578Y-62527073D01*
X139565537Y-62551268D01*
X139510714Y-62570758D01*
X139455060Y-62587503D01*
X139393523Y-62603465D01*
X139334540Y-62617482D01*
X139282115Y-62628329D01*
X139227288Y-62636526D01*
X139164572Y-62642528D01*
X139088477Y-62646790D01*
X138993516Y-62649767D01*
X138929513Y-62651052D01*
X138838192Y-62651930D01*
X138750627Y-62651487D01*
X138672612Y-62649852D01*
X138609942Y-62647149D01*
X138568413Y-62643505D01*
X138565952Y-62643142D01*
X138350303Y-62596487D01*
X138147793Y-62525729D01*
X137958495Y-62430914D01*
X137782479Y-62312089D01*
X137619816Y-62169300D01*
X137470578Y-62002594D01*
X137362496Y-61854433D01*
X137247434Y-61660502D01*
X137154423Y-61455699D01*
X137083013Y-61238383D01*
X137032756Y-61006912D01*
X137003201Y-60759643D01*
X136993889Y-60508559D01*
X137001548Y-60265670D01*
X137025613Y-60041570D01*
X137066852Y-59832477D01*
X137126027Y-59634613D01*
X137203904Y-59444196D01*
X137213203Y-59424468D01*
X137315648Y-59240059D01*
X137441472Y-59064576D01*
X137587112Y-58901650D01*
X137749001Y-58754914D01*
X137923576Y-58628001D01*
X138086244Y-58534905D01*
X138250573Y-58461991D01*
X138415251Y-58409174D01*
X138586652Y-58375015D01*
X138771153Y-58358078D01*
X138881459Y-58355580D01*
X139039962Y-58360499D01*
X139039962Y-58360499D01*
G37*
X139039962Y-58360499D02*
X139188014Y-58376707D01*
X139331452Y-58405718D01*
X139476110Y-58449045D01*
X139627824Y-58508201D01*
X139792428Y-58584700D01*
X139822071Y-58599517D01*
X139890098Y-58633031D01*
X139954256Y-58663208D01*
X140008215Y-58687166D01*
X140045640Y-58702024D01*
X140051389Y-58703895D01*
X140106486Y-58720402D01*
X139859851Y-59079201D01*
X139799552Y-59166893D01*
X139744422Y-59247012D01*
X139696336Y-59316836D01*
X139657168Y-59373647D01*
X139628794Y-59414723D01*
X139613087Y-59437346D01*
X139610536Y-59440928D01*
X139600171Y-59433438D01*
X139574660Y-59410918D01*
X139538563Y-59377461D01*
X139518642Y-59358550D01*
X139405773Y-59268778D01*
X139279014Y-59200561D01*
X139169783Y-59163195D01*
X139104214Y-59151460D01*
X139022116Y-59144308D01*
X138933144Y-59141874D01*
X138846956Y-59144288D01*
X138773205Y-59151683D01*
X138743776Y-59157347D01*
X138611133Y-59202982D01*
X138491606Y-59272663D01*
X138385283Y-59366260D01*
X138292253Y-59483649D01*
X138212605Y-59624700D01*
X138146426Y-59789286D01*
X138093806Y-59977280D01*
X138062533Y-60138217D01*
X138054374Y-60209263D01*
X138048815Y-60301046D01*
X138045802Y-60406968D01*
X138045281Y-60520434D01*
X138047200Y-60634849D01*
X138051503Y-60743617D01*
X138058137Y-60840143D01*
X138067049Y-60917831D01*
X138068979Y-60929817D01*
X138111499Y-61122892D01*
X138169433Y-61293773D01*
X138243133Y-61443224D01*
X138332951Y-61572011D01*
X138396707Y-61641639D01*
X138511286Y-61736173D01*
X138636942Y-61806246D01*
X138771557Y-61851477D01*
X138913011Y-61871484D01*
X139059183Y-61865885D01*
X139207955Y-61834300D01*
X139295911Y-61803394D01*
X139417629Y-61741506D01*
X139543080Y-61652729D01*
X139613353Y-61592694D01*
X139652811Y-61557947D01*
X139683812Y-61532454D01*
X139701458Y-61520170D01*
X139703648Y-61519795D01*
X139711524Y-61532347D01*
X139731932Y-61565516D01*
X139763132Y-61616458D01*
X139803386Y-61682331D01*
X139850957Y-61760289D01*
X139904104Y-61847490D01*
X139933687Y-61896067D01*
X140159648Y-62267215D01*
X139877527Y-62406639D01*
X139775522Y-62456719D01*
X139692889Y-62496210D01*
X139624578Y-62527073D01*
X139565537Y-62551268D01*
X139510714Y-62570758D01*
X139455060Y-62587503D01*
X139393523Y-62603465D01*
X139334540Y-62617482D01*
X139282115Y-62628329D01*
X139227288Y-62636526D01*
X139164572Y-62642528D01*
X139088477Y-62646790D01*
X138993516Y-62649767D01*
X138929513Y-62651052D01*
X138838192Y-62651930D01*
X138750627Y-62651487D01*
X138672612Y-62649852D01*
X138609942Y-62647149D01*
X138568413Y-62643505D01*
X138565952Y-62643142D01*
X138350303Y-62596487D01*
X138147793Y-62525729D01*
X137958495Y-62430914D01*
X137782479Y-62312089D01*
X137619816Y-62169300D01*
X137470578Y-62002594D01*
X137362496Y-61854433D01*
X137247434Y-61660502D01*
X137154423Y-61455699D01*
X137083013Y-61238383D01*
X137032756Y-61006912D01*
X137003201Y-60759643D01*
X136993889Y-60508559D01*
X137001548Y-60265670D01*
X137025613Y-60041570D01*
X137066852Y-59832477D01*
X137126027Y-59634613D01*
X137203904Y-59444196D01*
X137213203Y-59424468D01*
X137315648Y-59240059D01*
X137441472Y-59064576D01*
X137587112Y-58901650D01*
X137749001Y-58754914D01*
X137923576Y-58628001D01*
X138086244Y-58534905D01*
X138250573Y-58461991D01*
X138415251Y-58409174D01*
X138586652Y-58375015D01*
X138771153Y-58358078D01*
X138881459Y-58355580D01*
X139039962Y-58360499D01*
G36*
X141767505Y-59464229D02*
X141835531Y-59469378D01*
X142030163Y-59495273D01*
X142202529Y-59536575D01*
X142353470Y-59593853D01*
X142483825Y-59667674D01*
X142594434Y-59758608D01*
X142686135Y-59867222D01*
X142759770Y-59994085D01*
X142813539Y-60131352D01*
X142827187Y-60175137D01*
X142839073Y-60216141D01*
X142849334Y-60256569D01*
X142858113Y-60298630D01*
X142865548Y-60344531D01*
X142871780Y-60396480D01*
X142876950Y-60456685D01*
X142881196Y-60527352D01*
X142884660Y-60610689D01*
X142887481Y-60708905D01*
X142889800Y-60824205D01*
X142891757Y-60958799D01*
X142893491Y-61114893D01*
X142895143Y-61294695D01*
X142896324Y-61435676D01*
X142904270Y-62403622D01*
X142955756Y-62496770D01*
X142980137Y-62541645D01*
X142998280Y-62576501D01*
X143006935Y-62595054D01*
X143007243Y-62596311D01*
X142994014Y-62597749D01*
X142956326Y-62599074D01*
X142897183Y-62600249D01*
X142819586Y-62601237D01*
X142726536Y-62601999D01*
X142621035Y-62602500D01*
X142506084Y-62602701D01*
X142492378Y-62602703D01*
X141977513Y-62602703D01*
X141977513Y-62486000D01*
X141976635Y-62433260D01*
X141974292Y-62392926D01*
X141970921Y-62371300D01*
X141969431Y-62369298D01*
X141955804Y-62377683D01*
X141927757Y-62399692D01*
X141891303Y-62430601D01*
X141890485Y-62431316D01*
X141823962Y-62480843D01*
X141739948Y-62530575D01*
X141647937Y-62575626D01*
X141557421Y-62611110D01*
X141517567Y-62623236D01*
X141438255Y-62638637D01*
X141340935Y-62648465D01*
X141234516Y-62652580D01*
X141127907Y-62650841D01*
X141030017Y-62643108D01*
X140961513Y-62631981D01*
X140793520Y-62582648D01*
X140642281Y-62512342D01*
X140508782Y-62421933D01*
X140394006Y-62312295D01*
X140298937Y-62184299D01*
X140224560Y-62038818D01*
X140192474Y-61950541D01*
X140172365Y-61864739D01*
X140159038Y-61761736D01*
X140152872Y-61651034D01*
X140153074Y-61634925D01*
X141081648Y-61634925D01*
X141089348Y-61717184D01*
X141114989Y-61785546D01*
X141162378Y-61848970D01*
X141180579Y-61867567D01*
X141245282Y-61917846D01*
X141320066Y-61950056D01*
X141409662Y-61965648D01*
X141504012Y-61966796D01*
X141593501Y-61959216D01*
X141662018Y-61944389D01*
X141691775Y-61933253D01*
X141745408Y-61902904D01*
X141802235Y-61860221D01*
X141854082Y-61812317D01*
X141892778Y-61766301D01*
X141903054Y-61749421D01*
X141911042Y-61725782D01*
X141916721Y-61688168D01*
X141920356Y-61632985D01*
X141922211Y-61556640D01*
X141922594Y-61483981D01*
X141922335Y-61399270D01*
X141921287Y-61338018D01*
X141919045Y-61296227D01*
X141915206Y-61269899D01*
X141909365Y-61255035D01*
X141901118Y-61247639D01*
X141898567Y-61246461D01*
X141876400Y-61242833D01*
X141832680Y-61239866D01*
X141773311Y-61237827D01*
X141704196Y-61236983D01*
X141689189Y-61236982D01*
X141596805Y-61238457D01*
X141525432Y-61242842D01*
X141468719Y-61250738D01*
X141421872Y-61262270D01*
X141305669Y-61306215D01*
X141214543Y-61360243D01*
X141147705Y-61425219D01*
X141104365Y-61502005D01*
X141083734Y-61591467D01*
X141081648Y-61634925D01*
X140153074Y-61634925D01*
X140154244Y-61542133D01*
X140163532Y-61444536D01*
X140170777Y-61405105D01*
X140217039Y-61258701D01*
X140287384Y-61123995D01*
X140380484Y-61002280D01*
X140495012Y-60894847D01*
X140629640Y-60802988D01*
X140783040Y-60727996D01*
X140913459Y-60682458D01*
X141000623Y-60658533D01*
X141083996Y-60639943D01*
X141168976Y-60626084D01*
X141260965Y-60616351D01*
X141365362Y-60610141D01*
X141487568Y-60606851D01*
X141598055Y-60605924D01*
X141925677Y-60605027D01*
X141919401Y-60506547D01*
X141901579Y-60399695D01*
X141863667Y-60307852D01*
X141807280Y-60233310D01*
X141734031Y-60178364D01*
X141669535Y-60151552D01*
X141577123Y-60134654D01*
X141467111Y-60132227D01*
X141344656Y-60143378D01*
X141214914Y-60167210D01*
X141083042Y-60202830D01*
X140954198Y-60249343D01*
X140860566Y-60291883D01*
X140815517Y-60313728D01*
X140781156Y-60328984D01*
X140763681Y-60334937D01*
X140762733Y-60334746D01*
X140756703Y-60321412D01*
X140741645Y-60286068D01*
X140718977Y-60232101D01*
X140690115Y-60162896D01*
X140656477Y-60081840D01*
X140622284Y-59999118D01*
X140485586Y-59667803D01*
X140582820Y-59651833D01*
X140624964Y-59643820D01*
X140688319Y-59630361D01*
X140767457Y-59612679D01*
X140856951Y-59591996D01*
X140951373Y-59569532D01*
X140988973Y-59560403D01*
X141151637Y-59522674D01*
X141294050Y-59494388D01*
X141421527Y-59474972D01*
X141539384Y-59463854D01*
X141652938Y-59460464D01*
X141767505Y-59464229D01*
X141767505Y-59464229D01*
G37*
X141767505Y-59464229D02*
X141835531Y-59469378D01*
X142030163Y-59495273D01*
X142202529Y-59536575D01*
X142353470Y-59593853D01*
X142483825Y-59667674D01*
X142594434Y-59758608D01*
X142686135Y-59867222D01*
X142759770Y-59994085D01*
X142813539Y-60131352D01*
X142827187Y-60175137D01*
X142839073Y-60216141D01*
X142849334Y-60256569D01*
X142858113Y-60298630D01*
X142865548Y-60344531D01*
X142871780Y-60396480D01*
X142876950Y-60456685D01*
X142881196Y-60527352D01*
X142884660Y-60610689D01*
X142887481Y-60708905D01*
X142889800Y-60824205D01*
X142891757Y-60958799D01*
X142893491Y-61114893D01*
X142895143Y-61294695D01*
X142896324Y-61435676D01*
X142904270Y-62403622D01*
X142955756Y-62496770D01*
X142980137Y-62541645D01*
X142998280Y-62576501D01*
X143006935Y-62595054D01*
X143007243Y-62596311D01*
X142994014Y-62597749D01*
X142956326Y-62599074D01*
X142897183Y-62600249D01*
X142819586Y-62601237D01*
X142726536Y-62601999D01*
X142621035Y-62602500D01*
X142506084Y-62602701D01*
X142492378Y-62602703D01*
X141977513Y-62602703D01*
X141977513Y-62486000D01*
X141976635Y-62433260D01*
X141974292Y-62392926D01*
X141970921Y-62371300D01*
X141969431Y-62369298D01*
X141955804Y-62377683D01*
X141927757Y-62399692D01*
X141891303Y-62430601D01*
X141890485Y-62431316D01*
X141823962Y-62480843D01*
X141739948Y-62530575D01*
X141647937Y-62575626D01*
X141557421Y-62611110D01*
X141517567Y-62623236D01*
X141438255Y-62638637D01*
X141340935Y-62648465D01*
X141234516Y-62652580D01*
X141127907Y-62650841D01*
X141030017Y-62643108D01*
X140961513Y-62631981D01*
X140793520Y-62582648D01*
X140642281Y-62512342D01*
X140508782Y-62421933D01*
X140394006Y-62312295D01*
X140298937Y-62184299D01*
X140224560Y-62038818D01*
X140192474Y-61950541D01*
X140172365Y-61864739D01*
X140159038Y-61761736D01*
X140152872Y-61651034D01*
X140153074Y-61634925D01*
X141081648Y-61634925D01*
X141089348Y-61717184D01*
X141114989Y-61785546D01*
X141162378Y-61848970D01*
X141180579Y-61867567D01*
X141245282Y-61917846D01*
X141320066Y-61950056D01*
X141409662Y-61965648D01*
X141504012Y-61966796D01*
X141593501Y-61959216D01*
X141662018Y-61944389D01*
X141691775Y-61933253D01*
X141745408Y-61902904D01*
X141802235Y-61860221D01*
X141854082Y-61812317D01*
X141892778Y-61766301D01*
X141903054Y-61749421D01*
X141911042Y-61725782D01*
X141916721Y-61688168D01*
X141920356Y-61632985D01*
X141922211Y-61556640D01*
X141922594Y-61483981D01*
X141922335Y-61399270D01*
X141921287Y-61338018D01*
X141919045Y-61296227D01*
X141915206Y-61269899D01*
X141909365Y-61255035D01*
X141901118Y-61247639D01*
X141898567Y-61246461D01*
X141876400Y-61242833D01*
X141832680Y-61239866D01*
X141773311Y-61237827D01*
X141704196Y-61236983D01*
X141689189Y-61236982D01*
X141596805Y-61238457D01*
X141525432Y-61242842D01*
X141468719Y-61250738D01*
X141421872Y-61262270D01*
X141305669Y-61306215D01*
X141214543Y-61360243D01*
X141147705Y-61425219D01*
X141104365Y-61502005D01*
X141083734Y-61591467D01*
X141081648Y-61634925D01*
X140153074Y-61634925D01*
X140154244Y-61542133D01*
X140163532Y-61444536D01*
X140170777Y-61405105D01*
X140217039Y-61258701D01*
X140287384Y-61123995D01*
X140380484Y-61002280D01*
X140495012Y-60894847D01*
X140629640Y-60802988D01*
X140783040Y-60727996D01*
X140913459Y-60682458D01*
X141000623Y-60658533D01*
X141083996Y-60639943D01*
X141168976Y-60626084D01*
X141260965Y-60616351D01*
X141365362Y-60610141D01*
X141487568Y-60606851D01*
X141598055Y-60605924D01*
X141925677Y-60605027D01*
X141919401Y-60506547D01*
X141901579Y-60399695D01*
X141863667Y-60307852D01*
X141807280Y-60233310D01*
X141734031Y-60178364D01*
X141669535Y-60151552D01*
X141577123Y-60134654D01*
X141467111Y-60132227D01*
X141344656Y-60143378D01*
X141214914Y-60167210D01*
X141083042Y-60202830D01*
X140954198Y-60249343D01*
X140860566Y-60291883D01*
X140815517Y-60313728D01*
X140781156Y-60328984D01*
X140763681Y-60334937D01*
X140762733Y-60334746D01*
X140756703Y-60321412D01*
X140741645Y-60286068D01*
X140718977Y-60232101D01*
X140690115Y-60162896D01*
X140656477Y-60081840D01*
X140622284Y-59999118D01*
X140485586Y-59667803D01*
X140582820Y-59651833D01*
X140624964Y-59643820D01*
X140688319Y-59630361D01*
X140767457Y-59612679D01*
X140856951Y-59591996D01*
X140951373Y-59569532D01*
X140988973Y-59560403D01*
X141151637Y-59522674D01*
X141294050Y-59494388D01*
X141421527Y-59474972D01*
X141539384Y-59463854D01*
X141652938Y-59460464D01*
X141767505Y-59464229D01*
G36*
X145442270Y-58156825D02*
X145559041Y-58157304D01*
X145598729Y-58157545D01*
X146144486Y-58161135D01*
X146151351Y-60254919D01*
X146152258Y-60538842D01*
X146153062Y-60796640D01*
X146153815Y-61029646D01*
X146154569Y-61239194D01*
X146155375Y-61426618D01*
X146156285Y-61593250D01*
X146157351Y-61740425D01*
X146158624Y-61869477D01*
X146160156Y-61981739D01*
X146161998Y-62078544D01*
X146164203Y-62161226D01*
X146166822Y-62231119D01*
X146169906Y-62289557D01*
X146173508Y-62337872D01*
X146177678Y-62377400D01*
X146182469Y-62409473D01*
X146187931Y-62435424D01*
X146194118Y-62456589D01*
X146201080Y-62474299D01*
X146208869Y-62489889D01*
X146217537Y-62504693D01*
X146227135Y-62520044D01*
X146237715Y-62537276D01*
X146239884Y-62540946D01*
X146276268Y-62603031D01*
X145750431Y-62599434D01*
X145224594Y-62595838D01*
X145217729Y-62480331D01*
X145213992Y-62424899D01*
X145210097Y-62392851D01*
X145204811Y-62380135D01*
X145196903Y-62382696D01*
X145190270Y-62390024D01*
X145161374Y-62416714D01*
X145114279Y-62451021D01*
X145055620Y-62488846D01*
X144992031Y-62526090D01*
X144930149Y-62558653D01*
X144882634Y-62580077D01*
X144771316Y-62615283D01*
X144643596Y-62640222D01*
X144508901Y-62653941D01*
X144376663Y-62655486D01*
X144256308Y-62643906D01*
X144254326Y-62643574D01*
X144089641Y-62602250D01*
X143935479Y-62536412D01*
X143793328Y-62447474D01*
X143664675Y-62336852D01*
X143551007Y-62205961D01*
X143453810Y-62056216D01*
X143374572Y-61889033D01*
X143331430Y-61765190D01*
X143302979Y-61661581D01*
X143281880Y-61561252D01*
X143267488Y-61458109D01*
X143259158Y-61346057D01*
X143256245Y-61219001D01*
X143257535Y-61115252D01*
X144270650Y-61115252D01*
X144275444Y-61289222D01*
X144290568Y-61438895D01*
X144316485Y-61565597D01*
X144353663Y-61670658D01*
X144402565Y-61755406D01*
X144463658Y-61821169D01*
X144534177Y-61867659D01*
X144570871Y-61885014D01*
X144602696Y-61895419D01*
X144638177Y-61900179D01*
X144685841Y-61900601D01*
X144737189Y-61898748D01*
X144838169Y-61889841D01*
X144918035Y-61872398D01*
X144943135Y-61863661D01*
X145000448Y-61837857D01*
X145060897Y-61805453D01*
X145087297Y-61789233D01*
X145155946Y-61744205D01*
X145155946Y-60316982D01*
X145080432Y-60271718D01*
X144975121Y-60220572D01*
X144867525Y-60190324D01*
X144761581Y-60180795D01*
X144661224Y-60191807D01*
X144570387Y-60223181D01*
X144493007Y-60274740D01*
X144468039Y-60299488D01*
X144407856Y-60380577D01*
X144359145Y-60478734D01*
X144321499Y-60595643D01*
X144294512Y-60732985D01*
X144277775Y-60892444D01*
X144270883Y-61075700D01*
X144270650Y-61115252D01*
X143257535Y-61115252D01*
X143258073Y-61072067D01*
X143269647Y-60846053D01*
X143292920Y-60642192D01*
X143328504Y-60457513D01*
X143377013Y-60289048D01*
X143439060Y-60133826D01*
X143461201Y-60087808D01*
X143550385Y-59937739D01*
X143658159Y-59804377D01*
X143781990Y-59689877D01*
X143919342Y-59596389D01*
X144067683Y-59526068D01*
X144156604Y-59497060D01*
X144243933Y-59479840D01*
X144349011Y-59469594D01*
X144463029Y-59466318D01*
X144577177Y-59470009D01*
X144682648Y-59480660D01*
X144767334Y-59497370D01*
X144868128Y-59530140D01*
X144965822Y-59572279D01*
X145051296Y-59619519D01*
X145096789Y-59651581D01*
X145128169Y-59675422D01*
X145150142Y-59689939D01*
X145155141Y-59692000D01*
X145156690Y-59678718D01*
X145158135Y-59640663D01*
X145159443Y-59580519D01*
X145160583Y-59500973D01*
X145161521Y-59404711D01*
X145162226Y-59294419D01*
X145162667Y-59172781D01*
X145162811Y-59048885D01*
X145162730Y-58890196D01*
X145162335Y-58756408D01*
X145161395Y-58644960D01*
X145159680Y-58553295D01*
X145156957Y-58478853D01*
X145152997Y-58419075D01*
X145147569Y-58371402D01*
X145140441Y-58333274D01*
X145131384Y-58302134D01*
X145120167Y-58275421D01*
X145106558Y-58250577D01*
X145090328Y-58225043D01*
X145088240Y-58221881D01*
X145067306Y-58188810D01*
X145054667Y-58166069D01*
X145052973Y-58161272D01*
X145066216Y-58159759D01*
X145104002Y-58158528D01*
X145163416Y-58157599D01*
X145241542Y-58156992D01*
X145335465Y-58156727D01*
X145442270Y-58156825D01*
X145442270Y-58156825D01*
G37*
X145442270Y-58156825D02*
X145559041Y-58157304D01*
X145598729Y-58157545D01*
X146144486Y-58161135D01*
X146151351Y-60254919D01*
X146152258Y-60538842D01*
X146153062Y-60796640D01*
X146153815Y-61029646D01*
X146154569Y-61239194D01*
X146155375Y-61426618D01*
X146156285Y-61593250D01*
X146157351Y-61740425D01*
X146158624Y-61869477D01*
X146160156Y-61981739D01*
X146161998Y-62078544D01*
X146164203Y-62161226D01*
X146166822Y-62231119D01*
X146169906Y-62289557D01*
X146173508Y-62337872D01*
X146177678Y-62377400D01*
X146182469Y-62409473D01*
X146187931Y-62435424D01*
X146194118Y-62456589D01*
X146201080Y-62474299D01*
X146208869Y-62489889D01*
X146217537Y-62504693D01*
X146227135Y-62520044D01*
X146237715Y-62537276D01*
X146239884Y-62540946D01*
X146276268Y-62603031D01*
X145750431Y-62599434D01*
X145224594Y-62595838D01*
X145217729Y-62480331D01*
X145213992Y-62424899D01*
X145210097Y-62392851D01*
X145204811Y-62380135D01*
X145196903Y-62382696D01*
X145190270Y-62390024D01*
X145161374Y-62416714D01*
X145114279Y-62451021D01*
X145055620Y-62488846D01*
X144992031Y-62526090D01*
X144930149Y-62558653D01*
X144882634Y-62580077D01*
X144771316Y-62615283D01*
X144643596Y-62640222D01*
X144508901Y-62653941D01*
X144376663Y-62655486D01*
X144256308Y-62643906D01*
X144254326Y-62643574D01*
X144089641Y-62602250D01*
X143935479Y-62536412D01*
X143793328Y-62447474D01*
X143664675Y-62336852D01*
X143551007Y-62205961D01*
X143453810Y-62056216D01*
X143374572Y-61889033D01*
X143331430Y-61765190D01*
X143302979Y-61661581D01*
X143281880Y-61561252D01*
X143267488Y-61458109D01*
X143259158Y-61346057D01*
X143256245Y-61219001D01*
X143257535Y-61115252D01*
X144270650Y-61115252D01*
X144275444Y-61289222D01*
X144290568Y-61438895D01*
X144316485Y-61565597D01*
X144353663Y-61670658D01*
X144402565Y-61755406D01*
X144463658Y-61821169D01*
X144534177Y-61867659D01*
X144570871Y-61885014D01*
X144602696Y-61895419D01*
X144638177Y-61900179D01*
X144685841Y-61900601D01*
X144737189Y-61898748D01*
X144838169Y-61889841D01*
X144918035Y-61872398D01*
X144943135Y-61863661D01*
X145000448Y-61837857D01*
X145060897Y-61805453D01*
X145087297Y-61789233D01*
X145155946Y-61744205D01*
X145155946Y-60316982D01*
X145080432Y-60271718D01*
X144975121Y-60220572D01*
X144867525Y-60190324D01*
X144761581Y-60180795D01*
X144661224Y-60191807D01*
X144570387Y-60223181D01*
X144493007Y-60274740D01*
X144468039Y-60299488D01*
X144407856Y-60380577D01*
X144359145Y-60478734D01*
X144321499Y-60595643D01*
X144294512Y-60732985D01*
X144277775Y-60892444D01*
X144270883Y-61075700D01*
X144270650Y-61115252D01*
X143257535Y-61115252D01*
X143258073Y-61072067D01*
X143269647Y-60846053D01*
X143292920Y-60642192D01*
X143328504Y-60457513D01*
X143377013Y-60289048D01*
X143439060Y-60133826D01*
X143461201Y-60087808D01*
X143550385Y-59937739D01*
X143658159Y-59804377D01*
X143781990Y-59689877D01*
X143919342Y-59596389D01*
X144067683Y-59526068D01*
X144156604Y-59497060D01*
X144243933Y-59479840D01*
X144349011Y-59469594D01*
X144463029Y-59466318D01*
X144577177Y-59470009D01*
X144682648Y-59480660D01*
X144767334Y-59497370D01*
X144868128Y-59530140D01*
X144965822Y-59572279D01*
X145051296Y-59619519D01*
X145096789Y-59651581D01*
X145128169Y-59675422D01*
X145150142Y-59689939D01*
X145155141Y-59692000D01*
X145156690Y-59678718D01*
X145158135Y-59640663D01*
X145159443Y-59580519D01*
X145160583Y-59500973D01*
X145161521Y-59404711D01*
X145162226Y-59294419D01*
X145162667Y-59172781D01*
X145162811Y-59048885D01*
X145162730Y-58890196D01*
X145162335Y-58756408D01*
X145161395Y-58644960D01*
X145159680Y-58553295D01*
X145156957Y-58478853D01*
X145152997Y-58419075D01*
X145147569Y-58371402D01*
X145140441Y-58333274D01*
X145131384Y-58302134D01*
X145120167Y-58275421D01*
X145106558Y-58250577D01*
X145090328Y-58225043D01*
X145088240Y-58221881D01*
X145067306Y-58188810D01*
X145054667Y-58166069D01*
X145052973Y-58161272D01*
X145066216Y-58159759D01*
X145104002Y-58158528D01*
X145163416Y-58157599D01*
X145241542Y-58156992D01*
X145335465Y-58156727D01*
X145442270Y-58156825D01*
G36*
X135873921Y-57236490D02*
X135977027Y-57272238D01*
X136073022Y-57328507D01*
X136158753Y-57405288D01*
X136231070Y-57502573D01*
X136263555Y-57563892D01*
X136291668Y-57649660D01*
X136305295Y-57748677D01*
X136303786Y-57850471D01*
X136287031Y-57942714D01*
X136241237Y-58055432D01*
X136174832Y-58153207D01*
X136091191Y-58234115D01*
X135993688Y-58296232D01*
X135885700Y-58337634D01*
X135770601Y-58356397D01*
X135651766Y-58350598D01*
X135593189Y-58338206D01*
X135479028Y-58293797D01*
X135377635Y-58226033D01*
X135291455Y-58137001D01*
X135222934Y-58028791D01*
X135217136Y-58016973D01*
X135197096Y-57972628D01*
X135184513Y-57935280D01*
X135177681Y-57895880D01*
X135174895Y-57845381D01*
X135174432Y-57790433D01*
X135175197Y-57724415D01*
X135178648Y-57676689D01*
X135186523Y-57638103D01*
X135200557Y-57599506D01*
X135217880Y-57561426D01*
X135282495Y-57453328D01*
X135362066Y-57365803D01*
X135453440Y-57298841D01*
X135553464Y-57252436D01*
X135658988Y-57226581D01*
X135766858Y-57221268D01*
X135873921Y-57236490D01*
X135873921Y-57236490D01*
G37*
X135873921Y-57236490D02*
X135977027Y-57272238D01*
X136073022Y-57328507D01*
X136158753Y-57405288D01*
X136231070Y-57502573D01*
X136263555Y-57563892D01*
X136291668Y-57649660D01*
X136305295Y-57748677D01*
X136303786Y-57850471D01*
X136287031Y-57942714D01*
X136241237Y-58055432D01*
X136174832Y-58153207D01*
X136091191Y-58234115D01*
X135993688Y-58296232D01*
X135885700Y-58337634D01*
X135770601Y-58356397D01*
X135651766Y-58350598D01*
X135593189Y-58338206D01*
X135479028Y-58293797D01*
X135377635Y-58226033D01*
X135291455Y-58137001D01*
X135222934Y-58028791D01*
X135217136Y-58016973D01*
X135197096Y-57972628D01*
X135184513Y-57935280D01*
X135177681Y-57895880D01*
X135174895Y-57845381D01*
X135174432Y-57790433D01*
X135175197Y-57724415D01*
X135178648Y-57676689D01*
X135186523Y-57638103D01*
X135200557Y-57599506D01*
X135217880Y-57561426D01*
X135282495Y-57453328D01*
X135362066Y-57365803D01*
X135453440Y-57298841D01*
X135553464Y-57252436D01*
X135658988Y-57226581D01*
X135766858Y-57221268D01*
X135873921Y-57236490D01*
D13*
X151697143Y-115736666D02*
X151744762Y-115784285D01*
X151792381Y-115927142D01*
X151792381Y-116022380D01*
X151744762Y-116165238D01*
X151649524Y-116260476D01*
X151554286Y-116308095D01*
X151363810Y-116355714D01*
X151220952Y-116355714D01*
X151030476Y-116308095D01*
X150935238Y-116260476D01*
X150840000Y-116165238D01*
X150792381Y-116022380D01*
X150792381Y-115927142D01*
X150840000Y-115784285D01*
X150887619Y-115736666D01*
X151792381Y-114784285D02*
X151792381Y-115355714D01*
X151792381Y-115070000D02*
X150792381Y-115070000D01*
X150935238Y-115165238D01*
X151030476Y-115260476D01*
X151078095Y-115355714D01*
X133183334Y-108537143D02*
X133135715Y-108584762D01*
X132992858Y-108632381D01*
X132897620Y-108632381D01*
X132754762Y-108584762D01*
X132659524Y-108489524D01*
X132611905Y-108394286D01*
X132564286Y-108203810D01*
X132564286Y-108060952D01*
X132611905Y-107870476D01*
X132659524Y-107775238D01*
X132754762Y-107680000D01*
X132897620Y-107632381D01*
X132992858Y-107632381D01*
X133135715Y-107680000D01*
X133183334Y-107727619D01*
X133564286Y-107727619D02*
X133611905Y-107680000D01*
X133707143Y-107632381D01*
X133945239Y-107632381D01*
X134040477Y-107680000D01*
X134088096Y-107727619D01*
X134135715Y-107822857D01*
X134135715Y-107918095D01*
X134088096Y-108060952D01*
X133516667Y-108632381D01*
X134135715Y-108632381D01*
X136993334Y-117427143D02*
X136945715Y-117474762D01*
X136802858Y-117522381D01*
X136707620Y-117522381D01*
X136564762Y-117474762D01*
X136469524Y-117379524D01*
X136421905Y-117284286D01*
X136374286Y-117093810D01*
X136374286Y-116950952D01*
X136421905Y-116760476D01*
X136469524Y-116665238D01*
X136564762Y-116570000D01*
X136707620Y-116522381D01*
X136802858Y-116522381D01*
X136945715Y-116570000D01*
X136993334Y-116617619D01*
X137326667Y-116522381D02*
X137945715Y-116522381D01*
X137612381Y-116903333D01*
X137755239Y-116903333D01*
X137850477Y-116950952D01*
X137898096Y-116998571D01*
X137945715Y-117093810D01*
X137945715Y-117331905D01*
X137898096Y-117427143D01*
X137850477Y-117474762D01*
X137755239Y-117522381D01*
X137469524Y-117522381D01*
X137374286Y-117474762D01*
X137326667Y-117427143D01*
X129757143Y-106366666D02*
X129804762Y-106414285D01*
X129852381Y-106557142D01*
X129852381Y-106652380D01*
X129804762Y-106795238D01*
X129709524Y-106890476D01*
X129614286Y-106938095D01*
X129423810Y-106985714D01*
X129280952Y-106985714D01*
X129090476Y-106938095D01*
X128995238Y-106890476D01*
X128900000Y-106795238D01*
X128852381Y-106652380D01*
X128852381Y-106557142D01*
X128900000Y-106414285D01*
X128947619Y-106366666D01*
X129185714Y-105509523D02*
X129852381Y-105509523D01*
X128804762Y-105747619D02*
X129519048Y-105985714D01*
X129519048Y-105366666D01*
X126757143Y-111866666D02*
X126804762Y-111914285D01*
X126852381Y-112057142D01*
X126852381Y-112152380D01*
X126804762Y-112295238D01*
X126709524Y-112390476D01*
X126614286Y-112438095D01*
X126423810Y-112485714D01*
X126280952Y-112485714D01*
X126090476Y-112438095D01*
X125995238Y-112390476D01*
X125900000Y-112295238D01*
X125852381Y-112152380D01*
X125852381Y-112057142D01*
X125900000Y-111914285D01*
X125947619Y-111866666D01*
X125852381Y-110961904D02*
X125852381Y-111438095D01*
X126328571Y-111485714D01*
X126280952Y-111438095D01*
X126233333Y-111342857D01*
X126233333Y-111104761D01*
X126280952Y-111009523D01*
X126328571Y-110961904D01*
X126423810Y-110914285D01*
X126661905Y-110914285D01*
X126757143Y-110961904D01*
X126804762Y-111009523D01*
X126852381Y-111104761D01*
X126852381Y-111342857D01*
X126804762Y-111438095D01*
X126757143Y-111485714D01*
X132611905Y-99552381D02*
X132611905Y-98552381D01*
X132850000Y-98552381D01*
X132992858Y-98600000D01*
X133088096Y-98695238D01*
X133135715Y-98790476D01*
X133183334Y-98980952D01*
X133183334Y-99123810D01*
X133135715Y-99314286D01*
X133088096Y-99409524D01*
X132992858Y-99504762D01*
X132850000Y-99552381D01*
X132611905Y-99552381D01*
X134135715Y-99552381D02*
X133564286Y-99552381D01*
X133850000Y-99552381D02*
X133850000Y-98552381D01*
X133754762Y-98695238D01*
X133659524Y-98790476D01*
X133564286Y-98838095D01*
X152266667Y-55952381D02*
X152266667Y-56666667D01*
X152219047Y-56809524D01*
X152123809Y-56904762D01*
X151980952Y-56952381D01*
X151885714Y-56952381D01*
X153266667Y-56952381D02*
X152695238Y-56952381D01*
X152980952Y-56952381D02*
X152980952Y-55952381D01*
X152885714Y-56095238D01*
X152790476Y-56190476D01*
X152695238Y-56238095D01*
X145732381Y-101996666D02*
X145732381Y-102472857D01*
X144732381Y-102472857D01*
X145732381Y-101139523D02*
X145732381Y-101710952D01*
X145732381Y-101425238D02*
X144732381Y-101425238D01*
X144875238Y-101520476D01*
X144970476Y-101615714D01*
X145018095Y-101710952D01*
X148423334Y-57422381D02*
X148090000Y-56946190D01*
X147851905Y-57422381D02*
X147851905Y-56422381D01*
X148232858Y-56422381D01*
X148328096Y-56470000D01*
X148375715Y-56517619D01*
X148423334Y-56612857D01*
X148423334Y-56755714D01*
X148375715Y-56850952D01*
X148328096Y-56898571D01*
X148232858Y-56946190D01*
X147851905Y-56946190D01*
X149375715Y-57422381D02*
X148804286Y-57422381D01*
X149090000Y-57422381D02*
X149090000Y-56422381D01*
X148994762Y-56565238D01*
X148899524Y-56660476D01*
X148804286Y-56708095D01*
X148423334Y-59962381D02*
X148090000Y-59486190D01*
X147851905Y-59962381D02*
X147851905Y-58962381D01*
X148232858Y-58962381D01*
X148328096Y-59010000D01*
X148375715Y-59057619D01*
X148423334Y-59152857D01*
X148423334Y-59295714D01*
X148375715Y-59390952D01*
X148328096Y-59438571D01*
X148232858Y-59486190D01*
X147851905Y-59486190D01*
X148804286Y-59057619D02*
X148851905Y-59010000D01*
X148947143Y-58962381D01*
X149185239Y-58962381D01*
X149280477Y-59010000D01*
X149328096Y-59057619D01*
X149375715Y-59152857D01*
X149375715Y-59248095D01*
X149328096Y-59390952D01*
X148756667Y-59962381D01*
X149375715Y-59962381D01*
X148423334Y-62502381D02*
X148090000Y-62026190D01*
X147851905Y-62502381D02*
X147851905Y-61502381D01*
X148232858Y-61502381D01*
X148328096Y-61550000D01*
X148375715Y-61597619D01*
X148423334Y-61692857D01*
X148423334Y-61835714D01*
X148375715Y-61930952D01*
X148328096Y-61978571D01*
X148232858Y-62026190D01*
X147851905Y-62026190D01*
X148756667Y-61502381D02*
X149375715Y-61502381D01*
X149042381Y-61883333D01*
X149185239Y-61883333D01*
X149280477Y-61930952D01*
X149328096Y-61978571D01*
X149375715Y-62073810D01*
X149375715Y-62311905D01*
X149328096Y-62407143D01*
X149280477Y-62454762D01*
X149185239Y-62502381D01*
X148899524Y-62502381D01*
X148804286Y-62454762D01*
X148756667Y-62407143D01*
X148423334Y-65042381D02*
X148090000Y-64566190D01*
X147851905Y-65042381D02*
X147851905Y-64042381D01*
X148232858Y-64042381D01*
X148328096Y-64090000D01*
X148375715Y-64137619D01*
X148423334Y-64232857D01*
X148423334Y-64375714D01*
X148375715Y-64470952D01*
X148328096Y-64518571D01*
X148232858Y-64566190D01*
X147851905Y-64566190D01*
X149280477Y-64375714D02*
X149280477Y-65042381D01*
X149042381Y-63994762D02*
X148804286Y-64709048D01*
X149423334Y-64709048D01*
X148423334Y-67582381D02*
X148090000Y-67106190D01*
X147851905Y-67582381D02*
X147851905Y-66582381D01*
X148232858Y-66582381D01*
X148328096Y-66630000D01*
X148375715Y-66677619D01*
X148423334Y-66772857D01*
X148423334Y-66915714D01*
X148375715Y-67010952D01*
X148328096Y-67058571D01*
X148232858Y-67106190D01*
X147851905Y-67106190D01*
X149328096Y-66582381D02*
X148851905Y-66582381D01*
X148804286Y-67058571D01*
X148851905Y-67010952D01*
X148947143Y-66963333D01*
X149185239Y-66963333D01*
X149280477Y-67010952D01*
X149328096Y-67058571D01*
X149375715Y-67153810D01*
X149375715Y-67391905D01*
X149328096Y-67487143D01*
X149280477Y-67534762D01*
X149185239Y-67582381D01*
X148947143Y-67582381D01*
X148851905Y-67534762D01*
X148804286Y-67487143D01*
X148423334Y-70122381D02*
X148090000Y-69646190D01*
X147851905Y-70122381D02*
X147851905Y-69122381D01*
X148232858Y-69122381D01*
X148328096Y-69170000D01*
X148375715Y-69217619D01*
X148423334Y-69312857D01*
X148423334Y-69455714D01*
X148375715Y-69550952D01*
X148328096Y-69598571D01*
X148232858Y-69646190D01*
X147851905Y-69646190D01*
X149280477Y-69122381D02*
X149090000Y-69122381D01*
X148994762Y-69170000D01*
X148947143Y-69217619D01*
X148851905Y-69360476D01*
X148804286Y-69550952D01*
X148804286Y-69931905D01*
X148851905Y-70027143D01*
X148899524Y-70074762D01*
X148994762Y-70122381D01*
X149185239Y-70122381D01*
X149280477Y-70074762D01*
X149328096Y-70027143D01*
X149375715Y-69931905D01*
X149375715Y-69693810D01*
X149328096Y-69598571D01*
X149280477Y-69550952D01*
X149185239Y-69503333D01*
X148994762Y-69503333D01*
X148899524Y-69550952D01*
X148851905Y-69598571D01*
X148804286Y-69693810D01*
X148423334Y-75202381D02*
X148090000Y-74726190D01*
X147851905Y-75202381D02*
X147851905Y-74202381D01*
X148232858Y-74202381D01*
X148328096Y-74250000D01*
X148375715Y-74297619D01*
X148423334Y-74392857D01*
X148423334Y-74535714D01*
X148375715Y-74630952D01*
X148328096Y-74678571D01*
X148232858Y-74726190D01*
X147851905Y-74726190D01*
X148994762Y-74630952D02*
X148899524Y-74583333D01*
X148851905Y-74535714D01*
X148804286Y-74440476D01*
X148804286Y-74392857D01*
X148851905Y-74297619D01*
X148899524Y-74250000D01*
X148994762Y-74202381D01*
X149185239Y-74202381D01*
X149280477Y-74250000D01*
X149328096Y-74297619D01*
X149375715Y-74392857D01*
X149375715Y-74440476D01*
X149328096Y-74535714D01*
X149280477Y-74583333D01*
X149185239Y-74630952D01*
X148994762Y-74630952D01*
X148899524Y-74678571D01*
X148851905Y-74726190D01*
X148804286Y-74821429D01*
X148804286Y-75011905D01*
X148851905Y-75107143D01*
X148899524Y-75154762D01*
X148994762Y-75202381D01*
X149185239Y-75202381D01*
X149280477Y-75154762D01*
X149328096Y-75107143D01*
X149375715Y-75011905D01*
X149375715Y-74821429D01*
X149328096Y-74726190D01*
X149280477Y-74678571D01*
X149185239Y-74630952D01*
X148423334Y-77742381D02*
X148090000Y-77266190D01*
X147851905Y-77742381D02*
X147851905Y-76742381D01*
X148232858Y-76742381D01*
X148328096Y-76790000D01*
X148375715Y-76837619D01*
X148423334Y-76932857D01*
X148423334Y-77075714D01*
X148375715Y-77170952D01*
X148328096Y-77218571D01*
X148232858Y-77266190D01*
X147851905Y-77266190D01*
X148899524Y-77742381D02*
X149090000Y-77742381D01*
X149185239Y-77694762D01*
X149232858Y-77647143D01*
X149328096Y-77504286D01*
X149375715Y-77313810D01*
X149375715Y-76932857D01*
X149328096Y-76837619D01*
X149280477Y-76790000D01*
X149185239Y-76742381D01*
X148994762Y-76742381D01*
X148899524Y-76790000D01*
X148851905Y-76837619D01*
X148804286Y-76932857D01*
X148804286Y-77170952D01*
X148851905Y-77266190D01*
X148899524Y-77313810D01*
X148994762Y-77361429D01*
X149185239Y-77361429D01*
X149280477Y-77313810D01*
X149328096Y-77266190D01*
X149375715Y-77170952D01*
X147947143Y-80282381D02*
X147613809Y-79806190D01*
X147375714Y-80282381D02*
X147375714Y-79282381D01*
X147756667Y-79282381D01*
X147851905Y-79330000D01*
X147899524Y-79377619D01*
X147947143Y-79472857D01*
X147947143Y-79615714D01*
X147899524Y-79710952D01*
X147851905Y-79758571D01*
X147756667Y-79806190D01*
X147375714Y-79806190D01*
X148899524Y-80282381D02*
X148328095Y-80282381D01*
X148613809Y-80282381D02*
X148613809Y-79282381D01*
X148518571Y-79425238D01*
X148423333Y-79520476D01*
X148328095Y-79568095D01*
X149518571Y-79282381D02*
X149613810Y-79282381D01*
X149709048Y-79330000D01*
X149756667Y-79377619D01*
X149804286Y-79472857D01*
X149851905Y-79663333D01*
X149851905Y-79901429D01*
X149804286Y-80091905D01*
X149756667Y-80187143D01*
X149709048Y-80234762D01*
X149613810Y-80282381D01*
X149518571Y-80282381D01*
X149423333Y-80234762D01*
X149375714Y-80187143D01*
X149328095Y-80091905D01*
X149280476Y-79901429D01*
X149280476Y-79663333D01*
X149328095Y-79472857D01*
X149375714Y-79377619D01*
X149423333Y-79330000D01*
X149518571Y-79282381D01*
X147947143Y-82822381D02*
X147613809Y-82346190D01*
X147375714Y-82822381D02*
X147375714Y-81822381D01*
X147756667Y-81822381D01*
X147851905Y-81870000D01*
X147899524Y-81917619D01*
X147947143Y-82012857D01*
X147947143Y-82155714D01*
X147899524Y-82250952D01*
X147851905Y-82298571D01*
X147756667Y-82346190D01*
X147375714Y-82346190D01*
X148899524Y-82822381D02*
X148328095Y-82822381D01*
X148613809Y-82822381D02*
X148613809Y-81822381D01*
X148518571Y-81965238D01*
X148423333Y-82060476D01*
X148328095Y-82108095D01*
X149851905Y-82822381D02*
X149280476Y-82822381D01*
X149566190Y-82822381D02*
X149566190Y-81822381D01*
X149470952Y-81965238D01*
X149375714Y-82060476D01*
X149280476Y-82108095D01*
X147947143Y-85362381D02*
X147613809Y-84886190D01*
X147375714Y-85362381D02*
X147375714Y-84362381D01*
X147756667Y-84362381D01*
X147851905Y-84410000D01*
X147899524Y-84457619D01*
X147947143Y-84552857D01*
X147947143Y-84695714D01*
X147899524Y-84790952D01*
X147851905Y-84838571D01*
X147756667Y-84886190D01*
X147375714Y-84886190D01*
X148899524Y-85362381D02*
X148328095Y-85362381D01*
X148613809Y-85362381D02*
X148613809Y-84362381D01*
X148518571Y-84505238D01*
X148423333Y-84600476D01*
X148328095Y-84648095D01*
X149280476Y-84457619D02*
X149328095Y-84410000D01*
X149423333Y-84362381D01*
X149661429Y-84362381D01*
X149756667Y-84410000D01*
X149804286Y-84457619D01*
X149851905Y-84552857D01*
X149851905Y-84648095D01*
X149804286Y-84790952D01*
X149232857Y-85362381D01*
X149851905Y-85362381D01*
X147947143Y-87902381D02*
X147613809Y-87426190D01*
X147375714Y-87902381D02*
X147375714Y-86902381D01*
X147756667Y-86902381D01*
X147851905Y-86950000D01*
X147899524Y-86997619D01*
X147947143Y-87092857D01*
X147947143Y-87235714D01*
X147899524Y-87330952D01*
X147851905Y-87378571D01*
X147756667Y-87426190D01*
X147375714Y-87426190D01*
X148899524Y-87902381D02*
X148328095Y-87902381D01*
X148613809Y-87902381D02*
X148613809Y-86902381D01*
X148518571Y-87045238D01*
X148423333Y-87140476D01*
X148328095Y-87188095D01*
X149232857Y-86902381D02*
X149851905Y-86902381D01*
X149518571Y-87283333D01*
X149661429Y-87283333D01*
X149756667Y-87330952D01*
X149804286Y-87378571D01*
X149851905Y-87473810D01*
X149851905Y-87711905D01*
X149804286Y-87807143D01*
X149756667Y-87854762D01*
X149661429Y-87902381D01*
X149375714Y-87902381D01*
X149280476Y-87854762D01*
X149232857Y-87807143D01*
X147947143Y-90442381D02*
X147613809Y-89966190D01*
X147375714Y-90442381D02*
X147375714Y-89442381D01*
X147756667Y-89442381D01*
X147851905Y-89490000D01*
X147899524Y-89537619D01*
X147947143Y-89632857D01*
X147947143Y-89775714D01*
X147899524Y-89870952D01*
X147851905Y-89918571D01*
X147756667Y-89966190D01*
X147375714Y-89966190D01*
X148899524Y-90442381D02*
X148328095Y-90442381D01*
X148613809Y-90442381D02*
X148613809Y-89442381D01*
X148518571Y-89585238D01*
X148423333Y-89680476D01*
X148328095Y-89728095D01*
X149756667Y-89775714D02*
X149756667Y-90442381D01*
X149518571Y-89394762D02*
X149280476Y-90109048D01*
X149899524Y-90109048D01*
X147947143Y-92982381D02*
X147613809Y-92506190D01*
X147375714Y-92982381D02*
X147375714Y-91982381D01*
X147756667Y-91982381D01*
X147851905Y-92030000D01*
X147899524Y-92077619D01*
X147947143Y-92172857D01*
X147947143Y-92315714D01*
X147899524Y-92410952D01*
X147851905Y-92458571D01*
X147756667Y-92506190D01*
X147375714Y-92506190D01*
X148899524Y-92982381D02*
X148328095Y-92982381D01*
X148613809Y-92982381D02*
X148613809Y-91982381D01*
X148518571Y-92125238D01*
X148423333Y-92220476D01*
X148328095Y-92268095D01*
X149804286Y-91982381D02*
X149328095Y-91982381D01*
X149280476Y-92458571D01*
X149328095Y-92410952D01*
X149423333Y-92363333D01*
X149661429Y-92363333D01*
X149756667Y-92410952D01*
X149804286Y-92458571D01*
X149851905Y-92553810D01*
X149851905Y-92791905D01*
X149804286Y-92887143D01*
X149756667Y-92934762D01*
X149661429Y-92982381D01*
X149423333Y-92982381D01*
X149328095Y-92934762D01*
X149280476Y-92887143D01*
X147947143Y-95522381D02*
X147613809Y-95046190D01*
X147375714Y-95522381D02*
X147375714Y-94522381D01*
X147756667Y-94522381D01*
X147851905Y-94570000D01*
X147899524Y-94617619D01*
X147947143Y-94712857D01*
X147947143Y-94855714D01*
X147899524Y-94950952D01*
X147851905Y-94998571D01*
X147756667Y-95046190D01*
X147375714Y-95046190D01*
X148899524Y-95522381D02*
X148328095Y-95522381D01*
X148613809Y-95522381D02*
X148613809Y-94522381D01*
X148518571Y-94665238D01*
X148423333Y-94760476D01*
X148328095Y-94808095D01*
X149756667Y-94522381D02*
X149566190Y-94522381D01*
X149470952Y-94570000D01*
X149423333Y-94617619D01*
X149328095Y-94760476D01*
X149280476Y-94950952D01*
X149280476Y-95331905D01*
X149328095Y-95427143D01*
X149375714Y-95474762D01*
X149470952Y-95522381D01*
X149661429Y-95522381D01*
X149756667Y-95474762D01*
X149804286Y-95427143D01*
X149851905Y-95331905D01*
X149851905Y-95093810D01*
X149804286Y-94998571D01*
X149756667Y-94950952D01*
X149661429Y-94903333D01*
X149470952Y-94903333D01*
X149375714Y-94950952D01*
X149328095Y-94998571D01*
X149280476Y-95093810D01*
X147947143Y-98062381D02*
X147613809Y-97586190D01*
X147375714Y-98062381D02*
X147375714Y-97062381D01*
X147756667Y-97062381D01*
X147851905Y-97110000D01*
X147899524Y-97157619D01*
X147947143Y-97252857D01*
X147947143Y-97395714D01*
X147899524Y-97490952D01*
X147851905Y-97538571D01*
X147756667Y-97586190D01*
X147375714Y-97586190D01*
X148899524Y-98062381D02*
X148328095Y-98062381D01*
X148613809Y-98062381D02*
X148613809Y-97062381D01*
X148518571Y-97205238D01*
X148423333Y-97300476D01*
X148328095Y-97348095D01*
X149232857Y-97062381D02*
X149899524Y-97062381D01*
X149470952Y-98062381D01*
X147947143Y-100602381D02*
X147613809Y-100126190D01*
X147375714Y-100602381D02*
X147375714Y-99602381D01*
X147756667Y-99602381D01*
X147851905Y-99650000D01*
X147899524Y-99697619D01*
X147947143Y-99792857D01*
X147947143Y-99935714D01*
X147899524Y-100030952D01*
X147851905Y-100078571D01*
X147756667Y-100126190D01*
X147375714Y-100126190D01*
X148899524Y-100602381D02*
X148328095Y-100602381D01*
X148613809Y-100602381D02*
X148613809Y-99602381D01*
X148518571Y-99745238D01*
X148423333Y-99840476D01*
X148328095Y-99888095D01*
X149470952Y-100030952D02*
X149375714Y-99983333D01*
X149328095Y-99935714D01*
X149280476Y-99840476D01*
X149280476Y-99792857D01*
X149328095Y-99697619D01*
X149375714Y-99650000D01*
X149470952Y-99602381D01*
X149661429Y-99602381D01*
X149756667Y-99650000D01*
X149804286Y-99697619D01*
X149851905Y-99792857D01*
X149851905Y-99840476D01*
X149804286Y-99935714D01*
X149756667Y-99983333D01*
X149661429Y-100030952D01*
X149470952Y-100030952D01*
X149375714Y-100078571D01*
X149328095Y-100126190D01*
X149280476Y-100221429D01*
X149280476Y-100411905D01*
X149328095Y-100507143D01*
X149375714Y-100554762D01*
X149470952Y-100602381D01*
X149661429Y-100602381D01*
X149756667Y-100554762D01*
X149804286Y-100507143D01*
X149851905Y-100411905D01*
X149851905Y-100221429D01*
X149804286Y-100126190D01*
X149756667Y-100078571D01*
X149661429Y-100030952D01*
X147947143Y-103142381D02*
X147613809Y-102666190D01*
X147375714Y-103142381D02*
X147375714Y-102142381D01*
X147756667Y-102142381D01*
X147851905Y-102190000D01*
X147899524Y-102237619D01*
X147947143Y-102332857D01*
X147947143Y-102475714D01*
X147899524Y-102570952D01*
X147851905Y-102618571D01*
X147756667Y-102666190D01*
X147375714Y-102666190D01*
X148899524Y-103142381D02*
X148328095Y-103142381D01*
X148613809Y-103142381D02*
X148613809Y-102142381D01*
X148518571Y-102285238D01*
X148423333Y-102380476D01*
X148328095Y-102428095D01*
X149375714Y-103142381D02*
X149566190Y-103142381D01*
X149661429Y-103094762D01*
X149709048Y-103047143D01*
X149804286Y-102904286D01*
X149851905Y-102713810D01*
X149851905Y-102332857D01*
X149804286Y-102237619D01*
X149756667Y-102190000D01*
X149661429Y-102142381D01*
X149470952Y-102142381D01*
X149375714Y-102190000D01*
X149328095Y-102237619D01*
X149280476Y-102332857D01*
X149280476Y-102570952D01*
X149328095Y-102666190D01*
X149375714Y-102713810D01*
X149470952Y-102761429D01*
X149661429Y-102761429D01*
X149756667Y-102713810D01*
X149804286Y-102666190D01*
X149851905Y-102570952D01*
X147947143Y-105682381D02*
X147613809Y-105206190D01*
X147375714Y-105682381D02*
X147375714Y-104682381D01*
X147756667Y-104682381D01*
X147851905Y-104730000D01*
X147899524Y-104777619D01*
X147947143Y-104872857D01*
X147947143Y-105015714D01*
X147899524Y-105110952D01*
X147851905Y-105158571D01*
X147756667Y-105206190D01*
X147375714Y-105206190D01*
X148328095Y-104777619D02*
X148375714Y-104730000D01*
X148470952Y-104682381D01*
X148709048Y-104682381D01*
X148804286Y-104730000D01*
X148851905Y-104777619D01*
X148899524Y-104872857D01*
X148899524Y-104968095D01*
X148851905Y-105110952D01*
X148280476Y-105682381D01*
X148899524Y-105682381D01*
X149518571Y-104682381D02*
X149613810Y-104682381D01*
X149709048Y-104730000D01*
X149756667Y-104777619D01*
X149804286Y-104872857D01*
X149851905Y-105063333D01*
X149851905Y-105301429D01*
X149804286Y-105491905D01*
X149756667Y-105587143D01*
X149709048Y-105634762D01*
X149613810Y-105682381D01*
X149518571Y-105682381D01*
X149423333Y-105634762D01*
X149375714Y-105587143D01*
X149328095Y-105491905D01*
X149280476Y-105301429D01*
X149280476Y-105063333D01*
X149328095Y-104872857D01*
X149375714Y-104777619D01*
X149423333Y-104730000D01*
X149518571Y-104682381D01*
X147947143Y-108222381D02*
X147613809Y-107746190D01*
X147375714Y-108222381D02*
X147375714Y-107222381D01*
X147756667Y-107222381D01*
X147851905Y-107270000D01*
X147899524Y-107317619D01*
X147947143Y-107412857D01*
X147947143Y-107555714D01*
X147899524Y-107650952D01*
X147851905Y-107698571D01*
X147756667Y-107746190D01*
X147375714Y-107746190D01*
X148328095Y-107317619D02*
X148375714Y-107270000D01*
X148470952Y-107222381D01*
X148709048Y-107222381D01*
X148804286Y-107270000D01*
X148851905Y-107317619D01*
X148899524Y-107412857D01*
X148899524Y-107508095D01*
X148851905Y-107650952D01*
X148280476Y-108222381D01*
X148899524Y-108222381D01*
X149851905Y-108222381D02*
X149280476Y-108222381D01*
X149566190Y-108222381D02*
X149566190Y-107222381D01*
X149470952Y-107365238D01*
X149375714Y-107460476D01*
X149280476Y-107508095D01*
X130157143Y-113902381D02*
X129823809Y-113426190D01*
X129585714Y-113902381D02*
X129585714Y-112902381D01*
X129966667Y-112902381D01*
X130061905Y-112950000D01*
X130109524Y-112997619D01*
X130157143Y-113092857D01*
X130157143Y-113235714D01*
X130109524Y-113330952D01*
X130061905Y-113378571D01*
X129966667Y-113426190D01*
X129585714Y-113426190D01*
X130538095Y-112997619D02*
X130585714Y-112950000D01*
X130680952Y-112902381D01*
X130919048Y-112902381D01*
X131014286Y-112950000D01*
X131061905Y-112997619D01*
X131109524Y-113092857D01*
X131109524Y-113188095D01*
X131061905Y-113330952D01*
X130490476Y-113902381D01*
X131109524Y-113902381D01*
X131490476Y-112997619D02*
X131538095Y-112950000D01*
X131633333Y-112902381D01*
X131871429Y-112902381D01*
X131966667Y-112950000D01*
X132014286Y-112997619D01*
X132061905Y-113092857D01*
X132061905Y-113188095D01*
X132014286Y-113330952D01*
X131442857Y-113902381D01*
X132061905Y-113902381D01*
X132902381Y-110442857D02*
X132426190Y-110776191D01*
X132902381Y-111014286D02*
X131902381Y-111014286D01*
X131902381Y-110633333D01*
X131950000Y-110538095D01*
X131997619Y-110490476D01*
X132092857Y-110442857D01*
X132235714Y-110442857D01*
X132330952Y-110490476D01*
X132378571Y-110538095D01*
X132426190Y-110633333D01*
X132426190Y-111014286D01*
X131997619Y-110061905D02*
X131950000Y-110014286D01*
X131902381Y-109919048D01*
X131902381Y-109680952D01*
X131950000Y-109585714D01*
X131997619Y-109538095D01*
X132092857Y-109490476D01*
X132188095Y-109490476D01*
X132330952Y-109538095D01*
X132902381Y-110109524D01*
X132902381Y-109490476D01*
X131902381Y-109157143D02*
X131902381Y-108538095D01*
X132283333Y-108871429D01*
X132283333Y-108728571D01*
X132330952Y-108633333D01*
X132378571Y-108585714D01*
X132473810Y-108538095D01*
X132711905Y-108538095D01*
X132807143Y-108585714D01*
X132854762Y-108633333D01*
X132902381Y-108728571D01*
X132902381Y-109014286D01*
X132854762Y-109109524D01*
X132807143Y-109157143D01*
X137772381Y-83311905D02*
X138581905Y-83311905D01*
X138677143Y-83264286D01*
X138724762Y-83216667D01*
X138772381Y-83121429D01*
X138772381Y-82930952D01*
X138724762Y-82835714D01*
X138677143Y-82788095D01*
X138581905Y-82740476D01*
X137772381Y-82740476D01*
X138772381Y-81740476D02*
X138772381Y-82311905D01*
X138772381Y-82026191D02*
X137772381Y-82026191D01*
X137915238Y-82121429D01*
X138010476Y-82216667D01*
X138058095Y-82311905D01*
X136398095Y-107042381D02*
X136398095Y-107851905D01*
X136445714Y-107947143D01*
X136493333Y-107994762D01*
X136588571Y-108042381D01*
X136779048Y-108042381D01*
X136874286Y-107994762D01*
X136921905Y-107947143D01*
X136969524Y-107851905D01*
X136969524Y-107042381D01*
X137398095Y-107137619D02*
X137445714Y-107090000D01*
X137540952Y-107042381D01*
X137779048Y-107042381D01*
X137874286Y-107090000D01*
X137921905Y-107137619D01*
X137969524Y-107232857D01*
X137969524Y-107328095D01*
X137921905Y-107470952D01*
X137350476Y-108042381D01*
X137969524Y-108042381D01*
X148423334Y-72662381D02*
X148090000Y-72186190D01*
X147851905Y-72662381D02*
X147851905Y-71662381D01*
X148232858Y-71662381D01*
X148328096Y-71710000D01*
X148375715Y-71757619D01*
X148423334Y-71852857D01*
X148423334Y-71995714D01*
X148375715Y-72090952D01*
X148328096Y-72138571D01*
X148232858Y-72186190D01*
X147851905Y-72186190D01*
X148756667Y-71662381D02*
X149423334Y-71662381D01*
X148994762Y-72662381D01*
M02*
