G04 #@! TF.FileFunction,Copper,L2,Bot,Signal*
%FSLAX46Y46*%
G04 Gerber Fmt 4.6, Leading zero omitted, Abs format (unit mm)*
G04 Created by KiCad (PCBNEW 4.0.7) date 09/10/19 22:44:32*
%MOMM*%
%LPD*%
G01*
G04 APERTURE LIST*
%ADD10C,0.100000*%
%ADD11C,1.524000*%
%ADD12C,0.600000*%
%ADD13C,0.250000*%
%ADD14C,0.254000*%
G04 APERTURE END LIST*
D10*
D11*
X157480000Y-58420000D03*
X157480000Y-60960000D03*
X157480000Y-63500000D03*
X157480000Y-66040000D03*
X157480000Y-68580000D03*
X157480000Y-71120000D03*
X157480000Y-73660000D03*
X157480000Y-76200000D03*
X157480000Y-78740000D03*
X157480000Y-81280000D03*
X157480000Y-83820000D03*
X157480000Y-86360000D03*
X157480000Y-88900000D03*
X157480000Y-91440000D03*
X157480000Y-93980000D03*
X157480000Y-96520000D03*
X157480000Y-99060000D03*
X157480000Y-101600000D03*
X157480000Y-104140000D03*
X157480000Y-106680000D03*
X157480000Y-109220000D03*
X157480000Y-111760000D03*
X157480000Y-114300000D03*
X157480000Y-116840000D03*
D12*
X129700000Y-92200000D03*
X129500000Y-104000000D03*
X130500000Y-112500000D03*
X133700000Y-114100000D03*
X137900000Y-107600000D03*
X137700000Y-101600000D03*
X142200000Y-111500000D03*
D13*
X129600000Y-92300000D02*
X129700000Y-92200000D01*
X129600000Y-103900000D02*
X129600000Y-92300000D01*
X129500000Y-104000000D02*
X129600000Y-103900000D01*
X132100000Y-112500000D02*
X130500000Y-112500000D01*
X133700000Y-114100000D02*
X132100000Y-112500000D01*
X137900000Y-107600000D02*
X137700000Y-107400000D01*
X137700000Y-107400000D02*
X137700000Y-101600000D01*
X142460000Y-111760000D02*
X157480000Y-111760000D01*
X142200000Y-111500000D02*
X142460000Y-111760000D01*
D14*
G36*
X160580000Y-119940000D02*
X125170000Y-119940000D01*
X125170000Y-117820213D01*
X156679392Y-117820213D01*
X156748857Y-118062397D01*
X157272302Y-118249144D01*
X157827368Y-118221362D01*
X158211143Y-118062397D01*
X158280608Y-117820213D01*
X157480000Y-117019605D01*
X156679392Y-117820213D01*
X125170000Y-117820213D01*
X125170000Y-116632302D01*
X156070856Y-116632302D01*
X156098638Y-117187368D01*
X156257603Y-117571143D01*
X156499787Y-117640608D01*
X157300395Y-116840000D01*
X157659605Y-116840000D01*
X158460213Y-117640608D01*
X158702397Y-117571143D01*
X158889144Y-117047698D01*
X158861362Y-116492632D01*
X158702397Y-116108857D01*
X158460213Y-116039392D01*
X157659605Y-116840000D01*
X157300395Y-116840000D01*
X156499787Y-116039392D01*
X156257603Y-116108857D01*
X156070856Y-116632302D01*
X125170000Y-116632302D01*
X125170000Y-111685167D01*
X141264838Y-111685167D01*
X141406883Y-112028943D01*
X141669673Y-112292192D01*
X142013201Y-112434838D01*
X142128439Y-112434938D01*
X142169161Y-112462148D01*
X142460000Y-112520000D01*
X156282469Y-112520000D01*
X156294990Y-112550303D01*
X156687630Y-112943629D01*
X156895512Y-113029949D01*
X156689697Y-113114990D01*
X156296371Y-113507630D01*
X156083243Y-114020900D01*
X156082758Y-114576661D01*
X156294990Y-115090303D01*
X156687630Y-115483629D01*
X156879727Y-115563395D01*
X156748857Y-115617603D01*
X156679392Y-115859787D01*
X157480000Y-116660395D01*
X158280608Y-115859787D01*
X158211143Y-115617603D01*
X158070682Y-115567491D01*
X158270303Y-115485010D01*
X158663629Y-115092370D01*
X158876757Y-114579100D01*
X158877242Y-114023339D01*
X158665010Y-113509697D01*
X158272370Y-113116371D01*
X158064488Y-113030051D01*
X158270303Y-112945010D01*
X158663629Y-112552370D01*
X158876757Y-112039100D01*
X158877242Y-111483339D01*
X158665010Y-110969697D01*
X158272370Y-110576371D01*
X158064488Y-110490051D01*
X158270303Y-110405010D01*
X158663629Y-110012370D01*
X158876757Y-109499100D01*
X158877242Y-108943339D01*
X158665010Y-108429697D01*
X158272370Y-108036371D01*
X158064488Y-107950051D01*
X158270303Y-107865010D01*
X158663629Y-107472370D01*
X158876757Y-106959100D01*
X158877242Y-106403339D01*
X158665010Y-105889697D01*
X158272370Y-105496371D01*
X158064488Y-105410051D01*
X158270303Y-105325010D01*
X158663629Y-104932370D01*
X158876757Y-104419100D01*
X158877242Y-103863339D01*
X158665010Y-103349697D01*
X158272370Y-102956371D01*
X158064488Y-102870051D01*
X158270303Y-102785010D01*
X158663629Y-102392370D01*
X158876757Y-101879100D01*
X158877242Y-101323339D01*
X158665010Y-100809697D01*
X158272370Y-100416371D01*
X158064488Y-100330051D01*
X158270303Y-100245010D01*
X158663629Y-99852370D01*
X158876757Y-99339100D01*
X158877242Y-98783339D01*
X158665010Y-98269697D01*
X158272370Y-97876371D01*
X158064488Y-97790051D01*
X158270303Y-97705010D01*
X158663629Y-97312370D01*
X158876757Y-96799100D01*
X158877242Y-96243339D01*
X158665010Y-95729697D01*
X158272370Y-95336371D01*
X158064488Y-95250051D01*
X158270303Y-95165010D01*
X158663629Y-94772370D01*
X158876757Y-94259100D01*
X158877242Y-93703339D01*
X158665010Y-93189697D01*
X158272370Y-92796371D01*
X158064488Y-92710051D01*
X158270303Y-92625010D01*
X158663629Y-92232370D01*
X158876757Y-91719100D01*
X158877242Y-91163339D01*
X158665010Y-90649697D01*
X158272370Y-90256371D01*
X158064488Y-90170051D01*
X158270303Y-90085010D01*
X158663629Y-89692370D01*
X158876757Y-89179100D01*
X158877242Y-88623339D01*
X158665010Y-88109697D01*
X158272370Y-87716371D01*
X158064488Y-87630051D01*
X158270303Y-87545010D01*
X158663629Y-87152370D01*
X158876757Y-86639100D01*
X158877242Y-86083339D01*
X158665010Y-85569697D01*
X158272370Y-85176371D01*
X158064488Y-85090051D01*
X158270303Y-85005010D01*
X158663629Y-84612370D01*
X158876757Y-84099100D01*
X158877242Y-83543339D01*
X158665010Y-83029697D01*
X158272370Y-82636371D01*
X158064488Y-82550051D01*
X158270303Y-82465010D01*
X158663629Y-82072370D01*
X158876757Y-81559100D01*
X158877242Y-81003339D01*
X158665010Y-80489697D01*
X158272370Y-80096371D01*
X158064488Y-80010051D01*
X158270303Y-79925010D01*
X158663629Y-79532370D01*
X158876757Y-79019100D01*
X158877242Y-78463339D01*
X158665010Y-77949697D01*
X158272370Y-77556371D01*
X158064488Y-77470051D01*
X158270303Y-77385010D01*
X158663629Y-76992370D01*
X158876757Y-76479100D01*
X158877242Y-75923339D01*
X158665010Y-75409697D01*
X158272370Y-75016371D01*
X158064488Y-74930051D01*
X158270303Y-74845010D01*
X158663629Y-74452370D01*
X158876757Y-73939100D01*
X158877242Y-73383339D01*
X158665010Y-72869697D01*
X158272370Y-72476371D01*
X158064488Y-72390051D01*
X158270303Y-72305010D01*
X158663629Y-71912370D01*
X158876757Y-71399100D01*
X158877242Y-70843339D01*
X158665010Y-70329697D01*
X158272370Y-69936371D01*
X158064488Y-69850051D01*
X158270303Y-69765010D01*
X158663629Y-69372370D01*
X158876757Y-68859100D01*
X158877242Y-68303339D01*
X158665010Y-67789697D01*
X158272370Y-67396371D01*
X158064488Y-67310051D01*
X158270303Y-67225010D01*
X158663629Y-66832370D01*
X158876757Y-66319100D01*
X158877242Y-65763339D01*
X158665010Y-65249697D01*
X158272370Y-64856371D01*
X158064488Y-64770051D01*
X158270303Y-64685010D01*
X158663629Y-64292370D01*
X158876757Y-63779100D01*
X158877242Y-63223339D01*
X158665010Y-62709697D01*
X158272370Y-62316371D01*
X158064488Y-62230051D01*
X158270303Y-62145010D01*
X158663629Y-61752370D01*
X158876757Y-61239100D01*
X158877242Y-60683339D01*
X158665010Y-60169697D01*
X158272370Y-59776371D01*
X158064488Y-59690051D01*
X158270303Y-59605010D01*
X158663629Y-59212370D01*
X158876757Y-58699100D01*
X158877242Y-58143339D01*
X158665010Y-57629697D01*
X158272370Y-57236371D01*
X157759100Y-57023243D01*
X157203339Y-57022758D01*
X156689697Y-57234990D01*
X156296371Y-57627630D01*
X156083243Y-58140900D01*
X156082758Y-58696661D01*
X156294990Y-59210303D01*
X156687630Y-59603629D01*
X156895512Y-59689949D01*
X156689697Y-59774990D01*
X156296371Y-60167630D01*
X156083243Y-60680900D01*
X156082758Y-61236661D01*
X156294990Y-61750303D01*
X156687630Y-62143629D01*
X156895512Y-62229949D01*
X156689697Y-62314990D01*
X156296371Y-62707630D01*
X156083243Y-63220900D01*
X156082758Y-63776661D01*
X156294990Y-64290303D01*
X156687630Y-64683629D01*
X156895512Y-64769949D01*
X156689697Y-64854990D01*
X156296371Y-65247630D01*
X156083243Y-65760900D01*
X156082758Y-66316661D01*
X156294990Y-66830303D01*
X156687630Y-67223629D01*
X156895512Y-67309949D01*
X156689697Y-67394990D01*
X156296371Y-67787630D01*
X156083243Y-68300900D01*
X156082758Y-68856661D01*
X156294990Y-69370303D01*
X156687630Y-69763629D01*
X156895512Y-69849949D01*
X156689697Y-69934990D01*
X156296371Y-70327630D01*
X156083243Y-70840900D01*
X156082758Y-71396661D01*
X156294990Y-71910303D01*
X156687630Y-72303629D01*
X156895512Y-72389949D01*
X156689697Y-72474990D01*
X156296371Y-72867630D01*
X156083243Y-73380900D01*
X156082758Y-73936661D01*
X156294990Y-74450303D01*
X156687630Y-74843629D01*
X156895512Y-74929949D01*
X156689697Y-75014990D01*
X156296371Y-75407630D01*
X156083243Y-75920900D01*
X156082758Y-76476661D01*
X156294990Y-76990303D01*
X156687630Y-77383629D01*
X156895512Y-77469949D01*
X156689697Y-77554990D01*
X156296371Y-77947630D01*
X156083243Y-78460900D01*
X156082758Y-79016661D01*
X156294990Y-79530303D01*
X156687630Y-79923629D01*
X156895512Y-80009949D01*
X156689697Y-80094990D01*
X156296371Y-80487630D01*
X156083243Y-81000900D01*
X156082758Y-81556661D01*
X156294990Y-82070303D01*
X156687630Y-82463629D01*
X156895512Y-82549949D01*
X156689697Y-82634990D01*
X156296371Y-83027630D01*
X156083243Y-83540900D01*
X156082758Y-84096661D01*
X156294990Y-84610303D01*
X156687630Y-85003629D01*
X156895512Y-85089949D01*
X156689697Y-85174990D01*
X156296371Y-85567630D01*
X156083243Y-86080900D01*
X156082758Y-86636661D01*
X156294990Y-87150303D01*
X156687630Y-87543629D01*
X156895512Y-87629949D01*
X156689697Y-87714990D01*
X156296371Y-88107630D01*
X156083243Y-88620900D01*
X156082758Y-89176661D01*
X156294990Y-89690303D01*
X156687630Y-90083629D01*
X156895512Y-90169949D01*
X156689697Y-90254990D01*
X156296371Y-90647630D01*
X156083243Y-91160900D01*
X156082758Y-91716661D01*
X156294990Y-92230303D01*
X156687630Y-92623629D01*
X156895512Y-92709949D01*
X156689697Y-92794990D01*
X156296371Y-93187630D01*
X156083243Y-93700900D01*
X156082758Y-94256661D01*
X156294990Y-94770303D01*
X156687630Y-95163629D01*
X156895512Y-95249949D01*
X156689697Y-95334990D01*
X156296371Y-95727630D01*
X156083243Y-96240900D01*
X156082758Y-96796661D01*
X156294990Y-97310303D01*
X156687630Y-97703629D01*
X156895512Y-97789949D01*
X156689697Y-97874990D01*
X156296371Y-98267630D01*
X156083243Y-98780900D01*
X156082758Y-99336661D01*
X156294990Y-99850303D01*
X156687630Y-100243629D01*
X156895512Y-100329949D01*
X156689697Y-100414990D01*
X156296371Y-100807630D01*
X156083243Y-101320900D01*
X156082758Y-101876661D01*
X156294990Y-102390303D01*
X156687630Y-102783629D01*
X156895512Y-102869949D01*
X156689697Y-102954990D01*
X156296371Y-103347630D01*
X156083243Y-103860900D01*
X156082758Y-104416661D01*
X156294990Y-104930303D01*
X156687630Y-105323629D01*
X156895512Y-105409949D01*
X156689697Y-105494990D01*
X156296371Y-105887630D01*
X156083243Y-106400900D01*
X156082758Y-106956661D01*
X156294990Y-107470303D01*
X156687630Y-107863629D01*
X156895512Y-107949949D01*
X156689697Y-108034990D01*
X156296371Y-108427630D01*
X156083243Y-108940900D01*
X156082758Y-109496661D01*
X156294990Y-110010303D01*
X156687630Y-110403629D01*
X156895512Y-110489949D01*
X156689697Y-110574990D01*
X156296371Y-110967630D01*
X156282930Y-111000000D01*
X143005076Y-111000000D01*
X142993117Y-110971057D01*
X142730327Y-110707808D01*
X142386799Y-110565162D01*
X142014833Y-110564838D01*
X141671057Y-110706883D01*
X141407808Y-110969673D01*
X141265162Y-111313201D01*
X141264838Y-111685167D01*
X125170000Y-111685167D01*
X125170000Y-101785167D01*
X136764838Y-101785167D01*
X136906883Y-102128943D01*
X136940000Y-102162118D01*
X136940000Y-107400000D01*
X136965064Y-107526003D01*
X136964838Y-107785167D01*
X137106883Y-108128943D01*
X137369673Y-108392192D01*
X137713201Y-108534838D01*
X138085167Y-108535162D01*
X138428943Y-108393117D01*
X138692192Y-108130327D01*
X138834838Y-107786799D01*
X138835162Y-107414833D01*
X138693117Y-107071057D01*
X138460000Y-106837533D01*
X138460000Y-102162463D01*
X138492192Y-102130327D01*
X138634838Y-101786799D01*
X138635162Y-101414833D01*
X138493117Y-101071057D01*
X138230327Y-100807808D01*
X137886799Y-100665162D01*
X137514833Y-100664838D01*
X137171057Y-100806883D01*
X136907808Y-101069673D01*
X136765162Y-101413201D01*
X136764838Y-101785167D01*
X125170000Y-101785167D01*
X125170000Y-55320000D01*
X160580000Y-55320000D01*
X160580000Y-119940000D01*
X160580000Y-119940000D01*
G37*
X160580000Y-119940000D02*
X125170000Y-119940000D01*
X125170000Y-117820213D01*
X156679392Y-117820213D01*
X156748857Y-118062397D01*
X157272302Y-118249144D01*
X157827368Y-118221362D01*
X158211143Y-118062397D01*
X158280608Y-117820213D01*
X157480000Y-117019605D01*
X156679392Y-117820213D01*
X125170000Y-117820213D01*
X125170000Y-116632302D01*
X156070856Y-116632302D01*
X156098638Y-117187368D01*
X156257603Y-117571143D01*
X156499787Y-117640608D01*
X157300395Y-116840000D01*
X157659605Y-116840000D01*
X158460213Y-117640608D01*
X158702397Y-117571143D01*
X158889144Y-117047698D01*
X158861362Y-116492632D01*
X158702397Y-116108857D01*
X158460213Y-116039392D01*
X157659605Y-116840000D01*
X157300395Y-116840000D01*
X156499787Y-116039392D01*
X156257603Y-116108857D01*
X156070856Y-116632302D01*
X125170000Y-116632302D01*
X125170000Y-111685167D01*
X141264838Y-111685167D01*
X141406883Y-112028943D01*
X141669673Y-112292192D01*
X142013201Y-112434838D01*
X142128439Y-112434938D01*
X142169161Y-112462148D01*
X142460000Y-112520000D01*
X156282469Y-112520000D01*
X156294990Y-112550303D01*
X156687630Y-112943629D01*
X156895512Y-113029949D01*
X156689697Y-113114990D01*
X156296371Y-113507630D01*
X156083243Y-114020900D01*
X156082758Y-114576661D01*
X156294990Y-115090303D01*
X156687630Y-115483629D01*
X156879727Y-115563395D01*
X156748857Y-115617603D01*
X156679392Y-115859787D01*
X157480000Y-116660395D01*
X158280608Y-115859787D01*
X158211143Y-115617603D01*
X158070682Y-115567491D01*
X158270303Y-115485010D01*
X158663629Y-115092370D01*
X158876757Y-114579100D01*
X158877242Y-114023339D01*
X158665010Y-113509697D01*
X158272370Y-113116371D01*
X158064488Y-113030051D01*
X158270303Y-112945010D01*
X158663629Y-112552370D01*
X158876757Y-112039100D01*
X158877242Y-111483339D01*
X158665010Y-110969697D01*
X158272370Y-110576371D01*
X158064488Y-110490051D01*
X158270303Y-110405010D01*
X158663629Y-110012370D01*
X158876757Y-109499100D01*
X158877242Y-108943339D01*
X158665010Y-108429697D01*
X158272370Y-108036371D01*
X158064488Y-107950051D01*
X158270303Y-107865010D01*
X158663629Y-107472370D01*
X158876757Y-106959100D01*
X158877242Y-106403339D01*
X158665010Y-105889697D01*
X158272370Y-105496371D01*
X158064488Y-105410051D01*
X158270303Y-105325010D01*
X158663629Y-104932370D01*
X158876757Y-104419100D01*
X158877242Y-103863339D01*
X158665010Y-103349697D01*
X158272370Y-102956371D01*
X158064488Y-102870051D01*
X158270303Y-102785010D01*
X158663629Y-102392370D01*
X158876757Y-101879100D01*
X158877242Y-101323339D01*
X158665010Y-100809697D01*
X158272370Y-100416371D01*
X158064488Y-100330051D01*
X158270303Y-100245010D01*
X158663629Y-99852370D01*
X158876757Y-99339100D01*
X158877242Y-98783339D01*
X158665010Y-98269697D01*
X158272370Y-97876371D01*
X158064488Y-97790051D01*
X158270303Y-97705010D01*
X158663629Y-97312370D01*
X158876757Y-96799100D01*
X158877242Y-96243339D01*
X158665010Y-95729697D01*
X158272370Y-95336371D01*
X158064488Y-95250051D01*
X158270303Y-95165010D01*
X158663629Y-94772370D01*
X158876757Y-94259100D01*
X158877242Y-93703339D01*
X158665010Y-93189697D01*
X158272370Y-92796371D01*
X158064488Y-92710051D01*
X158270303Y-92625010D01*
X158663629Y-92232370D01*
X158876757Y-91719100D01*
X158877242Y-91163339D01*
X158665010Y-90649697D01*
X158272370Y-90256371D01*
X158064488Y-90170051D01*
X158270303Y-90085010D01*
X158663629Y-89692370D01*
X158876757Y-89179100D01*
X158877242Y-88623339D01*
X158665010Y-88109697D01*
X158272370Y-87716371D01*
X158064488Y-87630051D01*
X158270303Y-87545010D01*
X158663629Y-87152370D01*
X158876757Y-86639100D01*
X158877242Y-86083339D01*
X158665010Y-85569697D01*
X158272370Y-85176371D01*
X158064488Y-85090051D01*
X158270303Y-85005010D01*
X158663629Y-84612370D01*
X158876757Y-84099100D01*
X158877242Y-83543339D01*
X158665010Y-83029697D01*
X158272370Y-82636371D01*
X158064488Y-82550051D01*
X158270303Y-82465010D01*
X158663629Y-82072370D01*
X158876757Y-81559100D01*
X158877242Y-81003339D01*
X158665010Y-80489697D01*
X158272370Y-80096371D01*
X158064488Y-80010051D01*
X158270303Y-79925010D01*
X158663629Y-79532370D01*
X158876757Y-79019100D01*
X158877242Y-78463339D01*
X158665010Y-77949697D01*
X158272370Y-77556371D01*
X158064488Y-77470051D01*
X158270303Y-77385010D01*
X158663629Y-76992370D01*
X158876757Y-76479100D01*
X158877242Y-75923339D01*
X158665010Y-75409697D01*
X158272370Y-75016371D01*
X158064488Y-74930051D01*
X158270303Y-74845010D01*
X158663629Y-74452370D01*
X158876757Y-73939100D01*
X158877242Y-73383339D01*
X158665010Y-72869697D01*
X158272370Y-72476371D01*
X158064488Y-72390051D01*
X158270303Y-72305010D01*
X158663629Y-71912370D01*
X158876757Y-71399100D01*
X158877242Y-70843339D01*
X158665010Y-70329697D01*
X158272370Y-69936371D01*
X158064488Y-69850051D01*
X158270303Y-69765010D01*
X158663629Y-69372370D01*
X158876757Y-68859100D01*
X158877242Y-68303339D01*
X158665010Y-67789697D01*
X158272370Y-67396371D01*
X158064488Y-67310051D01*
X158270303Y-67225010D01*
X158663629Y-66832370D01*
X158876757Y-66319100D01*
X158877242Y-65763339D01*
X158665010Y-65249697D01*
X158272370Y-64856371D01*
X158064488Y-64770051D01*
X158270303Y-64685010D01*
X158663629Y-64292370D01*
X158876757Y-63779100D01*
X158877242Y-63223339D01*
X158665010Y-62709697D01*
X158272370Y-62316371D01*
X158064488Y-62230051D01*
X158270303Y-62145010D01*
X158663629Y-61752370D01*
X158876757Y-61239100D01*
X158877242Y-60683339D01*
X158665010Y-60169697D01*
X158272370Y-59776371D01*
X158064488Y-59690051D01*
X158270303Y-59605010D01*
X158663629Y-59212370D01*
X158876757Y-58699100D01*
X158877242Y-58143339D01*
X158665010Y-57629697D01*
X158272370Y-57236371D01*
X157759100Y-57023243D01*
X157203339Y-57022758D01*
X156689697Y-57234990D01*
X156296371Y-57627630D01*
X156083243Y-58140900D01*
X156082758Y-58696661D01*
X156294990Y-59210303D01*
X156687630Y-59603629D01*
X156895512Y-59689949D01*
X156689697Y-59774990D01*
X156296371Y-60167630D01*
X156083243Y-60680900D01*
X156082758Y-61236661D01*
X156294990Y-61750303D01*
X156687630Y-62143629D01*
X156895512Y-62229949D01*
X156689697Y-62314990D01*
X156296371Y-62707630D01*
X156083243Y-63220900D01*
X156082758Y-63776661D01*
X156294990Y-64290303D01*
X156687630Y-64683629D01*
X156895512Y-64769949D01*
X156689697Y-64854990D01*
X156296371Y-65247630D01*
X156083243Y-65760900D01*
X156082758Y-66316661D01*
X156294990Y-66830303D01*
X156687630Y-67223629D01*
X156895512Y-67309949D01*
X156689697Y-67394990D01*
X156296371Y-67787630D01*
X156083243Y-68300900D01*
X156082758Y-68856661D01*
X156294990Y-69370303D01*
X156687630Y-69763629D01*
X156895512Y-69849949D01*
X156689697Y-69934990D01*
X156296371Y-70327630D01*
X156083243Y-70840900D01*
X156082758Y-71396661D01*
X156294990Y-71910303D01*
X156687630Y-72303629D01*
X156895512Y-72389949D01*
X156689697Y-72474990D01*
X156296371Y-72867630D01*
X156083243Y-73380900D01*
X156082758Y-73936661D01*
X156294990Y-74450303D01*
X156687630Y-74843629D01*
X156895512Y-74929949D01*
X156689697Y-75014990D01*
X156296371Y-75407630D01*
X156083243Y-75920900D01*
X156082758Y-76476661D01*
X156294990Y-76990303D01*
X156687630Y-77383629D01*
X156895512Y-77469949D01*
X156689697Y-77554990D01*
X156296371Y-77947630D01*
X156083243Y-78460900D01*
X156082758Y-79016661D01*
X156294990Y-79530303D01*
X156687630Y-79923629D01*
X156895512Y-80009949D01*
X156689697Y-80094990D01*
X156296371Y-80487630D01*
X156083243Y-81000900D01*
X156082758Y-81556661D01*
X156294990Y-82070303D01*
X156687630Y-82463629D01*
X156895512Y-82549949D01*
X156689697Y-82634990D01*
X156296371Y-83027630D01*
X156083243Y-83540900D01*
X156082758Y-84096661D01*
X156294990Y-84610303D01*
X156687630Y-85003629D01*
X156895512Y-85089949D01*
X156689697Y-85174990D01*
X156296371Y-85567630D01*
X156083243Y-86080900D01*
X156082758Y-86636661D01*
X156294990Y-87150303D01*
X156687630Y-87543629D01*
X156895512Y-87629949D01*
X156689697Y-87714990D01*
X156296371Y-88107630D01*
X156083243Y-88620900D01*
X156082758Y-89176661D01*
X156294990Y-89690303D01*
X156687630Y-90083629D01*
X156895512Y-90169949D01*
X156689697Y-90254990D01*
X156296371Y-90647630D01*
X156083243Y-91160900D01*
X156082758Y-91716661D01*
X156294990Y-92230303D01*
X156687630Y-92623629D01*
X156895512Y-92709949D01*
X156689697Y-92794990D01*
X156296371Y-93187630D01*
X156083243Y-93700900D01*
X156082758Y-94256661D01*
X156294990Y-94770303D01*
X156687630Y-95163629D01*
X156895512Y-95249949D01*
X156689697Y-95334990D01*
X156296371Y-95727630D01*
X156083243Y-96240900D01*
X156082758Y-96796661D01*
X156294990Y-97310303D01*
X156687630Y-97703629D01*
X156895512Y-97789949D01*
X156689697Y-97874990D01*
X156296371Y-98267630D01*
X156083243Y-98780900D01*
X156082758Y-99336661D01*
X156294990Y-99850303D01*
X156687630Y-100243629D01*
X156895512Y-100329949D01*
X156689697Y-100414990D01*
X156296371Y-100807630D01*
X156083243Y-101320900D01*
X156082758Y-101876661D01*
X156294990Y-102390303D01*
X156687630Y-102783629D01*
X156895512Y-102869949D01*
X156689697Y-102954990D01*
X156296371Y-103347630D01*
X156083243Y-103860900D01*
X156082758Y-104416661D01*
X156294990Y-104930303D01*
X156687630Y-105323629D01*
X156895512Y-105409949D01*
X156689697Y-105494990D01*
X156296371Y-105887630D01*
X156083243Y-106400900D01*
X156082758Y-106956661D01*
X156294990Y-107470303D01*
X156687630Y-107863629D01*
X156895512Y-107949949D01*
X156689697Y-108034990D01*
X156296371Y-108427630D01*
X156083243Y-108940900D01*
X156082758Y-109496661D01*
X156294990Y-110010303D01*
X156687630Y-110403629D01*
X156895512Y-110489949D01*
X156689697Y-110574990D01*
X156296371Y-110967630D01*
X156282930Y-111000000D01*
X143005076Y-111000000D01*
X142993117Y-110971057D01*
X142730327Y-110707808D01*
X142386799Y-110565162D01*
X142014833Y-110564838D01*
X141671057Y-110706883D01*
X141407808Y-110969673D01*
X141265162Y-111313201D01*
X141264838Y-111685167D01*
X125170000Y-111685167D01*
X125170000Y-101785167D01*
X136764838Y-101785167D01*
X136906883Y-102128943D01*
X136940000Y-102162118D01*
X136940000Y-107400000D01*
X136965064Y-107526003D01*
X136964838Y-107785167D01*
X137106883Y-108128943D01*
X137369673Y-108392192D01*
X137713201Y-108534838D01*
X138085167Y-108535162D01*
X138428943Y-108393117D01*
X138692192Y-108130327D01*
X138834838Y-107786799D01*
X138835162Y-107414833D01*
X138693117Y-107071057D01*
X138460000Y-106837533D01*
X138460000Y-102162463D01*
X138492192Y-102130327D01*
X138634838Y-101786799D01*
X138635162Y-101414833D01*
X138493117Y-101071057D01*
X138230327Y-100807808D01*
X137886799Y-100665162D01*
X137514833Y-100664838D01*
X137171057Y-100806883D01*
X136907808Y-101069673D01*
X136765162Y-101413201D01*
X136764838Y-101785167D01*
X125170000Y-101785167D01*
X125170000Y-55320000D01*
X160580000Y-55320000D01*
X160580000Y-119940000D01*
M02*
